<svg width="28" height="26" viewBox="0 0 28 26" fill="none" xmlns="http://www.w3.org/2000/svg">
<g filter="url(#filter0_bdi_319_225)">
<path d="M14 5.11745L15.1001 4.70461C17.6036 3.76513 20.3964 3.76513 22.8999 4.70461C23.5643 4.95395 24 5.55769 24 6.22907V20.0797C24 21.0016 23.0075 21.632 22.0951 21.2896C20.1082 20.544 17.8918 20.544 15.9049 21.2896L14.0137 21.9993C14.0071 22.0018 14 21.9972 14 21.9906V5.11745Z" fill="url(#paint0_linear_319_225)" shape-rendering="crispEdges"/>
<path d="M14 5.11745L12.8999 4.70461C10.3964 3.76513 7.60362 3.76513 5.10014 4.70461C4.43569 4.95395 4 5.55769 4 6.22907V20.0797C4 21.0016 4.99247 21.632 5.90485 21.2896C7.89175 20.544 10.1082 20.544 12.0951 21.2896L13.9863 21.9993C13.9929 22.0018 14 21.9972 14 21.9906V5.11745Z" fill="url(#paint1_linear_319_225)" shape-rendering="crispEdges"/>
<path d="M15.8609 21.1726L14.125 21.824V5.20405L15.1441 4.82164C17.6192 3.89279 20.3808 3.89279 22.8559 4.82164C23.4753 5.05407 23.875 5.61363 23.875 6.22907V20.0797C23.875 20.9028 22.9808 21.4885 22.1391 21.1726C20.1238 20.4164 17.8762 20.4164 15.8609 21.1726ZM13.875 21.824L12.1391 21.1726C10.1238 20.4164 7.87615 20.4164 5.86093 21.1726C5.01916 21.4885 4.125 20.9028 4.125 20.0797V6.22907C4.125 5.61363 4.52469 5.05407 5.14406 4.82164C7.61922 3.89279 10.3808 3.89279 12.8559 4.82164L13.875 5.20405V21.824Z" stroke="url(#paint2_linear_319_225)" stroke-opacity="0.7" stroke-width="0.25" shape-rendering="crispEdges"/>
</g>
<defs>
<filter id="filter0_bdi_319_225" x="0" y="0" width="28" height="26" filterUnits="userSpaceOnUse" color-interpolation-filters="sRGB">
<feFlood flood-opacity="0" result="BackgroundImageFix"/>
<feGaussianBlur in="BackgroundImageFix" stdDeviation="1"/>
<feComposite in2="SourceAlpha" operator="in" result="effect1_backgroundBlur_319_225"/>
<feColorMatrix in="SourceAlpha" type="matrix" values="0 0 0 0 0 0 0 0 0 0 0 0 0 0 0 0 0 0 127 0" result="hardAlpha"/>
<feOffset/>
<feGaussianBlur stdDeviation="2"/>
<feComposite in2="hardAlpha" operator="out"/>
<feColorMatrix type="matrix" values="0 0 0 0 0.231373 0 0 0 0 0.407843 0 0 0 0 1 0 0 0 0.1 0"/>
<feBlend mode="normal" in2="effect1_backgroundBlur_319_225" result="effect2_dropShadow_319_225"/>
<feBlend mode="normal" in="SourceGraphic" in2="effect2_dropShadow_319_225" result="shape"/>
<feColorMatrix in="SourceAlpha" type="matrix" values="0 0 0 0 0 0 0 0 0 0 0 0 0 0 0 0 0 0 127 0" result="hardAlpha"/>
<feOffset/>
<feGaussianBlur stdDeviation="1.5"/>
<feComposite in2="hardAlpha" operator="arithmetic" k2="-1" k3="1"/>
<feColorMatrix type="matrix" values="0 0 0 0 0.231373 0 0 0 0 0.407843 0 0 0 0 1 0 0 0 0.38 0"/>
<feBlend mode="normal" in2="shape" result="effect3_innerShadow_319_225"/>
</filter>
<linearGradient id="paint0_linear_319_225" x1="-2.5" y1="-3.2" x2="31.0168" y2="30.0149" gradientUnits="userSpaceOnUse">
<stop stop-color="#29EAC4" stop-opacity="0.5"/>
<stop offset="0.505208" stop-color="#12D8FA" stop-opacity="0.5"/>
<stop offset="1" stop-color="#0B2774" stop-opacity="0.5"/>
</linearGradient>
<linearGradient id="paint1_linear_319_225" x1="-2.5" y1="-3.2" x2="31.0168" y2="30.0149" gradientUnits="userSpaceOnUse">
<stop stop-color="#29EAC4" stop-opacity="0.5"/>
<stop offset="0.505208" stop-color="#12D8FA" stop-opacity="0.5"/>
<stop offset="1" stop-color="#0B2774" stop-opacity="0.5"/>
</linearGradient>
<linearGradient id="paint2_linear_319_225" x1="4.5" y1="6.7" x2="20.4185" y2="21.8605" gradientUnits="userSpaceOnUse">
<stop stop-color="white" stop-opacity="0.15"/>
<stop offset="1" stop-color="white" stop-opacity="0.44"/>
</linearGradient>
</defs>
</svg>
