<svg width="28" height="28" viewBox="0 0 28 28" fill="none" xmlns="http://www.w3.org/2000/svg">
<g filter="url(#filter0_bdi_319_120)">
<rect x="4" y="4" width="20" height="20" rx="5" fill="url(#paint0_linear_319_120)" shape-rendering="crispEdges"/>
<rect x="4.125" y="4.125" width="19.75" height="19.75" rx="4.875" stroke="url(#paint1_linear_319_120)" stroke-opacity="0.7" stroke-width="0.25" shape-rendering="crispEdges"/>
</g>
<g filter="url(#filter1_d_319_120)">
<path d="M12 19H16" stroke="#2AEAE7" stroke-width="1.5" stroke-linecap="round" stroke-linejoin="round"/>
</g>
<g filter="url(#filter2_d_319_120)">
<path d="M11 5L11 11L14 10L17 11L17 5L11 5Z" fill="#2AEAE7"/>
<path d="M11 11L10.25 11C10.25 11.2411 10.3659 11.4675 10.5615 11.6084C10.757 11.7494 11.0085 11.7877 11.2372 11.7115L11 11ZM11 5L11 4.25L10.25 4.25L10.25 5L11 5ZM14 10L14.2372 9.28849C14.0832 9.23717 13.9168 9.23717 13.7628 9.28849L14 10ZM17 11L16.7628 11.7115C16.9915 11.7877 17.243 11.7494 17.4385 11.6084C17.6341 11.4675 17.75 11.2411 17.75 11L17 11ZM17 5L17.75 5L17.75 4.25L17 4.25L17 5ZM11.75 11L11.75 5L10.25 5L10.25 11L11.75 11ZM11.2372 11.7115L14.2372 10.7115L13.7628 9.28849L10.7628 10.2885L11.2372 11.7115ZM13.7628 10.7115L16.7628 11.7115L17.2372 10.2885L14.2372 9.28849L13.7628 10.7115ZM17.75 11L17.75 5L16.25 5L16.25 11L17.75 11ZM17 4.25L11 4.25L11 5.75L17 5.75L17 4.25Z" fill="#2AEAE7"/>
</g>
<defs>
<filter id="filter0_bdi_319_120" x="0" y="0" width="28" height="28" filterUnits="userSpaceOnUse" color-interpolation-filters="sRGB">
<feFlood flood-opacity="0" result="BackgroundImageFix"/>
<feGaussianBlur in="BackgroundImageFix" stdDeviation="1"/>
<feComposite in2="SourceAlpha" operator="in" result="effect1_backgroundBlur_319_120"/>
<feColorMatrix in="SourceAlpha" type="matrix" values="0 0 0 0 0 0 0 0 0 0 0 0 0 0 0 0 0 0 127 0" result="hardAlpha"/>
<feOffset/>
<feGaussianBlur stdDeviation="2"/>
<feComposite in2="hardAlpha" operator="out"/>
<feColorMatrix type="matrix" values="0 0 0 0 0.231373 0 0 0 0 0.407843 0 0 0 0 1 0 0 0 0.1 0"/>
<feBlend mode="normal" in2="effect1_backgroundBlur_319_120" result="effect2_dropShadow_319_120"/>
<feBlend mode="normal" in="SourceGraphic" in2="effect2_dropShadow_319_120" result="shape"/>
<feColorMatrix in="SourceAlpha" type="matrix" values="0 0 0 0 0 0 0 0 0 0 0 0 0 0 0 0 0 0 127 0" result="hardAlpha"/>
<feOffset/>
<feGaussianBlur stdDeviation="1.5"/>
<feComposite in2="hardAlpha" operator="arithmetic" k2="-1" k3="1"/>
<feColorMatrix type="matrix" values="0 0 0 0 0.231373 0 0 0 0 0.407843 0 0 0 0 1 0 0 0 0.38 0"/>
<feBlend mode="normal" in2="shape" result="effect3_innerShadow_319_120"/>
</filter>
<filter id="filter1_d_319_120" x="9.25" y="16.25" width="9.5" height="5.5" filterUnits="userSpaceOnUse" color-interpolation-filters="sRGB">
<feFlood flood-opacity="0" result="BackgroundImageFix"/>
<feColorMatrix in="SourceAlpha" type="matrix" values="0 0 0 0 0 0 0 0 0 0 0 0 0 0 0 0 0 0 127 0" result="hardAlpha"/>
<feOffset/>
<feGaussianBlur stdDeviation="1"/>
<feComposite in2="hardAlpha" operator="out"/>
<feColorMatrix type="matrix" values="0 0 0 0 0.231373 0 0 0 0 0.407843 0 0 0 0 1 0 0 0 0.35 0"/>
<feBlend mode="normal" in2="BackgroundImageFix" result="effect1_dropShadow_319_120"/>
<feBlend mode="normal" in="SourceGraphic" in2="effect1_dropShadow_319_120" result="shape"/>
</filter>
<filter id="filter2_d_319_120" x="8.25" y="2.25" width="11.5" height="11.5" filterUnits="userSpaceOnUse" color-interpolation-filters="sRGB">
<feFlood flood-opacity="0" result="BackgroundImageFix"/>
<feColorMatrix in="SourceAlpha" type="matrix" values="0 0 0 0 0 0 0 0 0 0 0 0 0 0 0 0 0 0 127 0" result="hardAlpha"/>
<feOffset/>
<feGaussianBlur stdDeviation="1"/>
<feComposite in2="hardAlpha" operator="out"/>
<feColorMatrix type="matrix" values="0 0 0 0 0.231373 0 0 0 0 0.407843 0 0 0 0 1 0 0 0 0.35 0"/>
<feBlend mode="normal" in2="BackgroundImageFix" result="effect1_dropShadow_319_120"/>
<feBlend mode="normal" in="SourceGraphic" in2="effect1_dropShadow_319_120" result="shape"/>
</filter>
<linearGradient id="paint0_linear_319_120" x1="-2.5" y1="-4" x2="34.5" y2="29" gradientUnits="userSpaceOnUse">
<stop stop-color="#29EAC4" stop-opacity="0.5"/>
<stop offset="0.505208" stop-color="#12D8FA" stop-opacity="0.5"/>
<stop offset="1" stop-color="#0B2774" stop-opacity="0.5"/>
</linearGradient>
<linearGradient id="paint1_linear_319_120" x1="4.5" y1="7" x2="22" y2="22" gradientUnits="userSpaceOnUse">
<stop stop-color="white" stop-opacity="0.15"/>
<stop offset="1" stop-color="white" stop-opacity="0.44"/>
</linearGradient>
</defs>
</svg>
