<svg width="28" height="26" viewBox="0 0 28 26" fill="none" xmlns="http://www.w3.org/2000/svg">
<path d="M14 10.3333L23.7785 6.25897C23.8605 6.22479 23.8605 6.10855 23.7785 6.07436L19 4.08333L14.7692 2.32051C14.2769 2.11538 13.7231 2.11538 13.2308 2.32051L4.22154 6.07436C4.13949 6.10855 4.13949 6.22479 4.22154 6.25897L9 8.25L14 10.3333Z" fill="#2AEAE7"/>
<g filter="url(#filter0_bdi_319_119)">
<path d="M14 21.9998V10.3332L23.8615 6.2242C23.9274 6.19675 24 6.24515 24 6.3165V17.1665C24 17.5702 23.7573 17.9343 23.3846 18.0896L14 21.9998Z" fill="url(#paint0_linear_319_119)" shape-rendering="crispEdges"/>
<path d="M23.3365 17.9742L14.125 21.8123V10.4165L23.875 6.354V17.1665C23.875 17.5197 23.6626 17.8383 23.3365 17.9742ZM23.9096 6.33958C23.9096 6.3396 23.9095 6.33961 23.9095 6.33963L23.9096 6.33958L23.9 6.3165L23.9096 6.33958Z" stroke="url(#paint1_linear_319_119)" stroke-opacity="0.7" stroke-width="0.25" stroke-linejoin="round" shape-rendering="crispEdges"/>
</g>
<g filter="url(#filter1_bdi_319_119)">
<path d="M4 6.3165V17.1665C4 17.5702 4.24274 17.9343 4.61538 18.0896L14 21.9998V10.3332L4.13846 6.2242C4.07259 6.19675 4 6.24515 4 6.3165Z" fill="url(#paint2_linear_319_119)" shape-rendering="crispEdges"/>
<path d="M4.125 17.1665V6.354L13.875 10.4165V21.8123L4.66346 17.9742C4.3374 17.8383 4.125 17.5197 4.125 17.1665Z" stroke="url(#paint3_linear_319_119)" stroke-opacity="0.7" stroke-width="0.25" stroke-linejoin="round" shape-rendering="crispEdges"/>
</g>
<defs>
<filter id="filter0_bdi_319_119" x="10" y="2.21631" width="18" height="23.7837" filterUnits="userSpaceOnUse" color-interpolation-filters="sRGB">
<feFlood flood-opacity="0" result="BackgroundImageFix"/>
<feGaussianBlur in="BackgroundImageFix" stdDeviation="1"/>
<feComposite in2="SourceAlpha" operator="in" result="effect1_backgroundBlur_319_119"/>
<feColorMatrix in="SourceAlpha" type="matrix" values="0 0 0 0 0 0 0 0 0 0 0 0 0 0 0 0 0 0 127 0" result="hardAlpha"/>
<feOffset/>
<feGaussianBlur stdDeviation="2"/>
<feComposite in2="hardAlpha" operator="out"/>
<feColorMatrix type="matrix" values="0 0 0 0 0.231373 0 0 0 0 0.407843 0 0 0 0 1 0 0 0 0.1 0"/>
<feBlend mode="normal" in2="effect1_backgroundBlur_319_119" result="effect2_dropShadow_319_119"/>
<feBlend mode="normal" in="SourceGraphic" in2="effect2_dropShadow_319_119" result="shape"/>
<feColorMatrix in="SourceAlpha" type="matrix" values="0 0 0 0 0 0 0 0 0 0 0 0 0 0 0 0 0 0 127 0" result="hardAlpha"/>
<feOffset/>
<feGaussianBlur stdDeviation="1.5"/>
<feComposite in2="hardAlpha" operator="arithmetic" k2="-1" k3="1"/>
<feColorMatrix type="matrix" values="0 0 0 0 0.231373 0 0 0 0 0.407843 0 0 0 0 1 0 0 0 0.38 0"/>
<feBlend mode="normal" in2="shape" result="effect3_innerShadow_319_119"/>
</filter>
<filter id="filter1_bdi_319_119" x="0" y="2.21631" width="18" height="23.7837" filterUnits="userSpaceOnUse" color-interpolation-filters="sRGB">
<feFlood flood-opacity="0" result="BackgroundImageFix"/>
<feGaussianBlur in="BackgroundImageFix" stdDeviation="1"/>
<feComposite in2="SourceAlpha" operator="in" result="effect1_backgroundBlur_319_119"/>
<feColorMatrix in="SourceAlpha" type="matrix" values="0 0 0 0 0 0 0 0 0 0 0 0 0 0 0 0 0 0 127 0" result="hardAlpha"/>
<feOffset/>
<feGaussianBlur stdDeviation="2"/>
<feComposite in2="hardAlpha" operator="out"/>
<feColorMatrix type="matrix" values="0 0 0 0 0.231373 0 0 0 0 0.407843 0 0 0 0 1 0 0 0 0.1 0"/>
<feBlend mode="normal" in2="effect1_backgroundBlur_319_119" result="effect2_dropShadow_319_119"/>
<feBlend mode="normal" in="SourceGraphic" in2="effect2_dropShadow_319_119" result="shape"/>
<feColorMatrix in="SourceAlpha" type="matrix" values="0 0 0 0 0 0 0 0 0 0 0 0 0 0 0 0 0 0 127 0" result="hardAlpha"/>
<feOffset/>
<feGaussianBlur stdDeviation="1.5"/>
<feComposite in2="hardAlpha" operator="arithmetic" k2="-1" k3="1"/>
<feColorMatrix type="matrix" values="0 0 0 0 0.231373 0 0 0 0 0.407843 0 0 0 0 1 0 0 0 0.38 0"/>
<feBlend mode="normal" in2="shape" result="effect3_innerShadow_319_119"/>
</filter>
<linearGradient id="paint0_linear_319_119" x1="10.75" y1="-0.166831" x2="35.9652" y2="14.0369" gradientUnits="userSpaceOnUse">
<stop stop-color="#29EAC4" stop-opacity="0.5"/>
<stop offset="0.505208" stop-color="#12D8FA" stop-opacity="0.5"/>
<stop offset="1" stop-color="#0B2774" stop-opacity="0.5"/>
</linearGradient>
<linearGradient id="paint1_linear_319_119" x1="14.25" y1="8.5415" x2="25.9885" y2="14.8962" gradientUnits="userSpaceOnUse">
<stop stop-color="white" stop-opacity="0.15"/>
<stop offset="1" stop-color="white" stop-opacity="0.44"/>
</linearGradient>
<linearGradient id="paint2_linear_319_119" x1="0.75" y1="-0.166831" x2="25.9652" y2="14.0369" gradientUnits="userSpaceOnUse">
<stop stop-color="#29EAC4" stop-opacity="0.5"/>
<stop offset="0.505208" stop-color="#12D8FA" stop-opacity="0.5"/>
<stop offset="1" stop-color="#0B2774" stop-opacity="0.5"/>
</linearGradient>
<linearGradient id="paint3_linear_319_119" x1="4.25" y1="8.5415" x2="15.9885" y2="14.8962" gradientUnits="userSpaceOnUse">
<stop stop-color="white" stop-opacity="0.15"/>
<stop offset="1" stop-color="white" stop-opacity="0.44"/>
</linearGradient>
</defs>
</svg>
