<svg width="30" height="27" viewBox="0 0 30 27" fill="none" xmlns="http://www.w3.org/2000/svg">
<g filter="url(#filter0_bdi_319_140)">
<path d="M5 12.4565C5 10.2714 6.77136 8.5 8.95645 8.5C9.58953 8.5 10.1617 8.12272 10.4111 7.54083L10.7208 6.81824C11.1935 5.71519 12.2781 5 13.4782 5H15H16.5218C17.7219 5 18.8065 5.71519 19.2792 6.81824L19.5889 7.54083C19.8383 8.12272 20.4105 8.5 21.0435 8.5C23.2286 8.5 25 10.2714 25 12.4565V17.5C25 20.2614 22.7614 22.5 20 22.5H10C7.23858 22.5 5 20.2614 5 17.5V12.4565Z" fill="url(#paint0_linear_319_140)" shape-rendering="crispEdges"/>
<path d="M5 12.4565C5 10.2714 6.77136 8.5 8.95645 8.5C9.58953 8.5 10.1617 8.12272 10.4111 7.54083L10.7208 6.81824C11.1935 5.71519 12.2781 5 13.4782 5H15H16.5218C17.7219 5 18.8065 5.71519 19.2792 6.81824L19.5889 7.54083C19.8383 8.12272 20.4105 8.5 21.0435 8.5C23.2286 8.5 25 10.2714 25 12.4565V17.5C25 20.2614 22.7614 22.5 20 22.5H10C7.23858 22.5 5 20.2614 5 17.5V12.4565Z" stroke="url(#paint1_linear_319_140)" stroke-opacity="0.7" stroke-width="0.25" shape-rendering="crispEdges"/>
</g>
<g filter="url(#filter1_d_319_140)">
<circle cx="3" cy="3" r="3" transform="matrix(-1 0 0 1 18 11.5)" fill="#2AEAE7"/>
<circle cx="3" cy="3" r="3" transform="matrix(-1 0 0 1 18 11.5)" stroke="#2AEAE7" stroke-width="1.5"/>
</g>
<defs>
<filter id="filter0_bdi_319_140" x="0.875" y="0.875" width="28.25" height="25.75" filterUnits="userSpaceOnUse" color-interpolation-filters="sRGB">
<feFlood flood-opacity="0" result="BackgroundImageFix"/>
<feGaussianBlur in="BackgroundImageFix" stdDeviation="1"/>
<feComposite in2="SourceAlpha" operator="in" result="effect1_backgroundBlur_319_140"/>
<feColorMatrix in="SourceAlpha" type="matrix" values="0 0 0 0 0 0 0 0 0 0 0 0 0 0 0 0 0 0 127 0" result="hardAlpha"/>
<feOffset/>
<feGaussianBlur stdDeviation="2"/>
<feComposite in2="hardAlpha" operator="out"/>
<feColorMatrix type="matrix" values="0 0 0 0 0.231373 0 0 0 0 0.407843 0 0 0 0 1 0 0 0 0.1 0"/>
<feBlend mode="normal" in2="effect1_backgroundBlur_319_140" result="effect2_dropShadow_319_140"/>
<feBlend mode="normal" in="SourceGraphic" in2="effect2_dropShadow_319_140" result="shape"/>
<feColorMatrix in="SourceAlpha" type="matrix" values="0 0 0 0 0 0 0 0 0 0 0 0 0 0 0 0 0 0 127 0" result="hardAlpha"/>
<feOffset/>
<feGaussianBlur stdDeviation="1.5"/>
<feComposite in2="hardAlpha" operator="arithmetic" k2="-1" k3="1"/>
<feColorMatrix type="matrix" values="0 0 0 0 0.231373 0 0 0 0 0.407843 0 0 0 0 1 0 0 0 0.38 0"/>
<feBlend mode="normal" in2="shape" result="effect3_innerShadow_319_140"/>
</filter>
<filter id="filter1_d_319_140" x="9.25" y="8.75" width="11.5" height="11.5" filterUnits="userSpaceOnUse" color-interpolation-filters="sRGB">
<feFlood flood-opacity="0" result="BackgroundImageFix"/>
<feColorMatrix in="SourceAlpha" type="matrix" values="0 0 0 0 0 0 0 0 0 0 0 0 0 0 0 0 0 0 127 0" result="hardAlpha"/>
<feOffset/>
<feGaussianBlur stdDeviation="1"/>
<feComposite in2="hardAlpha" operator="out"/>
<feColorMatrix type="matrix" values="0 0 0 0 0.231373 0 0 0 0 0.407843 0 0 0 0 1 0 0 0 0.35 0"/>
<feBlend mode="normal" in2="BackgroundImageFix" result="effect1_dropShadow_319_140"/>
<feBlend mode="normal" in="SourceGraphic" in2="effect1_dropShadow_319_140" result="shape"/>
</filter>
<linearGradient id="paint0_linear_319_140" x1="-1.5" y1="-2" x2="31.0812" y2="31.2101" gradientUnits="userSpaceOnUse">
<stop stop-color="#29EAC4" stop-opacity="0.5"/>
<stop offset="0.505208" stop-color="#12D8FA" stop-opacity="0.5"/>
<stop offset="1" stop-color="#0B2774" stop-opacity="0.5"/>
</linearGradient>
<linearGradient id="paint1_linear_319_140" x1="5.5" y1="7.625" x2="20.9915" y2="22.8003" gradientUnits="userSpaceOnUse">
<stop stop-color="white" stop-opacity="0.15"/>
<stop offset="1" stop-color="white" stop-opacity="0.44"/>
</linearGradient>
</defs>
</svg>
