<svg width="30" height="26" viewBox="0 0 30 26" fill="none" xmlns="http://www.w3.org/2000/svg">
<g filter="url(#filter0_bdi_319_175)">
<mask id="path-1-inside-1_319_175" fill="white">
<path fill-rule="evenodd" clip-rule="evenodd" d="M5.14711 4.26471C4.74094 4.18348 4.34582 4.44689 4.26459 4.85306C4.18335 5.25923 4.44677 5.65435 4.85294 5.73558L5.9023 5.94545C6.44105 6.0532 6.84628 6.50011 6.90095 7.0468L7.05448 8.58215L8.04396 16.8278C8.20982 18.2099 9.38232 19.2501 10.7744 19.2501H19.7673C21.7175 19.2501 23.4174 17.9229 23.8904 16.0309L25.0132 11.5399C25.4944 9.61488 24.0385 7.75014 22.0542 7.75014H8.47876L8.3935 6.89754C8.27323 5.69482 7.38172 4.71163 6.19647 4.47458L5.14711 4.26471Z"/>
</mask>
<path fill-rule="evenodd" clip-rule="evenodd" d="M5.14711 4.26471C4.74094 4.18348 4.34582 4.44689 4.26459 4.85306C4.18335 5.25923 4.44677 5.65435 4.85294 5.73558L5.9023 5.94545C6.44105 6.0532 6.84628 6.50011 6.90095 7.0468L7.05448 8.58215L8.04396 16.8278C8.20982 18.2099 9.38232 19.2501 10.7744 19.2501H19.7673C21.7175 19.2501 23.4174 17.9229 23.8904 16.0309L25.0132 11.5399C25.4944 9.61488 24.0385 7.75014 22.0542 7.75014H8.47876L8.3935 6.89754C8.27323 5.69482 7.38172 4.71163 6.19647 4.47458L5.14711 4.26471Z" fill="url(#paint0_linear_319_175)" shape-rendering="crispEdges"/>
<path d="M4.26459 4.85306L4.50973 4.90209L4.50973 4.90209L4.26459 4.85306ZM5.14711 4.26471L5.09808 4.50985L5.14711 4.26471ZM4.85294 5.73558L4.90196 5.49043H4.90196L4.85294 5.73558ZM5.9023 5.94545L5.85327 6.1906L5.9023 5.94545ZM6.90095 7.0468L6.65219 7.07167L6.90095 7.0468ZM7.05448 8.58215L6.80567 8.60703L6.80626 8.61193L7.05448 8.58215ZM8.04396 16.8278L8.29218 16.798L8.04396 16.8278ZM23.8904 16.0309L24.1329 16.0916L23.8904 16.0309ZM25.0132 11.5399L25.2557 11.6005L25.0132 11.5399ZM8.47876 7.75014L8.23 7.77502L8.25252 8.00014H8.47876V7.75014ZM8.3935 6.89754L8.14474 6.92242V6.92242L8.3935 6.89754ZM6.19647 4.47458L6.14744 4.71973L6.19647 4.47458ZM4.50973 4.90209C4.56389 4.63131 4.8273 4.4557 5.09808 4.50985L5.19614 4.01956C4.65458 3.91125 4.12775 4.26247 4.01944 4.80403L4.50973 4.90209ZM4.90196 5.49043C4.63118 5.43628 4.45558 5.17287 4.50973 4.90209L4.01944 4.80403C3.91113 5.34559 4.26235 5.87241 4.80391 5.98073L4.90196 5.49043ZM5.95132 5.70031L4.90196 5.49043L4.80391 5.98073L5.85327 6.1906L5.95132 5.70031ZM7.14971 7.02192C7.0841 6.36589 6.59782 5.82961 5.95132 5.70031L5.85327 6.1906C6.28427 6.2768 6.60845 6.63432 6.65219 7.07167L7.14971 7.02192ZM7.30324 8.55727L7.14971 7.02192L6.65219 7.07167L6.80572 8.60702L7.30324 8.55727ZM8.29218 16.798L7.3027 8.55236L6.80626 8.61193L7.79574 16.8576L8.29218 16.798ZM10.7744 19.0001C9.50887 19.0001 8.44296 18.0545 8.29218 16.798L7.79574 16.8576C7.97668 18.3654 9.25577 19.5001 10.7744 19.5001V19.0001ZM19.7673 19.0001H10.7744V19.5001H19.7673V19.0001ZM23.6479 15.9703C23.2027 17.751 21.6028 19.0001 19.7673 19.0001V19.5001C21.8322 19.5001 23.6321 18.0948 24.1329 16.0916L23.6479 15.9703ZM24.7706 11.4792L23.6479 15.9703L24.1329 16.0916L25.2557 11.6005L24.7706 11.4792ZM22.0542 8.00014C23.8758 8.00014 25.2124 9.71203 24.7706 11.4792L25.2557 11.6005C25.7764 9.51773 24.2011 7.50014 22.0542 7.50014V8.00014ZM8.47876 8.00014H22.0542V7.50014H8.47876V8.00014ZM8.14474 6.92242L8.23 7.77502L8.72752 7.72527L8.64226 6.87267L8.14474 6.92242ZM6.14744 4.71973C7.22494 4.93523 8.03541 5.82903 8.14474 6.92242L8.64226 6.87267C8.51106 5.56061 7.5385 4.48804 6.2455 4.22944L6.14744 4.71973ZM5.09808 4.50985L6.14744 4.71973L6.2455 4.22944L5.19614 4.01956L5.09808 4.50985Z" fill="url(#paint1_linear_319_175)" fill-opacity="0.7" mask="url(#path-1-inside-1_319_175)"/>
</g>
<g filter="url(#filter1_d_319_175)">
<path d="M16 15.5H12" stroke="#2AEAE7" stroke-width="1.5" stroke-linecap="round" stroke-linejoin="round"/>
</g>
<g filter="url(#filter2_d_319_175)">
<circle cx="11.5" cy="22" r="1.5" fill="#2AEAE7"/>
</g>
<g filter="url(#filter3_d_319_175)">
<circle cx="20.5" cy="22" r="1.5" fill="#2AEAE7"/>
</g>
<defs>
<filter id="filter0_bdi_319_175" x="0.249878" y="0.25" width="28.8558" height="23" filterUnits="userSpaceOnUse" color-interpolation-filters="sRGB">
<feFlood flood-opacity="0" result="BackgroundImageFix"/>
<feGaussianBlur in="BackgroundImageFix" stdDeviation="1"/>
<feComposite in2="SourceAlpha" operator="in" result="effect1_backgroundBlur_319_175"/>
<feColorMatrix in="SourceAlpha" type="matrix" values="0 0 0 0 0 0 0 0 0 0 0 0 0 0 0 0 0 0 127 0" result="hardAlpha"/>
<feOffset/>
<feGaussianBlur stdDeviation="2"/>
<feComposite in2="hardAlpha" operator="out"/>
<feColorMatrix type="matrix" values="0 0 0 0 0.231373 0 0 0 0 0.407843 0 0 0 0 1 0 0 0 0.1 0"/>
<feBlend mode="normal" in2="effect1_backgroundBlur_319_175" result="effect2_dropShadow_319_175"/>
<feBlend mode="normal" in="SourceGraphic" in2="effect2_dropShadow_319_175" result="shape"/>
<feColorMatrix in="SourceAlpha" type="matrix" values="0 0 0 0 0 0 0 0 0 0 0 0 0 0 0 0 0 0 127 0" result="hardAlpha"/>
<feOffset/>
<feGaussianBlur stdDeviation="1.5"/>
<feComposite in2="hardAlpha" operator="arithmetic" k2="-1" k3="1"/>
<feColorMatrix type="matrix" values="0 0 0 0 0.231373 0 0 0 0 0.407843 0 0 0 0 1 0 0 0 0.38 0"/>
<feBlend mode="normal" in2="shape" result="effect3_innerShadow_319_175"/>
</filter>
<filter id="filter1_d_319_175" x="9.25" y="12.75" width="9.5" height="5.5" filterUnits="userSpaceOnUse" color-interpolation-filters="sRGB">
<feFlood flood-opacity="0" result="BackgroundImageFix"/>
<feColorMatrix in="SourceAlpha" type="matrix" values="0 0 0 0 0 0 0 0 0 0 0 0 0 0 0 0 0 0 127 0" result="hardAlpha"/>
<feOffset/>
<feGaussianBlur stdDeviation="1"/>
<feComposite in2="hardAlpha" operator="out"/>
<feColorMatrix type="matrix" values="0 0 0 0 0.231373 0 0 0 0 0.407843 0 0 0 0 1 0 0 0 0.35 0"/>
<feBlend mode="normal" in2="BackgroundImageFix" result="effect1_dropShadow_319_175"/>
<feBlend mode="normal" in="SourceGraphic" in2="effect1_dropShadow_319_175" result="shape"/>
</filter>
<filter id="filter2_d_319_175" x="8" y="18.5" width="7" height="7" filterUnits="userSpaceOnUse" color-interpolation-filters="sRGB">
<feFlood flood-opacity="0" result="BackgroundImageFix"/>
<feColorMatrix in="SourceAlpha" type="matrix" values="0 0 0 0 0 0 0 0 0 0 0 0 0 0 0 0 0 0 127 0" result="hardAlpha"/>
<feOffset/>
<feGaussianBlur stdDeviation="1"/>
<feComposite in2="hardAlpha" operator="out"/>
<feColorMatrix type="matrix" values="0 0 0 0 0.231373 0 0 0 0 0.407843 0 0 0 0 1 0 0 0 0.35 0"/>
<feBlend mode="normal" in2="BackgroundImageFix" result="effect1_dropShadow_319_175"/>
<feBlend mode="normal" in="SourceGraphic" in2="effect1_dropShadow_319_175" result="shape"/>
</filter>
<filter id="filter3_d_319_175" x="17" y="18.5" width="7" height="7" filterUnits="userSpaceOnUse" color-interpolation-filters="sRGB">
<feFlood flood-opacity="0" result="BackgroundImageFix"/>
<feColorMatrix in="SourceAlpha" type="matrix" values="0 0 0 0 0 0 0 0 0 0 0 0 0 0 0 0 0 0 127 0" result="hardAlpha"/>
<feOffset/>
<feGaussianBlur stdDeviation="1"/>
<feComposite in2="hardAlpha" operator="out"/>
<feColorMatrix type="matrix" values="0 0 0 0 0.231373 0 0 0 0 0.407843 0 0 0 0 1 0 0 0 0.35 0"/>
<feBlend mode="normal" in2="BackgroundImageFix" result="effect1_dropShadow_319_175"/>
<feBlend mode="normal" in="SourceGraphic" in2="effect1_dropShadow_319_175" result="shape"/>
</filter>
<linearGradient id="paint0_linear_319_175" x1="-2.52828" y1="-1.75006" x2="24.7695" y2="32.101" gradientUnits="userSpaceOnUse">
<stop stop-color="#29EAC4" stop-opacity="0.5"/>
<stop offset="0.505208" stop-color="#12D8FA" stop-opacity="0.5"/>
<stop offset="1" stop-color="#0B2774" stop-opacity="0.5"/>
</linearGradient>
<linearGradient id="paint1_linear_319_175" x1="4.77127" y1="6.50002" x2="17.8509" y2="22.0877" gradientUnits="userSpaceOnUse">
<stop stop-color="white" stop-opacity="0.15"/>
<stop offset="1" stop-color="white" stop-opacity="0.44"/>
</linearGradient>
</defs>
</svg>
