<svg width="27" height="27" viewBox="0 0 27 27" fill="none" xmlns="http://www.w3.org/2000/svg">
<rect x="15" y="5" width="7" height="7" rx="2.5" fill="#2AEAE7" stroke="#2AEAE7" stroke-width="1.5"/>
<g filter="url(#filter0_bdi_319_155)">
<mask id="path-2-inside-1_319_155" fill="white">
<path fill-rule="evenodd" clip-rule="evenodd" d="M17.5 14.25C15.7051 14.25 14.25 15.7051 14.25 17.5V19.5C14.25 21.2949 15.7051 22.75 17.5 22.75H19.5C21.2949 22.75 22.75 21.2949 22.75 19.5V17.5C22.75 15.7051 21.2949 14.25 19.5 14.25H17.5Z"/>
</mask>
<path fill-rule="evenodd" clip-rule="evenodd" d="M17.5 14.25C15.7051 14.25 14.25 15.7051 14.25 17.5V19.5C14.25 21.2949 15.7051 22.75 17.5 22.75H19.5C21.2949 22.75 22.75 21.2949 22.75 19.5V17.5C22.75 15.7051 21.2949 14.25 19.5 14.25H17.5Z" fill="url(#paint0_linear_319_155)" shape-rendering="crispEdges"/>
<path d="M14.5 17.5C14.5 15.8431 15.8431 14.5 17.5 14.5V14C15.567 14 14 15.567 14 17.5H14.5ZM14.5 19.5V17.5H14V19.5H14.5ZM17.5 22.5C15.8431 22.5 14.5 21.1569 14.5 19.5H14C14 21.433 15.567 23 17.5 23V22.5ZM19.5 22.5H17.5V23H19.5V22.5ZM22.5 19.5C22.5 21.1569 21.1569 22.5 19.5 22.5V23C21.433 23 23 21.433 23 19.5H22.5ZM22.5 17.5V19.5H23V17.5H22.5ZM19.5 14.5C21.1569 14.5 22.5 15.8431 22.5 17.5H23C23 15.567 21.433 14 19.5 14V14.5ZM17.5 14.5H19.5V14H17.5V14.5Z" fill="url(#paint1_linear_319_155)" fill-opacity="0.7" mask="url(#path-2-inside-1_319_155)"/>
</g>
<g filter="url(#filter1_bdi_319_155)">
<mask id="path-4-inside-2_319_155" fill="white">
<path fill-rule="evenodd" clip-rule="evenodd" d="M7.50012 14.25C5.7052 14.25 4.25012 15.7051 4.25012 17.5V19.5C4.25012 21.2949 5.7052 22.75 7.50012 22.75H9.50012C11.295 22.75 12.7501 21.2949 12.7501 19.5V17.5C12.7501 15.7051 11.295 14.25 9.50012 14.25H7.50012Z"/>
</mask>
<path fill-rule="evenodd" clip-rule="evenodd" d="M7.50012 14.25C5.7052 14.25 4.25012 15.7051 4.25012 17.5V19.5C4.25012 21.2949 5.7052 22.75 7.50012 22.75H9.50012C11.295 22.75 12.7501 21.2949 12.7501 19.5V17.5C12.7501 15.7051 11.295 14.25 9.50012 14.25H7.50012Z" fill="url(#paint2_linear_319_155)" shape-rendering="crispEdges"/>
<path d="M4.50012 17.5C4.50012 15.8431 5.84327 14.5 7.50012 14.5V14C5.56713 14 4.00012 15.567 4.00012 17.5H4.50012ZM4.50012 19.5V17.5H4.00012V19.5H4.50012ZM7.50012 22.5C5.84327 22.5 4.50012 21.1569 4.50012 19.5H4.00012C4.00012 21.433 5.56713 23 7.50012 23V22.5ZM9.50012 22.5H7.50012V23H9.50012V22.5ZM12.5001 19.5C12.5001 21.1569 11.157 22.5 9.50012 22.5V23C11.4331 23 13.0001 21.433 13.0001 19.5H12.5001ZM12.5001 17.5V19.5H13.0001V17.5H12.5001ZM9.50012 14.5C11.157 14.5 12.5001 15.8431 12.5001 17.5H13.0001C13.0001 15.567 11.4331 14 9.50012 14V14.5ZM7.50012 14.5H9.50012V14H7.50012V14.5Z" fill="url(#paint3_linear_319_155)" fill-opacity="0.7" mask="url(#path-4-inside-2_319_155)"/>
</g>
<g filter="url(#filter2_bdi_319_155)">
<mask id="path-6-inside-3_319_155" fill="white">
<path fill-rule="evenodd" clip-rule="evenodd" d="M7.50012 4.25C5.7052 4.25 4.25012 5.70507 4.25012 7.5V9.5C4.25012 11.2949 5.7052 12.75 7.50012 12.75H9.50012C11.295 12.75 12.7501 11.2949 12.7501 9.5V7.5C12.7501 5.70507 11.295 4.25 9.50012 4.25H7.50012Z"/>
</mask>
<path fill-rule="evenodd" clip-rule="evenodd" d="M7.50012 4.25C5.7052 4.25 4.25012 5.70507 4.25012 7.5V9.5C4.25012 11.2949 5.7052 12.75 7.50012 12.75H9.50012C11.295 12.75 12.7501 11.2949 12.7501 9.5V7.5C12.7501 5.70507 11.295 4.25 9.50012 4.25H7.50012Z" fill="url(#paint4_linear_319_155)" shape-rendering="crispEdges"/>
<path d="M4.50012 7.5C4.50012 5.84315 5.84327 4.5 7.50012 4.5V4C5.56713 4 4.00012 5.567 4.00012 7.5H4.50012ZM4.50012 9.5V7.5H4.00012V9.5H4.50012ZM7.50012 12.5C5.84327 12.5 4.50012 11.1569 4.50012 9.5H4.00012C4.00012 11.433 5.56713 13 7.50012 13V12.5ZM9.50012 12.5H7.50012V13H9.50012V12.5ZM12.5001 9.5C12.5001 11.1569 11.157 12.5 9.50012 12.5V13C11.4331 13 13.0001 11.433 13.0001 9.5H12.5001ZM12.5001 7.5V9.5H13.0001V7.5H12.5001ZM9.50012 4.5C11.157 4.5 12.5001 5.84315 12.5001 7.5H13.0001C13.0001 5.567 11.4331 4 9.50012 4V4.5ZM7.50012 4.5H9.50012V4H7.50012V4.5Z" fill="url(#paint5_linear_319_155)" fill-opacity="0.7" mask="url(#path-6-inside-3_319_155)"/>
</g>
<defs>
<filter id="filter0_bdi_319_155" x="10.25" y="10.25" width="16.5" height="16.5" filterUnits="userSpaceOnUse" color-interpolation-filters="sRGB">
<feFlood flood-opacity="0" result="BackgroundImageFix"/>
<feGaussianBlur in="BackgroundImageFix" stdDeviation="1"/>
<feComposite in2="SourceAlpha" operator="in" result="effect1_backgroundBlur_319_155"/>
<feColorMatrix in="SourceAlpha" type="matrix" values="0 0 0 0 0 0 0 0 0 0 0 0 0 0 0 0 0 0 127 0" result="hardAlpha"/>
<feOffset/>
<feGaussianBlur stdDeviation="2"/>
<feComposite in2="hardAlpha" operator="out"/>
<feColorMatrix type="matrix" values="0 0 0 0 0.231373 0 0 0 0 0.407843 0 0 0 0 1 0 0 0 0.1 0"/>
<feBlend mode="normal" in2="effect1_backgroundBlur_319_155" result="effect2_dropShadow_319_155"/>
<feBlend mode="normal" in="SourceGraphic" in2="effect2_dropShadow_319_155" result="shape"/>
<feColorMatrix in="SourceAlpha" type="matrix" values="0 0 0 0 0 0 0 0 0 0 0 0 0 0 0 0 0 0 127 0" result="hardAlpha"/>
<feOffset/>
<feGaussianBlur stdDeviation="1.5"/>
<feComposite in2="hardAlpha" operator="arithmetic" k2="-1" k3="1"/>
<feColorMatrix type="matrix" values="0 0 0 0 0.231373 0 0 0 0 0.407843 0 0 0 0 1 0 0 0 0.38 0"/>
<feBlend mode="normal" in2="shape" result="effect3_innerShadow_319_155"/>
</filter>
<filter id="filter1_bdi_319_155" x="0.250122" y="10.25" width="16.5" height="16.5" filterUnits="userSpaceOnUse" color-interpolation-filters="sRGB">
<feFlood flood-opacity="0" result="BackgroundImageFix"/>
<feGaussianBlur in="BackgroundImageFix" stdDeviation="1"/>
<feComposite in2="SourceAlpha" operator="in" result="effect1_backgroundBlur_319_155"/>
<feColorMatrix in="SourceAlpha" type="matrix" values="0 0 0 0 0 0 0 0 0 0 0 0 0 0 0 0 0 0 127 0" result="hardAlpha"/>
<feOffset/>
<feGaussianBlur stdDeviation="2"/>
<feComposite in2="hardAlpha" operator="out"/>
<feColorMatrix type="matrix" values="0 0 0 0 0.231373 0 0 0 0 0.407843 0 0 0 0 1 0 0 0 0.1 0"/>
<feBlend mode="normal" in2="effect1_backgroundBlur_319_155" result="effect2_dropShadow_319_155"/>
<feBlend mode="normal" in="SourceGraphic" in2="effect2_dropShadow_319_155" result="shape"/>
<feColorMatrix in="SourceAlpha" type="matrix" values="0 0 0 0 0 0 0 0 0 0 0 0 0 0 0 0 0 0 127 0" result="hardAlpha"/>
<feOffset/>
<feGaussianBlur stdDeviation="1.5"/>
<feComposite in2="hardAlpha" operator="arithmetic" k2="-1" k3="1"/>
<feColorMatrix type="matrix" values="0 0 0 0 0.231373 0 0 0 0 0.407843 0 0 0 0 1 0 0 0 0.38 0"/>
<feBlend mode="normal" in2="shape" result="effect3_innerShadow_319_155"/>
</filter>
<filter id="filter2_bdi_319_155" x="0.250122" y="0.25" width="16.5" height="16.5" filterUnits="userSpaceOnUse" color-interpolation-filters="sRGB">
<feFlood flood-opacity="0" result="BackgroundImageFix"/>
<feGaussianBlur in="BackgroundImageFix" stdDeviation="1"/>
<feComposite in2="SourceAlpha" operator="in" result="effect1_backgroundBlur_319_155"/>
<feColorMatrix in="SourceAlpha" type="matrix" values="0 0 0 0 0 0 0 0 0 0 0 0 0 0 0 0 0 0 127 0" result="hardAlpha"/>
<feOffset/>
<feGaussianBlur stdDeviation="2"/>
<feComposite in2="hardAlpha" operator="out"/>
<feColorMatrix type="matrix" values="0 0 0 0 0.231373 0 0 0 0 0.407843 0 0 0 0 1 0 0 0 0.1 0"/>
<feBlend mode="normal" in2="effect1_backgroundBlur_319_155" result="effect2_dropShadow_319_155"/>
<feBlend mode="normal" in="SourceGraphic" in2="effect2_dropShadow_319_155" result="shape"/>
<feColorMatrix in="SourceAlpha" type="matrix" values="0 0 0 0 0 0 0 0 0 0 0 0 0 0 0 0 0 0 127 0" result="hardAlpha"/>
<feOffset/>
<feGaussianBlur stdDeviation="1.5"/>
<feComposite in2="hardAlpha" operator="arithmetic" k2="-1" k3="1"/>
<feColorMatrix type="matrix" values="0 0 0 0 0.231373 0 0 0 0 0.407843 0 0 0 0 1 0 0 0 0.38 0"/>
<feBlend mode="normal" in2="shape" result="effect3_innerShadow_319_155"/>
</filter>
<linearGradient id="paint0_linear_319_155" x1="11.4875" y1="10.85" x2="27.2125" y2="24.875" gradientUnits="userSpaceOnUse">
<stop stop-color="#29EAC4" stop-opacity="0.5"/>
<stop offset="0.505208" stop-color="#12D8FA" stop-opacity="0.5"/>
<stop offset="1" stop-color="#0B2774" stop-opacity="0.5"/>
</linearGradient>
<linearGradient id="paint1_linear_319_155" x1="14.4625" y1="15.525" x2="21.9" y2="21.9" gradientUnits="userSpaceOnUse">
<stop stop-color="white" stop-opacity="0.15"/>
<stop offset="1" stop-color="white" stop-opacity="0.44"/>
</linearGradient>
<linearGradient id="paint2_linear_319_155" x1="1.48762" y1="10.85" x2="17.2126" y2="24.875" gradientUnits="userSpaceOnUse">
<stop stop-color="#29EAC4" stop-opacity="0.5"/>
<stop offset="0.505208" stop-color="#12D8FA" stop-opacity="0.5"/>
<stop offset="1" stop-color="#0B2774" stop-opacity="0.5"/>
</linearGradient>
<linearGradient id="paint3_linear_319_155" x1="4.46262" y1="15.525" x2="11.9001" y2="21.9" gradientUnits="userSpaceOnUse">
<stop stop-color="white" stop-opacity="0.15"/>
<stop offset="1" stop-color="white" stop-opacity="0.44"/>
</linearGradient>
<linearGradient id="paint4_linear_319_155" x1="1.48762" y1="0.85" x2="17.2126" y2="14.875" gradientUnits="userSpaceOnUse">
<stop stop-color="#29EAC4" stop-opacity="0.5"/>
<stop offset="0.505208" stop-color="#12D8FA" stop-opacity="0.5"/>
<stop offset="1" stop-color="#0B2774" stop-opacity="0.5"/>
</linearGradient>
<linearGradient id="paint5_linear_319_155" x1="4.46262" y1="5.525" x2="11.9001" y2="11.9" gradientUnits="userSpaceOnUse">
<stop stop-color="white" stop-opacity="0.15"/>
<stop offset="1" stop-color="white" stop-opacity="0.44"/>
</linearGradient>
</defs>
</svg>
