<svg width="28" height="24" viewBox="0 0 28 24" fill="none" xmlns="http://www.w3.org/2000/svg">
<g filter="url(#filter0_bdi_319_185)">
<path d="M4 14.8889C4 16.7298 5.49238 18.2222 7.33333 18.2222H8L20 18.2003C22.2459 17.9773 24 16.0824 24 13.7778C24 11.1049 21.5452 9.00249 18.9198 9.37847C18.9155 9.37908 18.9113 9.3769 18.9093 9.37305C17.9052 7.37277 15.8351 6 13.4444 6C10.2597 6 7.64402 8.43609 7.35907 11.5465C7.3586 11.5516 7.35421 11.5556 7.34902 11.5556C5.52707 11.554 4 13.0606 4 14.8889Z" fill="url(#paint0_linear_319_185)" shape-rendering="crispEdges"/>
<path d="M4.125 14.8889C4.125 16.6608 5.56142 18.0972 7.33333 18.0972H7.99977H8L19.9937 18.0753C22.1734 17.8558 23.875 16.0154 23.875 13.7778C23.875 11.1816 21.4882 9.13693 18.9375 9.50221L4.125 14.8889ZM4.125 14.8889C4.125 13.1304 5.59526 11.6791 7.34891 11.6806C7.41862 11.6807 7.47716 11.6276 7.48355 11.5579L7.35907 11.5465L7.48355 11.5579C7.76266 8.51125 10.325 6.125 13.4444 6.125C15.786 6.125 17.8138 7.46946 18.7976 9.42911L4.125 14.8889Z" stroke="url(#paint1_linear_319_185)" stroke-opacity="0.7" stroke-width="0.25" stroke-linecap="round" shape-rendering="crispEdges"/>
</g>
<g filter="url(#filter1_d_319_185)">
<path d="M11.5 16.5L13.6464 14.3536C13.8417 14.1583 14.1583 14.1583 14.3535 14.3536L16.5 16.5" stroke="#2AEAE7" stroke-width="1.5" stroke-linecap="round"/>
<path d="M14 15L14 21" stroke="#2AEAE7" stroke-width="1.5" stroke-linecap="round"/>
</g>
<defs>
<filter id="filter0_bdi_319_185" x="0" y="2" width="28" height="20.2222" filterUnits="userSpaceOnUse" color-interpolation-filters="sRGB">
<feFlood flood-opacity="0" result="BackgroundImageFix"/>
<feGaussianBlur in="BackgroundImageFix" stdDeviation="1"/>
<feComposite in2="SourceAlpha" operator="in" result="effect1_backgroundBlur_319_185"/>
<feColorMatrix in="SourceAlpha" type="matrix" values="0 0 0 0 0 0 0 0 0 0 0 0 0 0 0 0 0 0 127 0" result="hardAlpha"/>
<feOffset/>
<feGaussianBlur stdDeviation="2"/>
<feComposite in2="hardAlpha" operator="out"/>
<feColorMatrix type="matrix" values="0 0 0 0 0.231373 0 0 0 0 0.407843 0 0 0 0 1 0 0 0 0.1 0"/>
<feBlend mode="normal" in2="effect1_backgroundBlur_319_185" result="effect2_dropShadow_319_185"/>
<feBlend mode="normal" in="SourceGraphic" in2="effect2_dropShadow_319_185" result="shape"/>
<feColorMatrix in="SourceAlpha" type="matrix" values="0 0 0 0 0 0 0 0 0 0 0 0 0 0 0 0 0 0 127 0" result="hardAlpha"/>
<feOffset/>
<feGaussianBlur stdDeviation="1.5"/>
<feComposite in2="hardAlpha" operator="arithmetic" k2="-1" k3="1"/>
<feColorMatrix type="matrix" values="0 0 0 0 0.231373 0 0 0 0 0.407843 0 0 0 0 1 0 0 0 0.38 0"/>
<feBlend mode="normal" in2="shape" result="effect3_innerShadow_319_185"/>
</filter>
<filter id="filter1_d_319_185" x="8.75" y="11.457" width="10.5" height="12.293" filterUnits="userSpaceOnUse" color-interpolation-filters="sRGB">
<feFlood flood-opacity="0" result="BackgroundImageFix"/>
<feColorMatrix in="SourceAlpha" type="matrix" values="0 0 0 0 0 0 0 0 0 0 0 0 0 0 0 0 0 0 127 0" result="hardAlpha"/>
<feOffset/>
<feGaussianBlur stdDeviation="1"/>
<feComposite in2="hardAlpha" operator="out"/>
<feColorMatrix type="matrix" values="0 0 0 0 0.231373 0 0 0 0 0.407843 0 0 0 0 1 0 0 0 0.35 0"/>
<feBlend mode="normal" in2="BackgroundImageFix" result="effect1_dropShadow_319_185"/>
<feBlend mode="normal" in="SourceGraphic" in2="effect1_dropShadow_319_185" result="shape"/>
</filter>
<linearGradient id="paint0_linear_319_185" x1="-2.5" y1="1.11111" x2="18.7243" y2="32.0871" gradientUnits="userSpaceOnUse">
<stop stop-color="#29EAC4" stop-opacity="0.5"/>
<stop offset="0.505208" stop-color="#12D8FA" stop-opacity="0.5"/>
<stop offset="1" stop-color="#0B2774" stop-opacity="0.5"/>
</linearGradient>
<linearGradient id="paint1_linear_319_185" x1="4.5" y1="7.83333" x2="14.7306" y2="22.1828" gradientUnits="userSpaceOnUse">
<stop stop-color="white" stop-opacity="0.15"/>
<stop offset="1" stop-color="white" stop-opacity="0.44"/>
</linearGradient>
</defs>
</svg>
