<svg width="24" height="28" viewBox="0 0 24 28" fill="none" xmlns="http://www.w3.org/2000/svg">
<g filter="url(#filter0_bdi_319_108)">
<path d="M4 8C4 5.79086 5.79086 4 8 4H12H14.0633C14.6568 4 15.2197 4.26365 15.5997 4.71963L19.5364 9.44373C19.836 9.80316 20 10.2562 20 10.7241V14V20C20 22.2091 18.2091 24 16 24H8C5.79086 24 4 22.2091 4 20V8Z" fill="url(#paint0_linear_319_108)" shape-rendering="crispEdges"/>
<path d="M4.125 8C4.125 5.8599 5.8599 4.125 8 4.125H12H14.0633C14.6197 4.125 15.1474 4.37217 15.5037 4.79965L19.4404 9.52375C19.7212 9.86072 19.875 10.2855 19.875 10.7241V14V20C19.875 22.1401 18.1401 23.875 16 23.875H8C5.8599 23.875 4.125 22.1401 4.125 20V8Z" stroke="url(#paint1_linear_319_108)" stroke-opacity="0.7" stroke-width="0.25" shape-rendering="crispEdges"/>
</g>
<path fill-rule="evenodd" clip-rule="evenodd" d="M15 4.52197V8.00016C15 9.10472 15.8954 10.0002 17 10.0002H19.5932C19.5288 9.85854 19.4454 9.72515 19.3444 9.60393L15.4076 4.87983C15.2899 4.73851 15.152 4.61829 15 4.52197Z" fill="#2AEAE7"/>
<g filter="url(#filter1_d_319_108)">
<path d="M8 14H16" stroke="#2AEAE7" stroke-width="1.5" stroke-linecap="round"/>
</g>
<g filter="url(#filter2_d_319_108)">
<path d="M8 19H12" stroke="#2AEAE7" stroke-width="1.5" stroke-linecap="round"/>
</g>
<defs>
<filter id="filter0_bdi_319_108" x="0" y="0" width="24" height="28" filterUnits="userSpaceOnUse" color-interpolation-filters="sRGB">
<feFlood flood-opacity="0" result="BackgroundImageFix"/>
<feGaussianBlur in="BackgroundImageFix" stdDeviation="1"/>
<feComposite in2="SourceAlpha" operator="in" result="effect1_backgroundBlur_319_108"/>
<feColorMatrix in="SourceAlpha" type="matrix" values="0 0 0 0 0 0 0 0 0 0 0 0 0 0 0 0 0 0 127 0" result="hardAlpha"/>
<feOffset/>
<feGaussianBlur stdDeviation="2"/>
<feComposite in2="hardAlpha" operator="out"/>
<feColorMatrix type="matrix" values="0 0 0 0 0.231373 0 0 0 0 0.407843 0 0 0 0 1 0 0 0 0.1 0"/>
<feBlend mode="normal" in2="effect1_backgroundBlur_319_108" result="effect2_dropShadow_319_108"/>
<feBlend mode="normal" in="SourceGraphic" in2="effect2_dropShadow_319_108" result="shape"/>
<feColorMatrix in="SourceAlpha" type="matrix" values="0 0 0 0 0 0 0 0 0 0 0 0 0 0 0 0 0 0 127 0" result="hardAlpha"/>
<feOffset/>
<feGaussianBlur stdDeviation="1.5"/>
<feComposite in2="hardAlpha" operator="arithmetic" k2="-1" k3="1"/>
<feColorMatrix type="matrix" values="0 0 0 0 0.231373 0 0 0 0 0.407843 0 0 0 0 1 0 0 0 0.38 0"/>
<feBlend mode="normal" in2="shape" result="effect3_innerShadow_319_108"/>
</filter>
<filter id="filter1_d_319_108" x="5.25" y="11.25" width="13.5" height="5.5" filterUnits="userSpaceOnUse" color-interpolation-filters="sRGB">
<feFlood flood-opacity="0" result="BackgroundImageFix"/>
<feColorMatrix in="SourceAlpha" type="matrix" values="0 0 0 0 0 0 0 0 0 0 0 0 0 0 0 0 0 0 127 0" result="hardAlpha"/>
<feOffset/>
<feGaussianBlur stdDeviation="1"/>
<feComposite in2="hardAlpha" operator="out"/>
<feColorMatrix type="matrix" values="0 0 0 0 0.231373 0 0 0 0 0.407843 0 0 0 0 1 0 0 0 0.35 0"/>
<feBlend mode="normal" in2="BackgroundImageFix" result="effect1_dropShadow_319_108"/>
<feBlend mode="normal" in="SourceGraphic" in2="effect1_dropShadow_319_108" result="shape"/>
</filter>
<filter id="filter2_d_319_108" x="5.25" y="16.25" width="9.5" height="5.5" filterUnits="userSpaceOnUse" color-interpolation-filters="sRGB">
<feFlood flood-opacity="0" result="BackgroundImageFix"/>
<feColorMatrix in="SourceAlpha" type="matrix" values="0 0 0 0 0 0 0 0 0 0 0 0 0 0 0 0 0 0 127 0" result="hardAlpha"/>
<feOffset/>
<feGaussianBlur stdDeviation="1"/>
<feComposite in2="hardAlpha" operator="out"/>
<feColorMatrix type="matrix" values="0 0 0 0 0.231373 0 0 0 0 0.407843 0 0 0 0 1 0 0 0 0.35 0"/>
<feBlend mode="normal" in2="BackgroundImageFix" result="effect1_dropShadow_319_108"/>
<feBlend mode="normal" in="SourceGraphic" in2="effect1_dropShadow_319_108" result="shape"/>
</filter>
<linearGradient id="paint0_linear_319_108" x1="-1.2" y1="-4" x2="34.0169" y2="21.1278" gradientUnits="userSpaceOnUse">
<stop stop-color="#29EAC4" stop-opacity="0.5"/>
<stop offset="0.505208" stop-color="#12D8FA" stop-opacity="0.5"/>
<stop offset="1" stop-color="#0B2774" stop-opacity="0.5"/>
</linearGradient>
<linearGradient id="paint1_linear_319_108" x1="4.4" y1="7" x2="20.9186" y2="18.327" gradientUnits="userSpaceOnUse">
<stop stop-color="white" stop-opacity="0.15"/>
<stop offset="1" stop-color="white" stop-opacity="0.44"/>
</linearGradient>
</defs>
</svg>
