<svg width="29" height="30" viewBox="0 0 29 30" fill="none" xmlns="http://www.w3.org/2000/svg">
<g filter="url(#filter0_bdi_319_109)">
<path d="M4 8C4 5.79086 5.79086 4 8 4H12H14.0633C14.6568 4 15.2197 4.26365 15.5997 4.71963L19.5364 9.44373C19.836 9.80316 20 10.2562 20 10.7241V14V20C20 22.2091 18.2091 24 16 24H8C5.79086 24 4 22.2091 4 20V8Z" fill="url(#paint0_linear_319_109)" shape-rendering="crispEdges"/>
<path d="M4.125 8C4.125 5.8599 5.8599 4.125 8 4.125H12H14.0633C14.6197 4.125 15.1474 4.37217 15.5037 4.79965L19.4404 9.52375C19.7212 9.86072 19.875 10.2855 19.875 10.7241V14V20C19.875 22.1401 18.1401 23.875 16 23.875H8C5.8599 23.875 4.125 22.1401 4.125 20V8Z" stroke="url(#paint1_linear_319_109)" stroke-opacity="0.7" stroke-width="0.25" shape-rendering="crispEdges"/>
</g>
<g filter="url(#filter1_bdi_319_109)">
<path d="M18.25 24C18.25 24.9665 19.0335 25.75 20 25.75C20.9665 25.75 21.75 24.9665 21.75 24V22.75H23C23.9665 22.75 24.75 21.9665 24.75 21C24.75 20.0335 23.9665 19.25 23 19.25H21.75V18C21.75 17.0335 20.9665 16.25 20 16.25C19.0335 16.25 18.25 17.0335 18.25 18V19.25H17C16.0335 19.25 15.25 20.0335 15.25 21C15.25 21.9665 16.0335 22.75 17 22.75H18.25V24Z" fill="url(#paint2_linear_319_109)" shape-rendering="crispEdges"/>
<path d="M21.75 22.625C21.681 22.625 21.625 22.681 21.625 22.75V24C21.625 24.8975 20.8975 25.625 20 25.625C19.1025 25.625 18.375 24.8975 18.375 24V22.75C18.375 22.681 18.319 22.625 18.25 22.625H17C16.1025 22.625 15.375 21.8975 15.375 21C15.375 20.1025 16.1025 19.375 17 19.375H18.25C18.319 19.375 18.375 19.319 18.375 19.25V18C18.375 17.1025 19.1025 16.375 20 16.375C20.8975 16.375 21.625 17.1025 21.625 18V19.25C21.625 19.319 21.681 19.375 21.75 19.375H23C23.8975 19.375 24.625 20.1025 24.625 21C24.625 21.8975 23.8975 22.625 23 22.625H21.75Z" stroke="url(#paint3_linear_319_109)" stroke-opacity="0.7" stroke-width="0.25" stroke-linecap="round" stroke-linejoin="round" shape-rendering="crispEdges"/>
</g>
<path fill-rule="evenodd" clip-rule="evenodd" d="M15 4.52197V8.00016C15 9.10472 15.8954 10.0002 17 10.0002H19.5932C19.5288 9.85854 19.4454 9.72515 19.3444 9.60393L15.4076 4.87983C15.2899 4.73851 15.152 4.61829 15 4.52197Z" fill="#2AEAE7"/>
<path d="M17 21H23" stroke="#2AEAE7" stroke-width="1.5" stroke-linecap="round" stroke-linejoin="round"/>
<path d="M20 18L20 24" stroke="#2AEAE7" stroke-width="1.5" stroke-linecap="round" stroke-linejoin="round"/>
<defs>
<filter id="filter0_bdi_319_109" x="0" y="0" width="24" height="28" filterUnits="userSpaceOnUse" color-interpolation-filters="sRGB">
<feFlood flood-opacity="0" result="BackgroundImageFix"/>
<feGaussianBlur in="BackgroundImageFix" stdDeviation="1"/>
<feComposite in2="SourceAlpha" operator="in" result="effect1_backgroundBlur_319_109"/>
<feColorMatrix in="SourceAlpha" type="matrix" values="0 0 0 0 0 0 0 0 0 0 0 0 0 0 0 0 0 0 127 0" result="hardAlpha"/>
<feOffset/>
<feGaussianBlur stdDeviation="2"/>
<feComposite in2="hardAlpha" operator="out"/>
<feColorMatrix type="matrix" values="0 0 0 0 0.231373 0 0 0 0 0.407843 0 0 0 0 1 0 0 0 0.1 0"/>
<feBlend mode="normal" in2="effect1_backgroundBlur_319_109" result="effect2_dropShadow_319_109"/>
<feBlend mode="normal" in="SourceGraphic" in2="effect2_dropShadow_319_109" result="shape"/>
<feColorMatrix in="SourceAlpha" type="matrix" values="0 0 0 0 0 0 0 0 0 0 0 0 0 0 0 0 0 0 127 0" result="hardAlpha"/>
<feOffset/>
<feGaussianBlur stdDeviation="1.5"/>
<feComposite in2="hardAlpha" operator="arithmetic" k2="-1" k3="1"/>
<feColorMatrix type="matrix" values="0 0 0 0 0.231373 0 0 0 0 0.407843 0 0 0 0 1 0 0 0 0.38 0"/>
<feBlend mode="normal" in2="shape" result="effect3_innerShadow_319_109"/>
</filter>
<filter id="filter1_bdi_319_109" x="11.25" y="12.25" width="17.5" height="17.5" filterUnits="userSpaceOnUse" color-interpolation-filters="sRGB">
<feFlood flood-opacity="0" result="BackgroundImageFix"/>
<feGaussianBlur in="BackgroundImageFix" stdDeviation="1"/>
<feComposite in2="SourceAlpha" operator="in" result="effect1_backgroundBlur_319_109"/>
<feColorMatrix in="SourceAlpha" type="matrix" values="0 0 0 0 0 0 0 0 0 0 0 0 0 0 0 0 0 0 127 0" result="hardAlpha"/>
<feOffset/>
<feGaussianBlur stdDeviation="2"/>
<feComposite in2="hardAlpha" operator="out"/>
<feColorMatrix type="matrix" values="0 0 0 0 0.231373 0 0 0 0 0.407843 0 0 0 0 1 0 0 0 0.1 0"/>
<feBlend mode="normal" in2="effect1_backgroundBlur_319_109" result="effect2_dropShadow_319_109"/>
<feBlend mode="normal" in="SourceGraphic" in2="effect2_dropShadow_319_109" result="shape"/>
<feColorMatrix in="SourceAlpha" type="matrix" values="0 0 0 0 0 0 0 0 0 0 0 0 0 0 0 0 0 0 127 0" result="hardAlpha"/>
<feOffset/>
<feGaussianBlur stdDeviation="1.5"/>
<feComposite in2="hardAlpha" operator="arithmetic" k2="-1" k3="1"/>
<feColorMatrix type="matrix" values="0 0 0 0 0.231373 0 0 0 0 0.407843 0 0 0 0 1 0 0 0 0.38 0"/>
<feBlend mode="normal" in2="shape" result="effect3_innerShadow_319_109"/>
</filter>
<linearGradient id="paint0_linear_319_109" x1="-1.2" y1="-4" x2="34.0169" y2="21.1278" gradientUnits="userSpaceOnUse">
<stop stop-color="#29EAC4" stop-opacity="0.5"/>
<stop offset="0.505208" stop-color="#12D8FA" stop-opacity="0.5"/>
<stop offset="1" stop-color="#0B2774" stop-opacity="0.5"/>
</linearGradient>
<linearGradient id="paint1_linear_319_109" x1="4.4" y1="7" x2="20.9186" y2="18.327" gradientUnits="userSpaceOnUse">
<stop stop-color="white" stop-opacity="0.15"/>
<stop offset="1" stop-color="white" stop-opacity="0.44"/>
</linearGradient>
<linearGradient id="paint2_linear_319_109" x1="12.1625" y1="12.45" x2="29.7375" y2="28.125" gradientUnits="userSpaceOnUse">
<stop stop-color="#29EAC4" stop-opacity="0.5"/>
<stop offset="0.505208" stop-color="#12D8FA" stop-opacity="0.5"/>
<stop offset="1" stop-color="#0B2774" stop-opacity="0.5"/>
</linearGradient>
<linearGradient id="paint3_linear_319_109" x1="15.4875" y1="17.675" x2="23.8" y2="24.8" gradientUnits="userSpaceOnUse">
<stop stop-color="white" stop-opacity="0.15"/>
<stop offset="1" stop-color="white" stop-opacity="0.44"/>
</linearGradient>
</defs>
</svg>
