<svg width="24" height="24" viewBox="0 0 24 24" fill="none" xmlns="http://www.w3.org/2000/svg">
<g filter="url(#filter0_bdi_319_37)">
<path fill-rule="evenodd" clip-rule="evenodd" d="M11.5002 15.2503C11.2307 14.9358 11.2671 14.4623 11.5816 14.1928L18.5121 8.18063C18.8266 7.91106 19.3001 7.94748 19.5697 8.26197C19.8392 8.57647 19.8028 9.04994 19.4883 9.31951L12.5578 15.3316C12.2433 15.6012 11.7698 15.5648 11.5002 15.2503Z" fill="url(#paint0_linear_319_37)" shape-rendering="crispEdges"/>
<path d="M11.6629 14.2877L11.6635 14.2872L18.5935 8.27553C18.5936 8.27546 18.5937 8.27538 18.5938 8.2753C18.8558 8.05091 19.2502 8.08133 19.4748 8.34332C19.6994 8.6054 19.6691 8.99996 19.407 9.2246L19.4064 9.22509L12.4764 15.2367C12.4763 15.2368 12.4763 15.2369 12.4762 15.237C12.2141 15.4613 11.8197 15.4309 11.5952 15.1689C11.3705 14.9069 11.4009 14.5123 11.6629 14.2877Z" stroke="url(#paint1_linear_319_37)" stroke-opacity="0.7" stroke-width="0.25" stroke-linecap="round" shape-rendering="crispEdges"/>
</g>
<g filter="url(#filter1_d_319_37)">
<path d="M12.0002 14.75L5.00024 8.75" stroke="#2AEAE7" stroke-width="1.5" stroke-linecap="round"/>
</g>
<defs>
<filter id="filter0_bdi_319_37" x="7.3197" y="4" width="16.4305" height="15.5122" filterUnits="userSpaceOnUse" color-interpolation-filters="sRGB">
<feFlood flood-opacity="0" result="BackgroundImageFix"/>
<feGaussianBlur in="BackgroundImageFix" stdDeviation="1"/>
<feComposite in2="SourceAlpha" operator="in" result="effect1_backgroundBlur_319_37"/>
<feColorMatrix in="SourceAlpha" type="matrix" values="0 0 0 0 0 0 0 0 0 0 0 0 0 0 0 0 0 0 127 0" result="hardAlpha"/>
<feOffset/>
<feGaussianBlur stdDeviation="2"/>
<feComposite in2="hardAlpha" operator="out"/>
<feColorMatrix type="matrix" values="0 0 0 0 0.231373 0 0 0 0 0.407843 0 0 0 0 1 0 0 0 0.1 0"/>
<feBlend mode="normal" in2="effect1_backgroundBlur_319_37" result="effect2_dropShadow_319_37"/>
<feBlend mode="normal" in="SourceGraphic" in2="effect2_dropShadow_319_37" result="shape"/>
<feColorMatrix in="SourceAlpha" type="matrix" values="0 0 0 0 0 0 0 0 0 0 0 0 0 0 0 0 0 0 127 0" result="hardAlpha"/>
<feOffset/>
<feGaussianBlur stdDeviation="1.5"/>
<feComposite in2="hardAlpha" operator="arithmetic" k2="-1" k3="1"/>
<feColorMatrix type="matrix" values="0 0 0 0 0.231373 0 0 0 0 0.407843 0 0 0 0 1 0 0 0 0.38 0"/>
<feBlend mode="normal" in2="shape" result="effect3_innerShadow_319_37"/>
</filter>
<filter id="filter1_d_319_37" x="2.25024" y="6" width="12.5" height="11.5" filterUnits="userSpaceOnUse" color-interpolation-filters="sRGB">
<feFlood flood-opacity="0" result="BackgroundImageFix"/>
<feColorMatrix in="SourceAlpha" type="matrix" values="0 0 0 0 0 0 0 0 0 0 0 0 0 0 0 0 0 0 127 0" result="hardAlpha"/>
<feOffset/>
<feGaussianBlur stdDeviation="1"/>
<feComposite in2="hardAlpha" operator="out"/>
<feColorMatrix type="matrix" values="0 0 0 0 0.231373 0 0 0 0 0.407843 0 0 0 0 1 0 0 0 0.35 0"/>
<feBlend mode="normal" in2="BackgroundImageFix" result="effect1_dropShadow_319_37"/>
<feBlend mode="normal" in="SourceGraphic" in2="effect1_dropShadow_319_37" result="shape"/>
</filter>
<linearGradient id="paint0_linear_319_37" x1="22.5128" y1="18.5044" x2="8.5476" y2="4.38828" gradientUnits="userSpaceOnUse">
<stop stop-color="#344EA6" stop-opacity="0.26"/>
<stop offset="0.505208" stop-color="#587EFF" stop-opacity="0.12"/>
<stop offset="1" stop-color="#829EFF" stop-opacity="0.04"/>
</linearGradient>
<linearGradient id="paint1_linear_319_37" x1="19.5377" y1="14.3794" x2="12.8999" y2="7.93119" gradientUnits="userSpaceOnUse">
<stop stop-color="white" stop-opacity="0.15"/>
<stop offset="1" stop-color="white" stop-opacity="0.44"/>
</linearGradient>
</defs>
</svg>
