<svg width="24" height="26" viewBox="0 0 24 26" fill="none" xmlns="http://www.w3.org/2000/svg">
<g filter="url(#filter0_bdi_319_204)">
<path d="M13.7524 4.17224C13.7502 4.09602 13.6671 4.04639 13.6016 4.0855C10.1363 6.15576 10.2004 11.3491 10.2418 12.2901C10.2449 12.3611 10.1778 12.4112 10.1135 12.3809C9.71316 12.1924 8.5661 11.4823 8.50273 9.51531C8.50028 9.43898 8.41792 9.38991 8.35223 9.42885C6.34579 10.618 5 12.8144 5 15.25C5 18.9779 8.134 22 12 22C15.866 22 19 18.9779 19 15.25C19 9.83413 13.8803 8.6694 13.7524 4.17224Z" fill="url(#paint0_linear_319_204)" shape-rendering="crispEdges"/>
<path d="M10.7281 8.64112C11.1334 6.99315 11.9621 5.22929 13.6287 4.21513C13.7037 6.36328 14.8992 7.7676 16.1103 9.19032C16.1831 9.27588 16.256 9.36152 16.3288 9.44738C17.6218 10.9743 18.875 12.5896 18.875 15.25C18.875 18.9046 15.8013 21.875 12 21.875C8.19871 21.875 5.125 18.9046 5.125 15.25C5.125 12.8757 6.42907 10.7311 8.3792 9.55833C8.45839 11.5567 9.63435 12.2934 10.0602 12.494C10.2203 12.5694 10.3734 12.4374 10.3667 12.2846C10.3462 11.8196 10.3202 10.2994 10.7281 8.64112Z" stroke="url(#paint1_linear_319_204)" stroke-opacity="0.7" stroke-width="0.25" shape-rendering="crispEdges"/>
</g>
<defs>
<filter id="filter0_bdi_319_204" x="1" y="0.0717773" width="22" height="25.9282" filterUnits="userSpaceOnUse" color-interpolation-filters="sRGB">
<feFlood flood-opacity="0" result="BackgroundImageFix"/>
<feGaussianBlur in="BackgroundImageFix" stdDeviation="1"/>
<feComposite in2="SourceAlpha" operator="in" result="effect1_backgroundBlur_319_204"/>
<feColorMatrix in="SourceAlpha" type="matrix" values="0 0 0 0 0 0 0 0 0 0 0 0 0 0 0 0 0 0 127 0" result="hardAlpha"/>
<feOffset/>
<feGaussianBlur stdDeviation="2"/>
<feComposite in2="hardAlpha" operator="out"/>
<feColorMatrix type="matrix" values="0 0 0 0 0.231373 0 0 0 0 0.407843 0 0 0 0 1 0 0 0 0.1 0"/>
<feBlend mode="normal" in2="effect1_backgroundBlur_319_204" result="effect2_dropShadow_319_204"/>
<feBlend mode="normal" in="SourceGraphic" in2="effect2_dropShadow_319_204" result="shape"/>
<feColorMatrix in="SourceAlpha" type="matrix" values="0 0 0 0 0 0 0 0 0 0 0 0 0 0 0 0 0 0 127 0" result="hardAlpha"/>
<feOffset/>
<feGaussianBlur stdDeviation="1.5"/>
<feComposite in2="hardAlpha" operator="arithmetic" k2="-1" k3="1"/>
<feColorMatrix type="matrix" values="0 0 0 0 0.231373 0 0 0 0 0.407843 0 0 0 0 1 0 0 0 0.38 0"/>
<feBlend mode="normal" in2="shape" result="effect3_innerShadow_319_204"/>
</filter>
<linearGradient id="paint0_linear_319_204" x1="0.45" y1="-3.2" x2="31.8451" y2="18.5786" gradientUnits="userSpaceOnUse">
<stop stop-color="#29EAC4" stop-opacity="0.5"/>
<stop offset="0.505208" stop-color="#12D8FA" stop-opacity="0.5"/>
<stop offset="1" stop-color="#0B2774" stop-opacity="0.5"/>
</linearGradient>
<linearGradient id="paint1_linear_319_204" x1="5.35" y1="6.7" x2="20.0615" y2="16.5077" gradientUnits="userSpaceOnUse">
<stop stop-color="white" stop-opacity="0.15"/>
<stop offset="1" stop-color="white" stop-opacity="0.44"/>
</linearGradient>
</defs>
</svg>
