<svg width="24" height="27" viewBox="0 0 24 27" fill="none" xmlns="http://www.w3.org/2000/svg">
<g filter="url(#filter0_bdi_319_228)">
<path d="M10.751 6H18.7872C19.6045 6 20.0766 6.9272 19.5959 7.58817L17.6065 10.3237C17.0965 11.025 17.0965 11.975 17.6065 12.6763L19.5959 15.4118C20.0766 16.0728 19.6045 17 18.7872 17H11.751C11.1987 17 10.751 16.5523 10.751 16V6Z" fill="url(#paint0_linear_319_228)" shape-rendering="crispEdges"/>
<path d="M10.876 6.125H18.7872C19.5023 6.125 19.9155 6.9363 19.4949 7.51465L17.5054 10.2501C16.9635 10.9953 16.9635 12.0047 17.5054 12.7499L19.4949 15.4853C19.9155 16.0637 19.5023 16.875 18.7872 16.875H11.751C11.2677 16.875 10.876 16.4832 10.876 16V6.125Z" stroke="url(#paint1_linear_319_228)" stroke-opacity="0.7" stroke-width="0.25" shape-rendering="crispEdges"/>
</g>
<g filter="url(#filter1_d_319_228)">
<path d="M4.75098 24L4.75098 6" stroke="#2AEAE7" stroke-width="1.5" stroke-linecap="round" stroke-linejoin="round"/>
</g>
<g filter="url(#filter2_bdi_319_228)">
<path d="M4.00019 5.49997C4.0002 4.67155 4.67177 4 5.50019 4H11.2509C12.0793 4 12.7509 4.67157 12.7509 5.5V13.5C12.7509 14.3284 12.0793 15 11.2509 15H5.50003C4.67159 15 4.00001 14.3284 4.00003 13.5L4.00019 5.49997Z" fill="url(#paint2_linear_319_228)" shape-rendering="crispEdges"/>
<path d="M4.12519 5.49997C4.1252 4.74059 4.74081 4.125 5.50019 4.125H11.2509C12.0103 4.125 12.6259 4.74061 12.6259 5.5V13.5C12.6259 14.2594 12.0103 14.875 11.2509 14.875H5.50003C4.74063 14.875 4.12501 14.2594 4.12503 13.5L4.12519 5.49997Z" stroke="url(#paint3_linear_319_228)" stroke-opacity="0.7" stroke-width="0.25" shape-rendering="crispEdges"/>
</g>
<defs>
<filter id="filter0_bdi_319_228" x="6.75098" y="2" width="17.038" height="19" filterUnits="userSpaceOnUse" color-interpolation-filters="sRGB">
<feFlood flood-opacity="0" result="BackgroundImageFix"/>
<feGaussianBlur in="BackgroundImageFix" stdDeviation="1"/>
<feComposite in2="SourceAlpha" operator="in" result="effect1_backgroundBlur_319_228"/>
<feColorMatrix in="SourceAlpha" type="matrix" values="0 0 0 0 0 0 0 0 0 0 0 0 0 0 0 0 0 0 127 0" result="hardAlpha"/>
<feOffset/>
<feGaussianBlur stdDeviation="2"/>
<feComposite in2="hardAlpha" operator="out"/>
<feColorMatrix type="matrix" values="0 0 0 0 0.231373 0 0 0 0 0.407843 0 0 0 0 1 0 0 0 0.1 0"/>
<feBlend mode="normal" in2="effect1_backgroundBlur_319_228" result="effect2_dropShadow_319_228"/>
<feBlend mode="normal" in="SourceGraphic" in2="effect2_dropShadow_319_228" result="shape"/>
<feColorMatrix in="SourceAlpha" type="matrix" values="0 0 0 0 0 0 0 0 0 0 0 0 0 0 0 0 0 0 127 0" result="hardAlpha"/>
<feOffset/>
<feGaussianBlur stdDeviation="1.5"/>
<feComposite in2="hardAlpha" operator="arithmetic" k2="-1" k3="1"/>
<feColorMatrix type="matrix" values="0 0 0 0 0.231373 0 0 0 0 0.407843 0 0 0 0 1 0 0 0 0.38 0"/>
<feBlend mode="normal" in2="shape" result="effect3_innerShadow_319_228"/>
</filter>
<filter id="filter1_d_319_228" x="2.00098" y="3.25" width="5.5" height="23.5" filterUnits="userSpaceOnUse" color-interpolation-filters="sRGB">
<feFlood flood-opacity="0" result="BackgroundImageFix"/>
<feColorMatrix in="SourceAlpha" type="matrix" values="0 0 0 0 0 0 0 0 0 0 0 0 0 0 0 0 0 0 127 0" result="hardAlpha"/>
<feOffset/>
<feGaussianBlur stdDeviation="1"/>
<feComposite in2="hardAlpha" operator="out"/>
<feColorMatrix type="matrix" values="0 0 0 0 0.231373 0 0 0 0 0.407843 0 0 0 0 1 0 0 0 0.35 0"/>
<feBlend mode="normal" in2="BackgroundImageFix" result="effect1_dropShadow_319_228"/>
<feBlend mode="normal" in="SourceGraphic" in2="effect1_dropShadow_319_228" result="shape"/>
</filter>
<filter id="filter2_bdi_319_228" x="0" y="0" width="16.751" height="19" filterUnits="userSpaceOnUse" color-interpolation-filters="sRGB">
<feFlood flood-opacity="0" result="BackgroundImageFix"/>
<feGaussianBlur in="BackgroundImageFix" stdDeviation="1"/>
<feComposite in2="SourceAlpha" operator="in" result="effect1_backgroundBlur_319_228"/>
<feColorMatrix in="SourceAlpha" type="matrix" values="0 0 0 0 0 0 0 0 0 0 0 0 0 0 0 0 0 0 127 0" result="hardAlpha"/>
<feOffset/>
<feGaussianBlur stdDeviation="2"/>
<feComposite in2="hardAlpha" operator="out"/>
<feColorMatrix type="matrix" values="0 0 0 0 0.231373 0 0 0 0 0.407843 0 0 0 0 1 0 0 0 0.1 0"/>
<feBlend mode="normal" in2="effect1_backgroundBlur_319_228" result="effect2_dropShadow_319_228"/>
<feBlend mode="normal" in="SourceGraphic" in2="effect2_dropShadow_319_228" result="shape"/>
<feColorMatrix in="SourceAlpha" type="matrix" values="0 0 0 0 0 0 0 0 0 0 0 0 0 0 0 0 0 0 127 0" result="hardAlpha"/>
<feOffset/>
<feGaussianBlur stdDeviation="1.5"/>
<feComposite in2="hardAlpha" operator="arithmetic" k2="-1" k3="1"/>
<feColorMatrix type="matrix" values="0 0 0 0 0.231373 0 0 0 0 0.407843 0 0 0 0 1 0 0 0 0.38 0"/>
<feBlend mode="normal" in2="shape" result="effect3_innerShadow_319_228"/>
</filter>
<linearGradient id="paint0_linear_319_228" x1="7.50098" y1="1.6" x2="27.542" y2="17.8494" gradientUnits="userSpaceOnUse">
<stop stop-color="#29EAC4" stop-opacity="0.5"/>
<stop offset="0.505208" stop-color="#12D8FA" stop-opacity="0.5"/>
<stop offset="1" stop-color="#0B2774" stop-opacity="0.5"/>
</linearGradient>
<linearGradient id="paint1_linear_319_228" x1="11.001" y1="7.65" x2="20.4452" y2="15.0091" gradientUnits="userSpaceOnUse">
<stop stop-color="white" stop-opacity="0.15"/>
<stop offset="1" stop-color="white" stop-opacity="0.44"/>
</linearGradient>
<linearGradient id="paint2_linear_319_228" x1="1.15595" y1="-0.400001" x2="20.4898" y2="13.318" gradientUnits="userSpaceOnUse">
<stop stop-color="#29EAC4" stop-opacity="0.5"/>
<stop offset="0.505208" stop-color="#12D8FA" stop-opacity="0.5"/>
<stop offset="1" stop-color="#0B2774" stop-opacity="0.5"/>
</linearGradient>
<linearGradient id="paint3_linear_319_228" x1="4.21877" y1="5.65" x2="13.2856" y2="11.8326" gradientUnits="userSpaceOnUse">
<stop stop-color="white" stop-opacity="0.15"/>
<stop offset="1" stop-color="white" stop-opacity="0.44"/>
</linearGradient>
</defs>
</svg>
