<svg width="28" height="26" viewBox="0 0 28 26" fill="none" xmlns="http://www.w3.org/2000/svg">
<g filter="url(#filter0_bdi_319_102)">
<path d="M4 9C4 6.23858 6.23858 4 9 4H10.9561C11.925 4 12.8342 4.4679 13.3973 5.25629L14.1027 6.24371C14.6658 7.0321 15.575 7.5 16.5439 7.5H19C21.7614 7.5 24 9.73858 24 12.5V17C24 19.7614 21.7614 22 19 22H9C6.23858 22 4 19.7614 4 17V9Z" fill="url(#paint0_linear_319_102)" shape-rendering="crispEdges"/>
<path d="M4.125 9C4.125 6.30761 6.30761 4.125 9 4.125H10.9561C11.8846 4.125 12.756 4.5734 13.2956 5.32894L14.0009 6.31637C14.5875 7.13761 15.5346 7.625 16.5439 7.625H19C21.6924 7.625 23.875 9.80761 23.875 12.5V17C23.875 19.6924 21.6924 21.875 19 21.875H9C6.30761 21.875 4.125 19.6924 4.125 17V9Z" stroke="url(#paint1_linear_319_102)" stroke-opacity="0.7" stroke-width="0.25" shape-rendering="crispEdges"/>
</g>
<path fill-rule="evenodd" clip-rule="evenodd" d="M22.9714 9.46178C22.7029 6.95346 20.5796 5 18 5H13.1923C13.2648 5.08114 13.3333 5.16664 13.3974 5.25629L14.1027 6.24371C14.6658 7.0321 15.575 7.5 16.5439 7.5H19C20.6186 7.5 22.0576 8.2691 22.9714 9.46178Z" fill="#2AEAE7"/>
<g filter="url(#filter1_d_319_102)">
<path d="M14 17.5H20" stroke="#2AEAE7" stroke-width="1.5" stroke-linecap="round" stroke-linejoin="round" shape-rendering="crispEdges"/>
</g>
<defs>
<filter id="filter0_bdi_319_102" x="0" y="0" width="28" height="26" filterUnits="userSpaceOnUse" color-interpolation-filters="sRGB">
<feFlood flood-opacity="0" result="BackgroundImageFix"/>
<feGaussianBlur in="BackgroundImageFix" stdDeviation="1"/>
<feComposite in2="SourceAlpha" operator="in" result="effect1_backgroundBlur_319_102"/>
<feColorMatrix in="SourceAlpha" type="matrix" values="0 0 0 0 0 0 0 0 0 0 0 0 0 0 0 0 0 0 127 0" result="hardAlpha"/>
<feOffset/>
<feGaussianBlur stdDeviation="2"/>
<feComposite in2="hardAlpha" operator="out"/>
<feColorMatrix type="matrix" values="0 0 0 0 0.231373 0 0 0 0 0.407843 0 0 0 0 1 0 0 0 0.1 0"/>
<feBlend mode="normal" in2="effect1_backgroundBlur_319_102" result="effect2_dropShadow_319_102"/>
<feBlend mode="normal" in="SourceGraphic" in2="effect2_dropShadow_319_102" result="shape"/>
<feColorMatrix in="SourceAlpha" type="matrix" values="0 0 0 0 0 0 0 0 0 0 0 0 0 0 0 0 0 0 127 0" result="hardAlpha"/>
<feOffset/>
<feGaussianBlur stdDeviation="1.5"/>
<feComposite in2="hardAlpha" operator="arithmetic" k2="-1" k3="1"/>
<feColorMatrix type="matrix" values="0 0 0 0 0.231373 0 0 0 0 0.407843 0 0 0 0 1 0 0 0 0.38 0"/>
<feBlend mode="normal" in2="shape" result="effect3_innerShadow_319_102"/>
</filter>
<filter id="filter1_d_319_102" x="11.25" y="14.75" width="11.5" height="5.5" filterUnits="userSpaceOnUse" color-interpolation-filters="sRGB">
<feFlood flood-opacity="0" result="BackgroundImageFix"/>
<feColorMatrix in="SourceAlpha" type="matrix" values="0 0 0 0 0 0 0 0 0 0 0 0 0 0 0 0 0 0 127 0" result="hardAlpha"/>
<feOffset/>
<feGaussianBlur stdDeviation="1"/>
<feComposite in2="hardAlpha" operator="out"/>
<feColorMatrix type="matrix" values="0 0 0 0 0.231373 0 0 0 0 0.407843 0 0 0 0 1 0 0 0 0.35 0"/>
<feBlend mode="normal" in2="BackgroundImageFix" result="effect1_dropShadow_319_102"/>
<feBlend mode="normal" in="SourceGraphic" in2="effect1_dropShadow_319_102" result="shape"/>
</filter>
<linearGradient id="paint0_linear_319_102" x1="-2.5" y1="-3.2" x2="31.0168" y2="30.0149" gradientUnits="userSpaceOnUse">
<stop stop-color="#29EAC4" stop-opacity="0.5"/>
<stop offset="0.505208" stop-color="#12D8FA" stop-opacity="0.5"/>
<stop offset="1" stop-color="#0B2774" stop-opacity="0.5"/>
</linearGradient>
<linearGradient id="paint1_linear_319_102" x1="4.5" y1="6.7" x2="20.4185" y2="21.8605" gradientUnits="userSpaceOnUse">
<stop stop-color="white" stop-opacity="0.15"/>
<stop offset="1" stop-color="white" stop-opacity="0.44"/>
</linearGradient>
</defs>
</svg>
