<svg width="28" height="28" viewBox="0 0 28 28" fill="none" xmlns="http://www.w3.org/2000/svg">
<g filter="url(#filter0_bdi_319_126)">
<path d="M4 6C4 4.89543 4.89543 4 6 4H22C23.1046 4 24 4.89543 24 6V6.81751C24 7.57739 23.7116 8.30895 23.1932 8.86447L17.5379 14.9237C17.1922 15.294 17 15.7817 17 16.2883V20.382C17 20.7607 16.786 21.107 16.4472 21.2764L12.4472 23.2764C11.7823 23.6088 11 23.1253 11 22.382V16.2883C11 15.7817 10.8078 15.294 10.4621 14.9237L4.80683 8.86446C4.28836 8.30895 4 7.57739 4 6.81751V6Z" fill="url(#paint0_linear_319_126)" shape-rendering="crispEdges"/>
<path d="M4.125 6C4.125 4.96447 4.96447 4.125 6 4.125H22C23.0355 4.125 23.875 4.96447 23.875 6V6.81751C23.875 7.54573 23.5987 8.24681 23.1018 8.77918L17.4465 14.8384C17.0793 15.2319 16.875 15.7501 16.875 16.2883V20.382C16.875 20.7134 16.6877 21.0164 16.3913 21.1646L12.3913 23.1646C11.8095 23.4555 11.125 23.0324 11.125 22.382V16.2883C11.125 15.7501 10.9207 15.2319 10.5535 14.8384L4.89821 8.77917C4.40134 8.24681 4.125 7.54573 4.125 6.81751V6Z" stroke="url(#paint1_linear_319_126)" stroke-opacity="0.7" stroke-width="0.25" shape-rendering="crispEdges"/>
</g>
<path fill-rule="evenodd" clip-rule="evenodd" d="M16.8648 15.5791C16.7894 15.806 16.75 16.0453 16.75 16.2885V20.3822C16.75 20.6663 16.5895 20.926 16.3354 21.053L12.3354 23.053C11.8367 23.3023 11.25 22.9397 11.25 22.3822V18.8544L16.8648 15.5791Z" fill="#2AEAE7"/>
<defs>
<filter id="filter0_bdi_319_126" x="0" y="0" width="28" height="27.3833" filterUnits="userSpaceOnUse" color-interpolation-filters="sRGB">
<feFlood flood-opacity="0" result="BackgroundImageFix"/>
<feGaussianBlur in="BackgroundImageFix" stdDeviation="1"/>
<feComposite in2="SourceAlpha" operator="in" result="effect1_backgroundBlur_319_126"/>
<feColorMatrix in="SourceAlpha" type="matrix" values="0 0 0 0 0 0 0 0 0 0 0 0 0 0 0 0 0 0 127 0" result="hardAlpha"/>
<feOffset/>
<feGaussianBlur stdDeviation="2"/>
<feComposite in2="hardAlpha" operator="out"/>
<feColorMatrix type="matrix" values="0 0 0 0 0.231373 0 0 0 0 0.407843 0 0 0 0 1 0 0 0 0.1 0"/>
<feBlend mode="normal" in2="effect1_backgroundBlur_319_126" result="effect2_dropShadow_319_126"/>
<feBlend mode="normal" in="SourceGraphic" in2="effect2_dropShadow_319_126" result="shape"/>
<feColorMatrix in="SourceAlpha" type="matrix" values="0 0 0 0 0 0 0 0 0 0 0 0 0 0 0 0 0 0 127 0" result="hardAlpha"/>
<feOffset/>
<feGaussianBlur stdDeviation="1.5"/>
<feComposite in2="hardAlpha" operator="arithmetic" k2="-1" k3="1"/>
<feColorMatrix type="matrix" values="0 0 0 0 0.231373 0 0 0 0 0.407843 0 0 0 0 1 0 0 0 0.38 0"/>
<feBlend mode="normal" in2="shape" result="effect3_innerShadow_319_126"/>
</filter>
<linearGradient id="paint0_linear_319_126" x1="-2.5" y1="-4" x2="34.5" y2="29" gradientUnits="userSpaceOnUse">
<stop stop-color="#29EAC4" stop-opacity="0.5"/>
<stop offset="0.505208" stop-color="#12D8FA" stop-opacity="0.5"/>
<stop offset="1" stop-color="#0B2774" stop-opacity="0.5"/>
</linearGradient>
<linearGradient id="paint1_linear_319_126" x1="4.5" y1="7" x2="22" y2="22" gradientUnits="userSpaceOnUse">
<stop stop-color="white" stop-opacity="0.15"/>
<stop offset="1" stop-color="white" stop-opacity="0.44"/>
</linearGradient>
</defs>
</svg>
