<svg width="28" height="26" viewBox="0 0 28 26" fill="none" xmlns="http://www.w3.org/2000/svg">
<g filter="url(#filter0_bdi_319_161)">
<path d="M5.66275 14.2135L11.8238 20.7065C13.0068 21.9532 14.9932 21.9532 16.1762 20.7065L22.3372 14.2135C24.5542 11.877 24.5543 8.08882 22.3373 5.75235C20.1203 3.41588 16.5258 3.41588 14.3088 5.75235C14.1409 5.92925 13.8591 5.92925 13.6912 5.75235C11.4742 3.41588 7.87975 3.41588 5.66275 5.75235C3.44575 8.08883 3.44575 11.877 5.66275 14.2135Z" fill="url(#paint0_linear_319_161)" shape-rendering="crispEdges"/>
<path d="M11.9144 20.6205L5.75343 14.1274C3.58219 11.8392 3.58219 8.12663 5.75343 5.83839C7.92113 3.55387 11.4328 3.55387 13.6005 5.83839C13.8177 6.06724 14.1823 6.06724 14.3995 5.83839C16.5672 3.55387 20.0789 3.55387 22.2466 5.83839C24.4178 8.12663 24.4178 11.8392 22.2466 14.1274L16.0856 20.6205C14.9519 21.8152 13.0481 21.8152 11.9144 20.6205Z" stroke="url(#paint1_linear_319_161)" stroke-opacity="0.7" stroke-width="0.25" shape-rendering="crispEdges"/>
</g>
<path fill-rule="evenodd" clip-rule="evenodd" d="M22.1559 5.92443C24.2814 8.16444 24.2814 11.8014 22.1559 14.0414L15.9949 20.5344C15.4527 21.1058 14.7263 21.3915 14 21.3915V6.13503C14.1785 6.13503 14.3569 6.06483 14.4901 5.92443C16.6086 3.69186 20.0375 3.69185 22.1559 5.92443ZM16.0766 20.8068L16.0843 20.8034L16.1749 20.7079C16.1427 20.7418 16.1099 20.7747 16.0766 20.8068Z" fill="#2AEAE7"/>
<defs>
<filter id="filter0_bdi_319_161" x="0" y="0" width="28" height="25.6416" filterUnits="userSpaceOnUse" color-interpolation-filters="sRGB">
<feFlood flood-opacity="0" result="BackgroundImageFix"/>
<feGaussianBlur in="BackgroundImageFix" stdDeviation="1"/>
<feComposite in2="SourceAlpha" operator="in" result="effect1_backgroundBlur_319_161"/>
<feColorMatrix in="SourceAlpha" type="matrix" values="0 0 0 0 0 0 0 0 0 0 0 0 0 0 0 0 0 0 127 0" result="hardAlpha"/>
<feOffset/>
<feGaussianBlur stdDeviation="2"/>
<feComposite in2="hardAlpha" operator="out"/>
<feColorMatrix type="matrix" values="0 0 0 0 0.231373 0 0 0 0 0.407843 0 0 0 0 1 0 0 0 0.1 0"/>
<feBlend mode="normal" in2="effect1_backgroundBlur_319_161" result="effect2_dropShadow_319_161"/>
<feBlend mode="normal" in="SourceGraphic" in2="effect2_dropShadow_319_161" result="shape"/>
<feColorMatrix in="SourceAlpha" type="matrix" values="0 0 0 0 0 0 0 0 0 0 0 0 0 0 0 0 0 0 127 0" result="hardAlpha"/>
<feOffset/>
<feGaussianBlur stdDeviation="1.5"/>
<feComposite in2="hardAlpha" operator="arithmetic" k2="-1" k3="1"/>
<feColorMatrix type="matrix" values="0 0 0 0 0.231373 0 0 0 0 0.407843 0 0 0 0 1 0 0 0 0.38 0"/>
<feBlend mode="normal" in2="shape" result="effect3_innerShadow_319_161"/>
</filter>
<linearGradient id="paint0_linear_319_161" x1="-2.5" y1="-3.6" x2="32.8099" y2="29.5502" gradientUnits="userSpaceOnUse">
<stop stop-color="#29EAC4" stop-opacity="0.5"/>
<stop offset="0.505208" stop-color="#12D8FA" stop-opacity="0.5"/>
<stop offset="1" stop-color="#0B2774" stop-opacity="0.5"/>
</linearGradient>
<linearGradient id="paint1_linear_319_161" x1="4.5" y1="6.85" x2="21.2343" y2="21.9486" gradientUnits="userSpaceOnUse">
<stop stop-color="white" stop-opacity="0.15"/>
<stop offset="1" stop-color="white" stop-opacity="0.44"/>
</linearGradient>
</defs>
</svg>
