<svg width="28" height="28" viewBox="0 0 28 28" fill="none" xmlns="http://www.w3.org/2000/svg">
<g filter="url(#filter0_bdi_319_160)">
<path d="M4.5 12.9384C4.5 11.7142 5.06058 10.5574 6.02142 9.79888L11.5214 5.45677C12.9747 4.30948 15.0253 4.30948 16.4786 5.45677L21.9786 9.79888C22.9394 10.5574 23.5 11.7142 23.5 12.9384V19.5C23.5 21.7091 21.7091 23.5 19.5 23.5H18C17.4477 23.5 17 23.0523 17 22.5V19.5C17 18.3954 16.1046 17.5 15 17.5H13C11.8954 17.5 11 18.3954 11 19.5V22.5C11 23.0523 10.5523 23.5 10 23.5H8.5C6.29086 23.5 4.5 21.7091 4.5 19.5L4.5 12.9384Z" fill="url(#paint0_linear_319_160)" shape-rendering="crispEdges"/>
<path d="M4.5 12.9384C4.5 11.7142 5.06058 10.5574 6.02142 9.79888L11.5214 5.45677C12.9747 4.30948 15.0253 4.30948 16.4786 5.45677L21.9786 9.79888C22.9394 10.5574 23.5 11.7142 23.5 12.9384V19.5C23.5 21.7091 21.7091 23.5 19.5 23.5H18C17.4477 23.5 17 23.0523 17 22.5V19.5C17 18.3954 16.1046 17.5 15 17.5H13C11.8954 17.5 11 18.3954 11 19.5V22.5C11 23.0523 10.5523 23.5 10 23.5H8.5C6.29086 23.5 4.5 21.7091 4.5 19.5L4.5 12.9384Z" stroke="url(#paint1_linear_319_160)" stroke-opacity="0.7" stroke-width="0.25" shape-rendering="crispEdges"/>
</g>
<g filter="url(#filter1_d_319_160)">
<path fill-rule="evenodd" clip-rule="evenodd" d="M14 17.3749V4.72119C14.8486 4.72119 15.6972 4.99905 16.4011 5.55477L21.9011 9.89688C22.8319 10.6317 23.375 11.7524 23.375 12.9383V19.4999C23.375 21.64 21.6401 23.3749 19.5 23.3749H18C17.5168 23.3749 17.125 22.9831 17.125 22.4999V19.4999C17.125 18.3263 16.1736 17.3749 15 17.3749H14Z" fill="#2AEAE7"/>
</g>
<defs>
<filter id="filter0_bdi_319_160" x="0.375" y="0.471191" width="27.25" height="27.1538" filterUnits="userSpaceOnUse" color-interpolation-filters="sRGB">
<feFlood flood-opacity="0" result="BackgroundImageFix"/>
<feGaussianBlur in="BackgroundImageFix" stdDeviation="1"/>
<feComposite in2="SourceAlpha" operator="in" result="effect1_backgroundBlur_319_160"/>
<feColorMatrix in="SourceAlpha" type="matrix" values="0 0 0 0 0 0 0 0 0 0 0 0 0 0 0 0 0 0 127 0" result="hardAlpha"/>
<feOffset/>
<feGaussianBlur stdDeviation="2"/>
<feComposite in2="hardAlpha" operator="out"/>
<feColorMatrix type="matrix" values="0 0 0 0 0.231373 0 0 0 0 0.407843 0 0 0 0 1 0 0 0 0.1 0"/>
<feBlend mode="normal" in2="effect1_backgroundBlur_319_160" result="effect2_dropShadow_319_160"/>
<feBlend mode="normal" in="SourceGraphic" in2="effect2_dropShadow_319_160" result="shape"/>
<feColorMatrix in="SourceAlpha" type="matrix" values="0 0 0 0 0 0 0 0 0 0 0 0 0 0 0 0 0 0 127 0" result="hardAlpha"/>
<feOffset/>
<feGaussianBlur stdDeviation="1.5"/>
<feComposite in2="hardAlpha" operator="arithmetic" k2="-1" k3="1"/>
<feColorMatrix type="matrix" values="0 0 0 0 0.231373 0 0 0 0 0.407843 0 0 0 0 1 0 0 0 0.38 0"/>
<feBlend mode="normal" in2="shape" result="effect3_innerShadow_319_160"/>
</filter>
<filter id="filter1_d_319_160" x="12" y="2.72119" width="13.375" height="22.6538" filterUnits="userSpaceOnUse" color-interpolation-filters="sRGB">
<feFlood flood-opacity="0" result="BackgroundImageFix"/>
<feColorMatrix in="SourceAlpha" type="matrix" values="0 0 0 0 0 0 0 0 0 0 0 0 0 0 0 0 0 0 127 0" result="hardAlpha"/>
<feOffset/>
<feGaussianBlur stdDeviation="1"/>
<feComposite in2="hardAlpha" operator="out"/>
<feColorMatrix type="matrix" values="0 0 0 0 0.231373 0 0 0 0 0.407843 0 0 0 0 1 0 0 0 0.35 0"/>
<feBlend mode="normal" in2="BackgroundImageFix" result="effect1_dropShadow_319_160"/>
<feBlend mode="normal" in="SourceGraphic" in2="effect1_dropShadow_319_160" result="shape"/>
</filter>
<linearGradient id="paint0_linear_319_160" x1="-1.675" y1="-4.5" x2="35.0619" y2="26.6271" gradientUnits="userSpaceOnUse">
<stop stop-color="#29EAC4" stop-opacity="0.5"/>
<stop offset="0.505208" stop-color="#12D8FA" stop-opacity="0.5"/>
<stop offset="1" stop-color="#0B2774" stop-opacity="0.5"/>
</linearGradient>
<linearGradient id="paint1_linear_319_160" x1="4.975" y1="6.5" x2="22.3161" y2="20.6206" gradientUnits="userSpaceOnUse">
<stop stop-color="white" stop-opacity="0.15"/>
<stop offset="1" stop-color="white" stop-opacity="0.44"/>
</linearGradient>
</defs>
</svg>
