<svg width="28" height="24" viewBox="0 0 28 24" fill="none" xmlns="http://www.w3.org/2000/svg">
<g filter="url(#filter0_d_319_209)">
<path d="M11.2033 5.66229C10.8307 5.3758 10.44 5 9.96999 5H6C5.44772 5 5 5.41574 5 5.92857V17.0714C5 17.5843 5.44772 18 6 18H22C22.5523 18 23 17.5843 23 17.0714V5.92857C23 5.41574 22.5523 5 22 5H18.03C17.56 5 17.1693 5.3758 16.7967 5.66229C16.5804 5.82861 16.3028 5.92857 16 5.92857H12C11.6972 5.92857 11.4196 5.82861 11.2033 5.66229Z" fill="#2AEAE7"/>
</g>
<g filter="url(#filter1_bdi_319_209)">
<rect x="4" y="17" width="20" height="3" rx="1" fill="url(#paint0_linear_319_209)" shape-rendering="crispEdges"/>
<rect x="4.125" y="17.125" width="19.75" height="2.75" rx="0.875" stroke="url(#paint1_linear_319_209)" stroke-opacity="0.7" stroke-width="0.25" shape-rendering="crispEdges"/>
</g>
<defs>
<filter id="filter0_d_319_209" x="3" y="3" width="22" height="17" filterUnits="userSpaceOnUse" color-interpolation-filters="sRGB">
<feFlood flood-opacity="0" result="BackgroundImageFix"/>
<feColorMatrix in="SourceAlpha" type="matrix" values="0 0 0 0 0 0 0 0 0 0 0 0 0 0 0 0 0 0 127 0" result="hardAlpha"/>
<feOffset/>
<feGaussianBlur stdDeviation="1"/>
<feComposite in2="hardAlpha" operator="out"/>
<feColorMatrix type="matrix" values="0 0 0 0 0.231373 0 0 0 0 0.407843 0 0 0 0 1 0 0 0 0.35 0"/>
<feBlend mode="normal" in2="BackgroundImageFix" result="effect1_dropShadow_319_209"/>
<feBlend mode="normal" in="SourceGraphic" in2="effect1_dropShadow_319_209" result="shape"/>
</filter>
<filter id="filter1_bdi_319_209" x="0" y="13" width="28" height="11" filterUnits="userSpaceOnUse" color-interpolation-filters="sRGB">
<feFlood flood-opacity="0" result="BackgroundImageFix"/>
<feGaussianBlur in="BackgroundImageFix" stdDeviation="1"/>
<feComposite in2="SourceAlpha" operator="in" result="effect1_backgroundBlur_319_209"/>
<feColorMatrix in="SourceAlpha" type="matrix" values="0 0 0 0 0 0 0 0 0 0 0 0 0 0 0 0 0 0 127 0" result="hardAlpha"/>
<feOffset/>
<feGaussianBlur stdDeviation="2"/>
<feComposite in2="hardAlpha" operator="out"/>
<feColorMatrix type="matrix" values="0 0 0 0 0.231373 0 0 0 0 0.407843 0 0 0 0 1 0 0 0 0.1 0"/>
<feBlend mode="normal" in2="effect1_backgroundBlur_319_209" result="effect2_dropShadow_319_209"/>
<feBlend mode="normal" in="SourceGraphic" in2="effect2_dropShadow_319_209" result="shape"/>
<feColorMatrix in="SourceAlpha" type="matrix" values="0 0 0 0 0 0 0 0 0 0 0 0 0 0 0 0 0 0 127 0" result="hardAlpha"/>
<feOffset/>
<feGaussianBlur stdDeviation="1.5"/>
<feComposite in2="hardAlpha" operator="arithmetic" k2="-1" k3="1"/>
<feColorMatrix type="matrix" values="0 0 0 0 0.231373 0 0 0 0 0.407843 0 0 0 0 1 0 0 0 0.38 0"/>
<feBlend mode="normal" in2="shape" result="effect3_innerShadow_319_209"/>
</filter>
<linearGradient id="paint0_linear_319_209" x1="-2.5" y1="15.8" x2="-0.672637" y2="26.6654" gradientUnits="userSpaceOnUse">
<stop stop-color="#29EAC4" stop-opacity="0.5"/>
<stop offset="0.505208" stop-color="#12D8FA" stop-opacity="0.5"/>
<stop offset="1" stop-color="#0B2774" stop-opacity="0.5"/>
</linearGradient>
<linearGradient id="paint1_linear_319_209" x1="4.5" y1="17.45" x2="5.40206" y2="22.6046" gradientUnits="userSpaceOnUse">
<stop stop-color="white" stop-opacity="0.15"/>
<stop offset="1" stop-color="white" stop-opacity="0.44"/>
</linearGradient>
</defs>
</svg>
