<svg width="24" height="24" viewBox="0 0 24 24" fill="none" xmlns="http://www.w3.org/2000/svg">
<g filter="url(#filter0_bdi_319_39)">
<path fill-rule="evenodd" clip-rule="evenodd" d="M8.26192 11.5C8.57641 11.2304 9.04989 11.2669 9.31946 11.5813L15.3316 18.5119C15.6011 18.8264 15.5647 19.2999 15.2502 19.5694C14.9357 19.839 14.4623 19.8026 14.1927 19.4881L8.18057 12.5575C7.911 12.243 7.94742 11.7696 8.26192 11.5Z" fill="url(#paint0_linear_319_39)" shape-rendering="crispEdges"/>
<path d="M9.22455 11.6627L9.22503 11.6633L15.2367 18.5932C15.2368 18.5933 15.2368 18.5934 15.2369 18.5935C15.4613 18.8556 15.4309 19.25 15.1689 19.4745C14.9068 19.6992 14.5122 19.6688 14.2876 19.4067L14.2871 19.4062L8.27548 12.4762C8.2754 12.4761 8.27533 12.476 8.27525 12.4759C8.05086 12.2138 8.08128 11.8195 8.34327 11.5949C8.60535 11.3703 8.99991 11.4006 9.22455 11.6627Z" stroke="url(#paint1_linear_319_39)" stroke-opacity="0.7" stroke-width="0.25" stroke-linecap="round" shape-rendering="crispEdges"/>
</g>
<g filter="url(#filter1_d_319_39)">
<path d="M8.76172 12L14.7617 5" stroke="#2AEAE7" stroke-width="1.5" stroke-linecap="round"/>
</g>
<defs>
<filter id="filter0_bdi_319_39" x="4" y="7.31934" width="15.5122" height="16.4307" filterUnits="userSpaceOnUse" color-interpolation-filters="sRGB">
<feFlood flood-opacity="0" result="BackgroundImageFix"/>
<feGaussianBlur in="BackgroundImageFix" stdDeviation="1"/>
<feComposite in2="SourceAlpha" operator="in" result="effect1_backgroundBlur_319_39"/>
<feColorMatrix in="SourceAlpha" type="matrix" values="0 0 0 0 0 0 0 0 0 0 0 0 0 0 0 0 0 0 127 0" result="hardAlpha"/>
<feOffset/>
<feGaussianBlur stdDeviation="2"/>
<feComposite in2="hardAlpha" operator="out"/>
<feColorMatrix type="matrix" values="0 0 0 0 0.231373 0 0 0 0 0.407843 0 0 0 0 1 0 0 0 0.1 0"/>
<feBlend mode="normal" in2="effect1_backgroundBlur_319_39" result="effect2_dropShadow_319_39"/>
<feBlend mode="normal" in="SourceGraphic" in2="effect2_dropShadow_319_39" result="shape"/>
<feColorMatrix in="SourceAlpha" type="matrix" values="0 0 0 0 0 0 0 0 0 0 0 0 0 0 0 0 0 0 127 0" result="hardAlpha"/>
<feOffset/>
<feGaussianBlur stdDeviation="1.5"/>
<feComposite in2="hardAlpha" operator="arithmetic" k2="-1" k3="1"/>
<feColorMatrix type="matrix" values="0 0 0 0 0.231373 0 0 0 0 0.407843 0 0 0 0 1 0 0 0 0.38 0"/>
<feBlend mode="normal" in2="shape" result="effect3_innerShadow_319_39"/>
</filter>
<filter id="filter1_d_319_39" x="6.01172" y="2.25" width="11.5" height="12.5" filterUnits="userSpaceOnUse" color-interpolation-filters="sRGB">
<feFlood flood-opacity="0" result="BackgroundImageFix"/>
<feColorMatrix in="SourceAlpha" type="matrix" values="0 0 0 0 0 0 0 0 0 0 0 0 0 0 0 0 0 0 127 0" result="hardAlpha"/>
<feOffset/>
<feGaussianBlur stdDeviation="1"/>
<feComposite in2="hardAlpha" operator="out"/>
<feColorMatrix type="matrix" values="0 0 0 0 0.231373 0 0 0 0 0.407843 0 0 0 0 1 0 0 0 0.35 0"/>
<feBlend mode="normal" in2="BackgroundImageFix" result="effect1_dropShadow_319_39"/>
<feBlend mode="normal" in="SourceGraphic" in2="effect1_dropShadow_319_39" result="shape"/>
</filter>
<linearGradient id="paint0_linear_319_39" x1="5.0078" y1="22.5125" x2="19.1239" y2="8.54736" gradientUnits="userSpaceOnUse">
<stop stop-color="#344EA6" stop-opacity="0.26"/>
<stop offset="0.505208" stop-color="#587EFF" stop-opacity="0.12"/>
<stop offset="1" stop-color="#829EFF" stop-opacity="0.04"/>
</linearGradient>
<linearGradient id="paint1_linear_319_39" x1="9.13282" y1="19.5375" x2="15.581" y2="12.8996" gradientUnits="userSpaceOnUse">
<stop stop-color="white" stop-opacity="0.15"/>
<stop offset="1" stop-color="white" stop-opacity="0.44"/>
</linearGradient>
</defs>
</svg>
