<svg width="24" height="28" viewBox="0 0 24 28" fill="none" xmlns="http://www.w3.org/2000/svg">
<g filter="url(#filter0_bdi_319_178)">
<path d="M13.8154 12.4211C13.7049 12.4211 13.6154 12.3316 13.6154 12.2211V4.60383C13.6154 4.41125 13.3699 4.32994 13.2549 4.48445L5.59411 14.7804C5.34868 15.1103 5.58411 15.5789 5.99525 15.5789H10.1846C10.2951 15.5789 10.3846 15.6684 10.3846 15.7789V23.3962C10.3846 23.5888 10.6301 23.6701 10.7451 23.5156L18.4059 13.2196C18.6513 12.8897 18.4159 12.4211 18.0047 12.4211H13.8154Z" fill="url(#paint0_linear_319_178)" shape-rendering="crispEdges"/>
<path d="M13.8154 12.4211C13.7049 12.4211 13.6154 12.3316 13.6154 12.2211V4.60383C13.6154 4.41125 13.3699 4.32994 13.2549 4.48445L5.59411 14.7804C5.34868 15.1103 5.58411 15.5789 5.99525 15.5789H10.1846C10.2951 15.5789 10.3846 15.6684 10.3846 15.7789V23.3962C10.3846 23.5888 10.6301 23.6701 10.7451 23.5156L18.4059 13.2196C18.6513 12.8897 18.4159 12.4211 18.0047 12.4211H13.8154Z" stroke="url(#paint1_linear_319_178)" stroke-opacity="0.7" stroke-width="0.25" shape-rendering="crispEdges"/>
</g>
<g filter="url(#filter1_d_319_178)">
<path d="M13.6969 12.4209C13.6446 12.4209 13.5945 12.4413 13.5571 12.4779L10.4448 15.5198C10.4063 15.5575 10.3846 15.609 10.3846 15.6629V23.3959C10.3846 23.5885 10.6301 23.6698 10.7451 23.5153L18.4059 13.2194C18.6513 12.8895 18.4159 12.4209 18.0048 12.4209H13.6969Z" fill="#2AEAE7"/>
</g>
<defs>
<filter id="filter0_bdi_319_178" x="1.36914" y="0.27832" width="21.2617" height="27.4434" filterUnits="userSpaceOnUse" color-interpolation-filters="sRGB">
<feFlood flood-opacity="0" result="BackgroundImageFix"/>
<feGaussianBlur in="BackgroundImageFix" stdDeviation="1"/>
<feComposite in2="SourceAlpha" operator="in" result="effect1_backgroundBlur_319_178"/>
<feColorMatrix in="SourceAlpha" type="matrix" values="0 0 0 0 0 0 0 0 0 0 0 0 0 0 0 0 0 0 127 0" result="hardAlpha"/>
<feOffset/>
<feGaussianBlur stdDeviation="2"/>
<feComposite in2="hardAlpha" operator="out"/>
<feColorMatrix type="matrix" values="0 0 0 0 0.231373 0 0 0 0 0.407843 0 0 0 0 1 0 0 0 0.1 0"/>
<feBlend mode="normal" in2="effect1_backgroundBlur_319_178" result="effect2_dropShadow_319_178"/>
<feBlend mode="normal" in="SourceGraphic" in2="effect2_dropShadow_319_178" result="shape"/>
<feColorMatrix in="SourceAlpha" type="matrix" values="0 0 0 0 0 0 0 0 0 0 0 0 0 0 0 0 0 0 127 0" result="hardAlpha"/>
<feOffset/>
<feGaussianBlur stdDeviation="1.5"/>
<feComposite in2="hardAlpha" operator="arithmetic" k2="-1" k3="1"/>
<feColorMatrix type="matrix" values="0 0 0 0 0.231373 0 0 0 0 0.407843 0 0 0 0 1 0 0 0 0.38 0"/>
<feBlend mode="normal" in2="shape" result="effect3_innerShadow_319_178"/>
</filter>
<filter id="filter1_d_319_178" x="8.38464" y="10.4209" width="12.121" height="15.1753" filterUnits="userSpaceOnUse" color-interpolation-filters="sRGB">
<feFlood flood-opacity="0" result="BackgroundImageFix"/>
<feColorMatrix in="SourceAlpha" type="matrix" values="0 0 0 0 0 0 0 0 0 0 0 0 0 0 0 0 0 0 127 0" result="hardAlpha"/>
<feOffset/>
<feGaussianBlur stdDeviation="1"/>
<feComposite in2="hardAlpha" operator="out"/>
<feColorMatrix type="matrix" values="0 0 0 0 0.231373 0 0 0 0 0.407843 0 0 0 0 1 0 0 0 0.35 0"/>
<feBlend mode="normal" in2="BackgroundImageFix" result="effect1_dropShadow_319_178"/>
<feBlend mode="normal" in="SourceGraphic" in2="effect1_dropShadow_319_178" result="shape"/>
</filter>
<linearGradient id="paint0_linear_319_178" x1="0.45" y1="-4" x2="33.9105" y2="16.8902" gradientUnits="userSpaceOnUse">
<stop stop-color="#29EAC4" stop-opacity="0.5"/>
<stop offset="0.505208" stop-color="#12D8FA" stop-opacity="0.5"/>
<stop offset="1" stop-color="#0B2774" stop-opacity="0.5"/>
</linearGradient>
<linearGradient id="paint1_linear_319_178" x1="5.35" y1="7" x2="20.975" y2="16.375" gradientUnits="userSpaceOnUse">
<stop stop-color="white" stop-opacity="0.15"/>
<stop offset="1" stop-color="white" stop-opacity="0.44"/>
</linearGradient>
</defs>
</svg>
