<svg width="24" height="28" viewBox="0 0 24 28" fill="none" xmlns="http://www.w3.org/2000/svg">
<g filter="url(#filter0_bdi_463_895)">
<path d="M4 9.03285C4 8.66968 4.19689 8.33506 4.51436 8.15869L11.5144 4.2698C11.8164 4.10201 12.1836 4.10201 12.4856 4.2698L19.4856 8.15869C19.8031 8.33506 20 8.66968 20 9.03285V13.6715C20 17.3032 18.0311 20.6494 14.8564 22.4131L12.4856 23.7302C12.1836 23.898 11.8164 23.898 11.5144 23.7302L9.14357 22.4131C5.96892 20.6494 4 17.3032 4 13.6715V9.03285Z" fill="url(#paint0_linear_463_895)" shape-rendering="crispEdges"/>
<path d="M4.125 9.03285C4.125 8.71508 4.29728 8.42228 4.57506 8.26796L11.5751 4.37907C11.8393 4.23225 12.1607 4.23225 12.4249 4.37907L19.4249 8.26796C19.7027 8.42228 19.875 8.71508 19.875 9.03285V13.6715C19.875 17.2578 17.9307 20.5622 14.7957 22.3038L12.4249 23.6209C12.1607 23.7677 11.8393 23.7677 11.5751 23.6209L9.20428 22.3038C6.06931 20.5622 4.125 17.2578 4.125 13.6715V9.03285Z" stroke="url(#paint1_linear_463_895)" stroke-opacity="0.7" stroke-width="0.25" shape-rendering="crispEdges"/>
</g>
<g filter="url(#filter1_bdi_463_895)">
<path d="M13.1231 13.0527C13.0126 13.0527 12.9231 12.9631 12.9231 12.8527V8.62815C12.9231 8.4332 12.6726 8.35345 12.5599 8.51252L8.55917 14.1582C8.32453 14.4894 8.5613 14.9473 8.96713 14.9473H10.8769C10.9874 14.9473 11.0769 15.0369 11.0769 15.1473V19.3719C11.0769 19.5668 11.3274 19.6465 11.4401 19.4875L15.4408 13.8418C15.6755 13.5106 15.4387 13.0527 15.0329 13.0527H13.1231Z" fill="#2AEAE7" shape-rendering="crispEdges"/>
<path d="M13.1231 13.0527C13.0126 13.0527 12.9231 12.9631 12.9231 12.8527V8.62815C12.9231 8.4332 12.6726 8.35345 12.5599 8.51252L8.55917 14.1582C8.32453 14.4894 8.5613 14.9473 8.96713 14.9473H10.8769C10.9874 14.9473 11.0769 15.0369 11.0769 15.1473V19.3719C11.0769 19.5668 11.3274 19.6465 11.4401 19.4875L15.4408 13.8418C15.6755 13.5106 15.4387 13.0527 15.0329 13.0527H13.1231Z" stroke="url(#paint2_linear_463_895)" stroke-opacity="0.7" stroke-width="0.25" shape-rendering="crispEdges"/>
</g>
<defs>
<filter id="filter0_bdi_463_895" x="0" y="0.144043" width="24" height="27.7119" filterUnits="userSpaceOnUse" color-interpolation-filters="sRGB">
<feFlood flood-opacity="0" result="BackgroundImageFix"/>
<feGaussianBlur in="BackgroundImageFix" stdDeviation="1"/>
<feComposite in2="SourceAlpha" operator="in" result="effect1_backgroundBlur_463_895"/>
<feColorMatrix in="SourceAlpha" type="matrix" values="0 0 0 0 0 0 0 0 0 0 0 0 0 0 0 0 0 0 127 0" result="hardAlpha"/>
<feOffset/>
<feGaussianBlur stdDeviation="2"/>
<feComposite in2="hardAlpha" operator="out"/>
<feColorMatrix type="matrix" values="0 0 0 0 0.231373 0 0 0 0 0.407843 0 0 0 0 1 0 0 0 0.1 0"/>
<feBlend mode="normal" in2="effect1_backgroundBlur_463_895" result="effect2_dropShadow_463_895"/>
<feBlend mode="normal" in="SourceGraphic" in2="effect2_dropShadow_463_895" result="shape"/>
<feColorMatrix in="SourceAlpha" type="matrix" values="0 0 0 0 0 0 0 0 0 0 0 0 0 0 0 0 0 0 127 0" result="hardAlpha"/>
<feOffset/>
<feGaussianBlur stdDeviation="1.5"/>
<feComposite in2="hardAlpha" operator="arithmetic" k2="-1" k3="1"/>
<feColorMatrix type="matrix" values="0 0 0 0 0.231373 0 0 0 0 0.407843 0 0 0 0 1 0 0 0 0.38 0"/>
<feBlend mode="normal" in2="shape" result="effect3_innerShadow_463_895"/>
</filter>
<filter id="filter1_bdi_463_895" x="4.341" y="4.30273" width="15.318" height="19.3945" filterUnits="userSpaceOnUse" color-interpolation-filters="sRGB">
<feFlood flood-opacity="0" result="BackgroundImageFix"/>
<feGaussianBlur in="BackgroundImageFix" stdDeviation="1"/>
<feComposite in2="SourceAlpha" operator="in" result="effect1_backgroundBlur_463_895"/>
<feColorMatrix in="SourceAlpha" type="matrix" values="0 0 0 0 0 0 0 0 0 0 0 0 0 0 0 0 0 0 127 0" result="hardAlpha"/>
<feOffset/>
<feGaussianBlur stdDeviation="2"/>
<feComposite in2="hardAlpha" operator="out"/>
<feColorMatrix type="matrix" values="0 0 0 0 0.231373 0 0 0 0 0.407843 0 0 0 0 1 0 0 0 0.1 0"/>
<feBlend mode="normal" in2="effect1_backgroundBlur_463_895" result="effect2_dropShadow_463_895"/>
<feBlend mode="normal" in="SourceGraphic" in2="effect2_dropShadow_463_895" result="shape"/>
<feColorMatrix in="SourceAlpha" type="matrix" values="0 0 0 0 0 0 0 0 0 0 0 0 0 0 0 0 0 0 127 0" result="hardAlpha"/>
<feOffset/>
<feGaussianBlur stdDeviation="1.5"/>
<feComposite in2="hardAlpha" operator="arithmetic" k2="-1" k3="1"/>
<feColorMatrix type="matrix" values="0 0 0 0 0.231373 0 0 0 0 0.407843 0 0 0 0 1 0 0 0 0.38 0"/>
<feBlend mode="normal" in2="shape" result="effect3_innerShadow_463_895"/>
</filter>
<linearGradient id="paint0_linear_463_895" x1="-1.2" y1="-4" x2="34.0169" y2="21.1278" gradientUnits="userSpaceOnUse">
<stop stop-color="#29EAC4" stop-opacity="0.5"/>
<stop offset="0.505208" stop-color="#12D8FA" stop-opacity="0.5"/>
<stop offset="1" stop-color="#0B2774" stop-opacity="0.5"/>
</linearGradient>
<linearGradient id="paint1_linear_463_895" x1="4.4" y1="7" x2="20.9186" y2="18.327" gradientUnits="userSpaceOnUse">
<stop stop-color="white" stop-opacity="0.15"/>
<stop offset="1" stop-color="white" stop-opacity="0.44"/>
</linearGradient>
<linearGradient id="paint2_linear_463_895" x1="8.2" y1="9.8" x2="17.3538" y2="15.0308" gradientUnits="userSpaceOnUse">
<stop stop-color="white" stop-opacity="0.15"/>
<stop offset="1" stop-color="white" stop-opacity="0.44"/>
</linearGradient>
</defs>
</svg>
