<svg width="26" height="25" viewBox="0 0 26 25" fill="none" xmlns="http://www.w3.org/2000/svg">
<g filter="url(#filter0_d_319_220)">
<path d="M12.0399 12.9602C13.4067 14.327 15.6228 14.327 16.9896 12.9602L20.5252 9.42462C21.892 8.05779 21.892 5.84171 20.5252 4.47487C19.1583 3.10804 16.9423 3.10804 15.5754 4.47487L13.8077 6.24264" stroke="#2AEAE7" stroke-width="1.5" stroke-linecap="round"/>
</g>
<g filter="url(#filter1_bdi_319_220)">
<path fill-rule="evenodd" clip-rule="evenodd" d="M11.8631 19.1471C10.2034 20.8069 7.51243 20.8069 5.85271 19.1471C4.19298 17.4874 4.19298 14.7965 5.85271 13.1367L9.38824 9.6012C11.048 7.94147 13.7389 7.94147 15.3986 9.6012C15.6915 9.89409 15.6915 10.369 15.3986 10.6619C15.1058 10.9548 14.6309 10.9548 14.338 10.6619C13.264 9.58792 11.5228 9.58792 10.4489 10.6619L6.91337 14.1974C5.83943 15.2713 5.83943 17.0125 6.91337 18.0865C7.98731 19.1604 9.72851 19.1604 10.8025 18.0865L12.5702 16.3187C12.8631 16.0258 13.338 16.0258 13.6309 16.3187C13.9238 16.6116 13.9238 17.0865 13.6309 17.3794L11.8631 19.1471Z" fill="url(#paint0_linear_319_220)" shape-rendering="crispEdges"/>
<path d="M11.7747 19.0588C10.1638 20.6697 7.55201 20.6697 5.94109 19.0588C4.33018 17.4478 4.33018 14.836 5.9411 13.2251L9.47663 9.68959C11.0875 8.07867 13.6993 8.07868 15.3103 9.68959C15.5543 9.93367 15.5543 10.3294 15.3103 10.5735C15.0662 10.8175 14.6705 10.8175 14.4264 10.5735C13.3036 9.45071 11.4833 9.45071 10.3605 10.5735L6.82498 14.109C5.70222 15.2318 5.70222 17.0521 6.82498 18.1749C7.94774 19.2976 9.76808 19.2976 10.8908 18.1749L12.6586 16.4071C12.9027 16.163 13.2984 16.163 13.5425 16.4071C13.7866 16.6512 13.7866 17.0469 13.5425 17.291L11.7747 19.0588Z" stroke="url(#paint1_linear_319_220)" stroke-opacity="0.7" stroke-width="0.25" stroke-linecap="round" shape-rendering="crispEdges"/>
</g>
<defs>
<filter id="filter0_d_319_220" x="9.28986" y="0.699707" width="15.0104" height="16.0356" filterUnits="userSpaceOnUse" color-interpolation-filters="sRGB">
<feFlood flood-opacity="0" result="BackgroundImageFix"/>
<feColorMatrix in="SourceAlpha" type="matrix" values="0 0 0 0 0 0 0 0 0 0 0 0 0 0 0 0 0 0 127 0" result="hardAlpha"/>
<feOffset/>
<feGaussianBlur stdDeviation="1"/>
<feComposite in2="hardAlpha" operator="out"/>
<feColorMatrix type="matrix" values="0 0 0 0 0.231373 0 0 0 0 0.407843 0 0 0 0 1 0 0 0 0.35 0"/>
<feBlend mode="normal" in2="BackgroundImageFix" result="effect1_dropShadow_319_220"/>
<feBlend mode="normal" in="SourceGraphic" in2="effect1_dropShadow_319_220" result="shape"/>
</filter>
<filter id="filter1_bdi_319_220" x="0.60791" y="4.35645" width="19.0104" height="20.0356" filterUnits="userSpaceOnUse" color-interpolation-filters="sRGB">
<feFlood flood-opacity="0" result="BackgroundImageFix"/>
<feGaussianBlur in="BackgroundImageFix" stdDeviation="1"/>
<feComposite in2="SourceAlpha" operator="in" result="effect1_backgroundBlur_319_220"/>
<feColorMatrix in="SourceAlpha" type="matrix" values="0 0 0 0 0 0 0 0 0 0 0 0 0 0 0 0 0 0 127 0" result="hardAlpha"/>
<feOffset/>
<feGaussianBlur stdDeviation="2"/>
<feComposite in2="hardAlpha" operator="out"/>
<feColorMatrix type="matrix" values="0 0 0 0 0.231373 0 0 0 0 0.407843 0 0 0 0 1 0 0 0 0.1 0"/>
<feBlend mode="normal" in2="effect1_backgroundBlur_319_220" result="effect2_dropShadow_319_220"/>
<feBlend mode="normal" in="SourceGraphic" in2="effect2_dropShadow_319_220" result="shape"/>
<feColorMatrix in="SourceAlpha" type="matrix" values="0 0 0 0 0 0 0 0 0 0 0 0 0 0 0 0 0 0 127 0" result="hardAlpha"/>
<feOffset/>
<feGaussianBlur stdDeviation="1.5"/>
<feComposite in2="hardAlpha" operator="arithmetic" k2="-1" k3="1"/>
<feColorMatrix type="matrix" values="0 0 0 0 0.231373 0 0 0 0 0.407843 0 0 0 0 1 0 0 0 0.38 0"/>
<feBlend mode="normal" in2="shape" result="effect3_innerShadow_319_220"/>
</filter>
<linearGradient id="paint0_linear_319_220" x1="6.99291" y1="27.9241" x2="0.338334" y2="4.22284" gradientUnits="userSpaceOnUse">
<stop stop-color="#29EAC4" stop-opacity="0.5"/>
<stop offset="0.505208" stop-color="#12D8FA" stop-opacity="0.5"/>
<stop offset="1" stop-color="#0B2774" stop-opacity="0.5"/>
</linearGradient>
<linearGradient id="paint1_linear_319_220" x1="10.1395" y1="20.5702" x2="6.88733" y2="9.69209" gradientUnits="userSpaceOnUse">
<stop stop-color="white" stop-opacity="0.15"/>
<stop offset="1" stop-color="white" stop-opacity="0.44"/>
</linearGradient>
</defs>
</svg>
