<svg width="24" height="25" viewBox="0 0 24 25" fill="none" xmlns="http://www.w3.org/2000/svg">
<path d="M7.25 10.5C7.25 10.9142 7.58579 11.25 8 11.25C8.41421 11.25 8.75 10.9142 8.75 10.5H7.25ZM14.6667 5.14229C14.9035 5.48217 15.3709 5.56575 15.7108 5.32899C16.0507 5.09222 16.1343 4.62476 15.8975 4.28489L14.6667 5.14229ZM8.27819 4.04862C8.02082 4.37318 8.07528 4.84492 8.39984 5.10228C8.72439 5.35965 9.19613 5.30519 9.4535 4.98064L8.27819 4.04862ZM8.75 10.5V7H7.25V10.5H8.75ZM8.75 7C8.75 5.20508 10.2051 3.75 12 3.75V2.25C9.37665 2.25 7.25 4.37665 7.25 7H8.75ZM15.8975 4.28489C15.331 3.4717 14.5244 2.85606 13.5905 2.52421L13.0883 3.93762C13.7272 4.16467 14.2791 4.5859 14.6667 5.14229L15.8975 4.28489ZM13.5905 2.52421C12.6567 2.19236 11.6424 2.16091 10.6898 2.43426L11.1036 3.87607C11.7554 3.68904 12.4493 3.71056 13.0883 3.93762L13.5905 2.52421ZM10.6898 2.43426C9.73722 2.70762 8.89397 3.27209 8.27819 4.04862L9.4535 4.98064C9.87482 4.44933 10.4518 4.06311 11.1036 3.87607L10.6898 2.43426Z" fill="#2AEAE7"/>
<g filter="url(#filter0_bdi_319_122)">
<rect x="4" y="9" width="16" height="12" rx="4" fill="url(#paint0_linear_319_122)" shape-rendering="crispEdges"/>
<rect x="4.125" y="9.125" width="15.75" height="11.75" rx="3.875" stroke="url(#paint1_linear_319_122)" stroke-opacity="0.7" stroke-width="0.25" shape-rendering="crispEdges"/>
</g>
<g filter="url(#filter1_d_319_122)">
<path d="M12 16L12 14" stroke="#2AEAE7" stroke-width="1.5" stroke-linecap="round" stroke-linejoin="round"/>
</g>
<defs>
<filter id="filter0_bdi_319_122" x="0" y="5" width="24" height="20" filterUnits="userSpaceOnUse" color-interpolation-filters="sRGB">
<feFlood flood-opacity="0" result="BackgroundImageFix"/>
<feGaussianBlur in="BackgroundImageFix" stdDeviation="1"/>
<feComposite in2="SourceAlpha" operator="in" result="effect1_backgroundBlur_319_122"/>
<feColorMatrix in="SourceAlpha" type="matrix" values="0 0 0 0 0 0 0 0 0 0 0 0 0 0 0 0 0 0 127 0" result="hardAlpha"/>
<feOffset/>
<feGaussianBlur stdDeviation="2"/>
<feComposite in2="hardAlpha" operator="out"/>
<feColorMatrix type="matrix" values="0 0 0 0 0.231373 0 0 0 0 0.407843 0 0 0 0 1 0 0 0 0.1 0"/>
<feBlend mode="normal" in2="effect1_backgroundBlur_319_122" result="effect2_dropShadow_319_122"/>
<feBlend mode="normal" in="SourceGraphic" in2="effect2_dropShadow_319_122" result="shape"/>
<feColorMatrix in="SourceAlpha" type="matrix" values="0 0 0 0 0 0 0 0 0 0 0 0 0 0 0 0 0 0 127 0" result="hardAlpha"/>
<feOffset/>
<feGaussianBlur stdDeviation="1.5"/>
<feComposite in2="hardAlpha" operator="arithmetic" k2="-1" k3="1"/>
<feColorMatrix type="matrix" values="0 0 0 0 0.231373 0 0 0 0 0.407843 0 0 0 0 1 0 0 0 0.38 0"/>
<feBlend mode="normal" in2="shape" result="effect3_innerShadow_319_122"/>
</filter>
<filter id="filter1_d_319_122" x="9.25" y="11.25" width="5.5" height="7.5" filterUnits="userSpaceOnUse" color-interpolation-filters="sRGB">
<feFlood flood-opacity="0" result="BackgroundImageFix"/>
<feColorMatrix in="SourceAlpha" type="matrix" values="0 0 0 0 0 0 0 0 0 0 0 0 0 0 0 0 0 0 127 0" result="hardAlpha"/>
<feOffset/>
<feGaussianBlur stdDeviation="1"/>
<feComposite in2="hardAlpha" operator="out"/>
<feColorMatrix type="matrix" values="0 0 0 0 0.231373 0 0 0 0 0.407843 0 0 0 0 1 0 0 0 0.35 0"/>
<feBlend mode="normal" in2="BackgroundImageFix" result="effect1_dropShadow_319_122"/>
<feBlend mode="normal" in="SourceGraphic" in2="effect1_dropShadow_319_122" result="shape"/>
</filter>
<linearGradient id="paint0_linear_319_122" x1="-1.2" y1="4.2" x2="20.8142" y2="30.379" gradientUnits="userSpaceOnUse">
<stop stop-color="#29EAC4" stop-opacity="0.5"/>
<stop offset="0.505208" stop-color="#12D8FA" stop-opacity="0.5"/>
<stop offset="1" stop-color="#0B2774" stop-opacity="0.5"/>
</linearGradient>
<linearGradient id="paint1_linear_319_122" x1="4.4" y1="10.8" x2="14.931" y2="22.8354" gradientUnits="userSpaceOnUse">
<stop stop-color="white" stop-opacity="0.15"/>
<stop offset="1" stop-color="white" stop-opacity="0.44"/>
</linearGradient>
</defs>
</svg>
