<svg width="26" height="28" viewBox="0 0 26 28" fill="none" xmlns="http://www.w3.org/2000/svg">
<g filter="url(#filter0_bdi_319_187)">
<path d="M18 4H13C10.7909 4 9 5.79086 9 8V10V18V20C9 22.2091 10.7909 24 13 24H18C20.2091 24 22 22.2091 22 20V8C22 5.79086 20.2091 4 18 4Z" fill="url(#paint0_linear_319_187)" shape-rendering="crispEdges"/>
<path d="M13 4.125H18C20.1401 4.125 21.875 5.8599 21.875 8V20C21.875 22.1401 20.1401 23.875 18 23.875H13C10.8599 23.875 9.125 22.1401 9.125 20V18V10V8C9.125 5.8599 10.8599 4.125 13 4.125Z" stroke="url(#paint1_linear_319_187)" stroke-opacity="0.7" stroke-width="0.25" shape-rendering="crispEdges"/>
</g>
<path d="M14 17L16.2929 14.7071C16.6834 14.3166 16.6834 13.6834 16.2929 13.2929L14 11" stroke="#2AEAE7" stroke-width="1.5" stroke-linecap="round"/>
<path d="M16 14L4 14" stroke="#2AEAE7" stroke-width="1.5" stroke-linecap="round"/>
<defs>
<filter id="filter0_bdi_319_187" x="5" y="0" width="21" height="28" filterUnits="userSpaceOnUse" color-interpolation-filters="sRGB">
<feFlood flood-opacity="0" result="BackgroundImageFix"/>
<feGaussianBlur in="BackgroundImageFix" stdDeviation="1"/>
<feComposite in2="SourceAlpha" operator="in" result="effect1_backgroundBlur_319_187"/>
<feColorMatrix in="SourceAlpha" type="matrix" values="0 0 0 0 0 0 0 0 0 0 0 0 0 0 0 0 0 0 127 0" result="hardAlpha"/>
<feOffset/>
<feGaussianBlur stdDeviation="2"/>
<feComposite in2="hardAlpha" operator="out"/>
<feColorMatrix type="matrix" values="0 0 0 0 0.231373 0 0 0 0 0.407843 0 0 0 0 1 0 0 0 0.1 0"/>
<feBlend mode="normal" in2="effect1_backgroundBlur_319_187" result="effect2_dropShadow_319_187"/>
<feBlend mode="normal" in="SourceGraphic" in2="effect2_dropShadow_319_187" result="shape"/>
<feColorMatrix in="SourceAlpha" type="matrix" values="0 0 0 0 0 0 0 0 0 0 0 0 0 0 0 0 0 0 127 0" result="hardAlpha"/>
<feOffset/>
<feGaussianBlur stdDeviation="1.5"/>
<feComposite in2="hardAlpha" operator="arithmetic" k2="-1" k3="1"/>
<feColorMatrix type="matrix" values="0 0 0 0 0.231373 0 0 0 0 0.407843 0 0 0 0 1 0 0 0 0.38 0"/>
<feBlend mode="normal" in2="shape" result="effect3_innerShadow_319_187"/>
</filter>
<linearGradient id="paint0_linear_319_187" x1="4.775" y1="-4" x2="37.0941" y2="14.7363" gradientUnits="userSpaceOnUse">
<stop stop-color="#29EAC4" stop-opacity="0.5"/>
<stop offset="0.505208" stop-color="#12D8FA" stop-opacity="0.5"/>
<stop offset="1" stop-color="#0B2774" stop-opacity="0.5"/>
</linearGradient>
<linearGradient id="paint1_linear_319_187" x1="9.325" y1="7" x2="24.383" y2="15.3895" gradientUnits="userSpaceOnUse">
<stop stop-color="white" stop-opacity="0.15"/>
<stop offset="1" stop-color="white" stop-opacity="0.44"/>
</linearGradient>
</defs>
</svg>
