<svg width="26" height="28" viewBox="0 0 26 28" fill="none" xmlns="http://www.w3.org/2000/svg">
<g filter="url(#filter0_bdi_319_188)">
<path d="M13 4H8C5.79086 4 4 5.79086 4 8V10V18V20C4 22.2091 5.79086 24 8 24H13C15.2091 24 17 22.2091 17 20V8C17 5.79086 15.2091 4 13 4Z" fill="url(#paint0_linear_319_188)" shape-rendering="crispEdges"/>
<path d="M8 4.125H13C15.1401 4.125 16.875 5.8599 16.875 8V20C16.875 22.1401 15.1401 23.875 13 23.875H8C5.8599 23.875 4.125 22.1401 4.125 20V18V10V8C4.125 5.8599 5.8599 4.125 8 4.125Z" stroke="url(#paint1_linear_319_188)" stroke-opacity="0.7" stroke-width="0.25" shape-rendering="crispEdges"/>
</g>
<g filter="url(#filter1_d_319_188)">
<path d="M20 17L22.2929 14.7071C22.6834 14.3166 22.6834 13.6834 22.2929 13.2929L20 11" stroke="#2AEAE7" stroke-width="1.5" stroke-linecap="round"/>
<path d="M22 14L10 14" stroke="#2AEAE7" stroke-width="1.5" stroke-linecap="round"/>
</g>
<defs>
<filter id="filter0_bdi_319_188" x="0" y="0" width="21" height="28" filterUnits="userSpaceOnUse" color-interpolation-filters="sRGB">
<feFlood flood-opacity="0" result="BackgroundImageFix"/>
<feGaussianBlur in="BackgroundImageFix" stdDeviation="1"/>
<feComposite in2="SourceAlpha" operator="in" result="effect1_backgroundBlur_319_188"/>
<feColorMatrix in="SourceAlpha" type="matrix" values="0 0 0 0 0 0 0 0 0 0 0 0 0 0 0 0 0 0 127 0" result="hardAlpha"/>
<feOffset/>
<feGaussianBlur stdDeviation="2"/>
<feComposite in2="hardAlpha" operator="out"/>
<feColorMatrix type="matrix" values="0 0 0 0 0.231373 0 0 0 0 0.407843 0 0 0 0 1 0 0 0 0.1 0"/>
<feBlend mode="normal" in2="effect1_backgroundBlur_319_188" result="effect2_dropShadow_319_188"/>
<feBlend mode="normal" in="SourceGraphic" in2="effect2_dropShadow_319_188" result="shape"/>
<feColorMatrix in="SourceAlpha" type="matrix" values="0 0 0 0 0 0 0 0 0 0 0 0 0 0 0 0 0 0 127 0" result="hardAlpha"/>
<feOffset/>
<feGaussianBlur stdDeviation="1.5"/>
<feComposite in2="hardAlpha" operator="arithmetic" k2="-1" k3="1"/>
<feColorMatrix type="matrix" values="0 0 0 0 0.231373 0 0 0 0 0.407843 0 0 0 0 1 0 0 0 0.38 0"/>
<feBlend mode="normal" in2="shape" result="effect3_innerShadow_319_188"/>
</filter>
<filter id="filter1_d_319_188" x="7.25" y="8.25" width="18.0858" height="11.5" filterUnits="userSpaceOnUse" color-interpolation-filters="sRGB">
<feFlood flood-opacity="0" result="BackgroundImageFix"/>
<feColorMatrix in="SourceAlpha" type="matrix" values="0 0 0 0 0 0 0 0 0 0 0 0 0 0 0 0 0 0 127 0" result="hardAlpha"/>
<feOffset/>
<feGaussianBlur stdDeviation="1"/>
<feComposite in2="hardAlpha" operator="out"/>
<feColorMatrix type="matrix" values="0 0 0 0 0.231373 0 0 0 0 0.407843 0 0 0 0 1 0 0 0 0.35 0"/>
<feBlend mode="normal" in2="BackgroundImageFix" result="effect1_dropShadow_319_188"/>
<feBlend mode="normal" in="SourceGraphic" in2="effect1_dropShadow_319_188" result="shape"/>
</filter>
<linearGradient id="paint0_linear_319_188" x1="-0.225" y1="-4" x2="32.0941" y2="14.7363" gradientUnits="userSpaceOnUse">
<stop stop-color="#29EAC4" stop-opacity="0.5"/>
<stop offset="0.505208" stop-color="#12D8FA" stop-opacity="0.5"/>
<stop offset="1" stop-color="#0B2774" stop-opacity="0.5"/>
</linearGradient>
<linearGradient id="paint1_linear_319_188" x1="4.325" y1="7" x2="19.383" y2="15.3895" gradientUnits="userSpaceOnUse">
<stop stop-color="white" stop-opacity="0.15"/>
<stop offset="1" stop-color="white" stop-opacity="0.44"/>
</linearGradient>
</defs>
</svg>
