<svg width="28" height="27" viewBox="0 0 28 27" fill="none" xmlns="http://www.w3.org/2000/svg">
<g filter="url(#filter0_bdi_319_159)">
<mask id="path-1-inside-1_319_159" fill="white">
<path fill-rule="evenodd" clip-rule="evenodd" d="M9 4C6.23858 4 4 6.23858 4 9V14.5V15V21.9194C4 22.7579 4.96993 23.2241 5.6247 22.7002L8.45217 20.4383C8.8068 20.1546 9.24742 20 9.70156 20H19C21.7614 20 24 17.7614 24 15V9C24 6.23858 21.7614 4 19 4H9Z"/>
</mask>
<path fill-rule="evenodd" clip-rule="evenodd" d="M9 4C6.23858 4 4 6.23858 4 9V14.5V15V21.9194C4 22.7579 4.96993 23.2241 5.6247 22.7002L8.45217 20.4383C8.8068 20.1546 9.24742 20 9.70156 20H19C21.7614 20 24 17.7614 24 15V9C24 6.23858 21.7614 4 19 4H9Z" fill="url(#paint0_linear_319_159)" shape-rendering="crispEdges"/>
<path d="M5.6247 22.7002L5.46852 22.505H5.46852L5.6247 22.7002ZM8.45217 20.4383L8.296 20.243L8.45217 20.4383ZM4.25 9C4.25 6.37665 6.37665 4.25 9 4.25V3.75C6.10051 3.75 3.75 6.10051 3.75 9H4.25ZM4.25 14.5V9H3.75V14.5H4.25ZM4.25 15V14.5H3.75V15H4.25ZM4.25 21.9194V15H3.75V21.9194H4.25ZM5.46852 22.505C4.97745 22.8979 4.25 22.5483 4.25 21.9194H3.75C3.75 22.9675 4.96242 23.5502 5.78087 22.8955L5.46852 22.505ZM8.296 20.243L5.46852 22.505L5.78087 22.8955L8.60835 20.6335L8.296 20.243ZM19 19.75H9.70156V20.25H19V19.75ZM23.75 15C23.75 17.6234 21.6234 19.75 19 19.75V20.25C21.8995 20.25 24.25 17.8995 24.25 15H23.75ZM23.75 9V15H24.25V9H23.75ZM19 4.25C21.6234 4.25 23.75 6.37665 23.75 9H24.25C24.25 6.10051 21.8995 3.75 19 3.75V4.25ZM9 4.25H19V3.75H9V4.25ZM8.60835 20.6335C8.91864 20.3852 9.30419 20.25 9.70156 20.25V19.75C9.19065 19.75 8.69495 19.9239 8.296 20.243L8.60835 20.6335Z" fill="url(#paint1_linear_319_159)" fill-opacity="0.7" mask="url(#path-1-inside-1_319_159)"/>
</g>
<g filter="url(#filter1_d_319_159)">
<circle cx="9.05005" cy="12.0498" r="1.25" fill="#2AEAE7"/>
<circle cx="14.05" cy="12.0498" r="1.25" fill="#2AEAE7"/>
<circle cx="19.05" cy="12.0498" r="1.25" fill="#2AEAE7"/>
</g>
<defs>
<filter id="filter0_bdi_319_159" x="0" y="0" width="28" height="26.9214" filterUnits="userSpaceOnUse" color-interpolation-filters="sRGB">
<feFlood flood-opacity="0" result="BackgroundImageFix"/>
<feGaussianBlur in="BackgroundImageFix" stdDeviation="1"/>
<feComposite in2="SourceAlpha" operator="in" result="effect1_backgroundBlur_319_159"/>
<feColorMatrix in="SourceAlpha" type="matrix" values="0 0 0 0 0 0 0 0 0 0 0 0 0 0 0 0 0 0 127 0" result="hardAlpha"/>
<feOffset/>
<feGaussianBlur stdDeviation="2"/>
<feComposite in2="hardAlpha" operator="out"/>
<feColorMatrix type="matrix" values="0 0 0 0 0.231373 0 0 0 0 0.407843 0 0 0 0 1 0 0 0 0.1 0"/>
<feBlend mode="normal" in2="effect1_backgroundBlur_319_159" result="effect2_dropShadow_319_159"/>
<feBlend mode="normal" in="SourceGraphic" in2="effect2_dropShadow_319_159" result="shape"/>
<feColorMatrix in="SourceAlpha" type="matrix" values="0 0 0 0 0 0 0 0 0 0 0 0 0 0 0 0 0 0 127 0" result="hardAlpha"/>
<feOffset/>
<feGaussianBlur stdDeviation="1.5"/>
<feComposite in2="hardAlpha" operator="arithmetic" k2="-1" k3="1"/>
<feColorMatrix type="matrix" values="0 0 0 0 0.231373 0 0 0 0 0.407843 0 0 0 0 1 0 0 0 0.38 0"/>
<feBlend mode="normal" in2="shape" result="effect3_innerShadow_319_159"/>
</filter>
<filter id="filter1_d_319_159" x="5.80005" y="8.7998" width="16.5" height="6.5" filterUnits="userSpaceOnUse" color-interpolation-filters="sRGB">
<feFlood flood-opacity="0" result="BackgroundImageFix"/>
<feColorMatrix in="SourceAlpha" type="matrix" values="0 0 0 0 0 0 0 0 0 0 0 0 0 0 0 0 0 0 127 0" result="hardAlpha"/>
<feOffset/>
<feGaussianBlur stdDeviation="1"/>
<feComposite in2="hardAlpha" operator="out"/>
<feColorMatrix type="matrix" values="0 0 0 0 0.231373 0 0 0 0 0.407843 0 0 0 0 1 0 0 0 0.35 0"/>
<feBlend mode="normal" in2="BackgroundImageFix" result="effect1_dropShadow_319_159"/>
<feBlend mode="normal" in="SourceGraphic" in2="effect1_dropShadow_319_159" result="shape"/>
</filter>
<linearGradient id="paint0_linear_319_159" x1="-2.5" y1="-3.5685" x2="32.6725" y2="29.5901" gradientUnits="userSpaceOnUse">
<stop stop-color="#29EAC4" stop-opacity="0.5"/>
<stop offset="0.505208" stop-color="#12D8FA" stop-opacity="0.5"/>
<stop offset="1" stop-color="#0B2774" stop-opacity="0.5"/>
</linearGradient>
<linearGradient id="paint1_linear_319_159" x1="4.5" y1="6.83819" x2="21.1719" y2="21.9431" gradientUnits="userSpaceOnUse">
<stop stop-color="white" stop-opacity="0.15"/>
<stop offset="1" stop-color="white" stop-opacity="0.44"/>
</linearGradient>
</defs>
</svg>
