<svg width="28" height="28" viewBox="0 0 28 28" fill="none" xmlns="http://www.w3.org/2000/svg">
<g filter="url(#filter0_bdi_319_116)">
<rect x="24" y="14" width="10" height="20" rx="3" transform="rotate(90 24 14)" fill="url(#paint0_linear_319_116)" shape-rendering="crispEdges"/>
<rect x="23.875" y="14.125" width="9.75" height="19.75" rx="2.875" transform="rotate(90 23.875 14.125)" stroke="url(#paint1_linear_319_116)" stroke-opacity="0.7" stroke-width="0.25" shape-rendering="crispEdges"/>
</g>
<rect x="17.1421" y="4" width="10" height="20" rx="3" transform="rotate(45 17.1421 4)" fill="#2AEAE7"/>
<g filter="url(#filter1_bdi_319_116)">
<mask id="path-4-inside-1_319_116" fill="white">
<path fill-rule="evenodd" clip-rule="evenodd" d="M7 4C5.34315 4 4 5.34315 4 7V21C4 22.6569 5.34315 24 7 24H11C12.6569 24 14 22.6569 14 21V7C14 5.34315 12.6569 4 11 4H7ZM9 21C9.55228 21 10 20.5523 10 20C10 19.4477 9.55228 19 9 19C8.44772 19 8 19.4477 8 20C8 20.5523 8.44772 21 9 21Z"/>
</mask>
<path fill-rule="evenodd" clip-rule="evenodd" d="M7 4C5.34315 4 4 5.34315 4 7V21C4 22.6569 5.34315 24 7 24H11C12.6569 24 14 22.6569 14 21V7C14 5.34315 12.6569 4 11 4H7ZM9 21C9.55228 21 10 20.5523 10 20C10 19.4477 9.55228 19 9 19C8.44772 19 8 19.4477 8 20C8 20.5523 8.44772 21 9 21Z" fill="url(#paint2_linear_319_116)" shape-rendering="crispEdges"/>
<path d="M4.25 7C4.25 5.48122 5.48122 4.25 7 4.25V3.75C5.20507 3.75 3.75 5.20507 3.75 7H4.25ZM4.25 21V7H3.75V21H4.25ZM7 23.75C5.48122 23.75 4.25 22.5188 4.25 21H3.75C3.75 22.7949 5.20507 24.25 7 24.25V23.75ZM11 23.75H7V24.25H11V23.75ZM13.75 21C13.75 22.5188 12.5188 23.75 11 23.75V24.25C12.7949 24.25 14.25 22.7949 14.25 21H13.75ZM13.75 7V21H14.25V7H13.75ZM11 4.25C12.5188 4.25 13.75 5.48122 13.75 7H14.25C14.25 5.20507 12.7949 3.75 11 3.75V4.25ZM7 4.25H11V3.75H7V4.25ZM9.75 20C9.75 20.4142 9.41421 20.75 9 20.75V21.25C9.69036 21.25 10.25 20.6904 10.25 20H9.75ZM9 19.25C9.41421 19.25 9.75 19.5858 9.75 20H10.25C10.25 19.3096 9.69036 18.75 9 18.75V19.25ZM8.25 20C8.25 19.5858 8.58579 19.25 9 19.25V18.75C8.30964 18.75 7.75 19.3096 7.75 20H8.25ZM9 20.75C8.58579 20.75 8.25 20.4142 8.25 20H7.75C7.75 20.6904 8.30964 21.25 9 21.25V20.75Z" fill="url(#paint3_linear_319_116)" fill-opacity="0.7" mask="url(#path-4-inside-1_319_116)"/>
</g>
<defs>
<filter id="filter0_bdi_319_116" x="0" y="10" width="28" height="18" filterUnits="userSpaceOnUse" color-interpolation-filters="sRGB">
<feFlood flood-opacity="0" result="BackgroundImageFix"/>
<feGaussianBlur in="BackgroundImageFix" stdDeviation="1"/>
<feComposite in2="SourceAlpha" operator="in" result="effect1_backgroundBlur_319_116"/>
<feColorMatrix in="SourceAlpha" type="matrix" values="0 0 0 0 0 0 0 0 0 0 0 0 0 0 0 0 0 0 127 0" result="hardAlpha"/>
<feOffset/>
<feGaussianBlur stdDeviation="2"/>
<feComposite in2="hardAlpha" operator="out"/>
<feColorMatrix type="matrix" values="0 0 0 0 0.231373 0 0 0 0 0.407843 0 0 0 0 1 0 0 0 0.1 0"/>
<feBlend mode="normal" in2="effect1_backgroundBlur_319_116" result="effect2_dropShadow_319_116"/>
<feBlend mode="normal" in="SourceGraphic" in2="effect2_dropShadow_319_116" result="shape"/>
<feColorMatrix in="SourceAlpha" type="matrix" values="0 0 0 0 0 0 0 0 0 0 0 0 0 0 0 0 0 0 127 0" result="hardAlpha"/>
<feOffset/>
<feGaussianBlur stdDeviation="1.5"/>
<feComposite in2="hardAlpha" operator="arithmetic" k2="-1" k3="1"/>
<feColorMatrix type="matrix" values="0 0 0 0 0.231373 0 0 0 0 0.407843 0 0 0 0 1 0 0 0 0.38 0"/>
<feBlend mode="normal" in2="shape" result="effect3_innerShadow_319_116"/>
</filter>
<filter id="filter1_bdi_319_116" x="0" y="0" width="18" height="28" filterUnits="userSpaceOnUse" color-interpolation-filters="sRGB">
<feFlood flood-opacity="0" result="BackgroundImageFix"/>
<feGaussianBlur in="BackgroundImageFix" stdDeviation="1"/>
<feComposite in2="SourceAlpha" operator="in" result="effect1_backgroundBlur_319_116"/>
<feColorMatrix in="SourceAlpha" type="matrix" values="0 0 0 0 0 0 0 0 0 0 0 0 0 0 0 0 0 0 127 0" result="hardAlpha"/>
<feOffset/>
<feGaussianBlur stdDeviation="2"/>
<feComposite in2="hardAlpha" operator="out"/>
<feColorMatrix type="matrix" values="0 0 0 0 0.231373 0 0 0 0 0.407843 0 0 0 0 1 0 0 0 0.1 0"/>
<feBlend mode="normal" in2="effect1_backgroundBlur_319_116" result="effect2_dropShadow_319_116"/>
<feBlend mode="normal" in="SourceGraphic" in2="effect2_dropShadow_319_116" result="shape"/>
<feColorMatrix in="SourceAlpha" type="matrix" values="0 0 0 0 0 0 0 0 0 0 0 0 0 0 0 0 0 0 127 0" result="hardAlpha"/>
<feOffset/>
<feGaussianBlur stdDeviation="1.5"/>
<feComposite in2="hardAlpha" operator="arithmetic" k2="-1" k3="1"/>
<feColorMatrix type="matrix" values="0 0 0 0 0.231373 0 0 0 0 0.407843 0 0 0 0 1 0 0 0 0.38 0"/>
<feBlend mode="normal" in2="shape" result="effect3_innerShadow_319_116"/>
</filter>
<linearGradient id="paint0_linear_319_116" x1="20.75" y1="6" x2="48.4563" y2="18.3555" gradientUnits="userSpaceOnUse">
<stop stop-color="#29EAC4" stop-opacity="0.5"/>
<stop offset="0.505208" stop-color="#12D8FA" stop-opacity="0.5"/>
<stop offset="1" stop-color="#0B2774" stop-opacity="0.5"/>
</linearGradient>
<linearGradient id="paint1_linear_319_116" x1="24.25" y1="17" x2="37.0733" y2="22.4957" gradientUnits="userSpaceOnUse">
<stop stop-color="white" stop-opacity="0.15"/>
<stop offset="1" stop-color="white" stop-opacity="0.44"/>
</linearGradient>
<linearGradient id="paint2_linear_319_116" x1="0.75" y1="-4" x2="28.4563" y2="8.35552" gradientUnits="userSpaceOnUse">
<stop stop-color="#29EAC4" stop-opacity="0.5"/>
<stop offset="0.505208" stop-color="#12D8FA" stop-opacity="0.5"/>
<stop offset="1" stop-color="#0B2774" stop-opacity="0.5"/>
</linearGradient>
<linearGradient id="paint3_linear_319_116" x1="4.25" y1="7" x2="17.0733" y2="12.4957" gradientUnits="userSpaceOnUse">
<stop stop-color="white" stop-opacity="0.15"/>
<stop offset="1" stop-color="white" stop-opacity="0.44"/>
</linearGradient>
</defs>
</svg>
