<svg width="25" height="25" viewBox="0 0 25 25" fill="none" xmlns="http://www.w3.org/2000/svg">
<g filter="url(#filter0_bdi_319_117)">
<path fill-rule="evenodd" clip-rule="evenodd" d="M10.7777 8.71774L6.71186 12.7836C5.2474 14.2481 5.2474 16.6224 6.71186 18.0869C8.17633 19.5514 10.5507 19.5514 12.0152 18.0869L18.7327 11.3694C19.0256 11.0765 19.5004 11.0765 19.7933 11.3694C20.0862 11.6623 20.0862 12.1372 19.7933 12.43L13.0758 19.1476C11.0256 21.1978 7.70146 21.1978 5.6512 19.1476C3.60095 17.0973 3.60095 13.7732 5.6512 11.7229L9.71707 7.65708L10.7777 8.71774Z" fill="url(#paint0_linear_319_117)" shape-rendering="crispEdges"/>
<path d="M10.601 8.71774L6.62348 12.6952C5.11019 14.2085 5.11019 16.662 6.62348 18.1753C8.13676 19.6886 10.5903 19.6886 12.1036 18.1753L18.8211 11.4578C19.0651 11.2137 19.4609 11.2137 19.705 11.4578C19.949 11.7019 19.949 12.0976 19.705 12.3417L12.9874 19.0592C10.986 21.0606 7.74103 21.0606 5.73959 19.0592C3.73815 17.0577 3.73816 13.8128 5.73959 11.8113L9.71707 7.83385L10.601 8.71774Z" stroke="url(#paint1_linear_319_117)" stroke-opacity="0.7" stroke-width="0.25" stroke-linecap="round" shape-rendering="crispEdges"/>
</g>
<g filter="url(#filter1_d_319_117)">
<path d="M15.0207 7.65685L8.20219 14.4754C7.61641 15.0612 7.61641 16.0109 8.20219 16.5967V16.5967C8.78798 17.1825 9.73773 17.1825 10.3235 16.5967L18.5563 8.36396C19.7278 7.19239 19.7278 5.29289 18.5563 4.12132V4.12132C17.3847 2.94975 15.4852 2.94975 14.3136 4.12132L9.71742 8.71751" stroke="#2AEAE7" stroke-width="1.5" stroke-linecap="round"/>
</g>
<defs>
<filter id="filter0_bdi_319_117" x="0.113525" y="3.65723" width="23.8995" height="21.0278" filterUnits="userSpaceOnUse" color-interpolation-filters="sRGB">
<feFlood flood-opacity="0" result="BackgroundImageFix"/>
<feGaussianBlur in="BackgroundImageFix" stdDeviation="1"/>
<feComposite in2="SourceAlpha" operator="in" result="effect1_backgroundBlur_319_117"/>
<feColorMatrix in="SourceAlpha" type="matrix" values="0 0 0 0 0 0 0 0 0 0 0 0 0 0 0 0 0 0 127 0" result="hardAlpha"/>
<feOffset/>
<feGaussianBlur stdDeviation="2"/>
<feComposite in2="hardAlpha" operator="out"/>
<feColorMatrix type="matrix" values="0 0 0 0 0.231373 0 0 0 0 0.407843 0 0 0 0 1 0 0 0 0.1 0"/>
<feBlend mode="normal" in2="effect1_backgroundBlur_319_117" result="effect2_dropShadow_319_117"/>
<feBlend mode="normal" in="SourceGraphic" in2="effect2_dropShadow_319_117" result="shape"/>
<feColorMatrix in="SourceAlpha" type="matrix" values="0 0 0 0 0 0 0 0 0 0 0 0 0 0 0 0 0 0 127 0" result="hardAlpha"/>
<feOffset/>
<feGaussianBlur stdDeviation="1.5"/>
<feComposite in2="hardAlpha" operator="arithmetic" k2="-1" k3="1"/>
<feColorMatrix type="matrix" values="0 0 0 0 0.231373 0 0 0 0 0.407843 0 0 0 0 1 0 0 0 0.38 0"/>
<feBlend mode="normal" in2="shape" result="effect3_innerShadow_319_117"/>
</filter>
<filter id="filter1_d_319_117" x="5.01282" y="0.492676" width="17.1721" height="19.2935" filterUnits="userSpaceOnUse" color-interpolation-filters="sRGB">
<feFlood flood-opacity="0" result="BackgroundImageFix"/>
<feColorMatrix in="SourceAlpha" type="matrix" values="0 0 0 0 0 0 0 0 0 0 0 0 0 0 0 0 0 0 127 0" result="hardAlpha"/>
<feOffset/>
<feGaussianBlur stdDeviation="1"/>
<feComposite in2="hardAlpha" operator="out"/>
<feColorMatrix type="matrix" values="0 0 0 0 0.231373 0 0 0 0 0.407843 0 0 0 0 1 0 0 0 0.35 0"/>
<feBlend mode="normal" in2="BackgroundImageFix" result="effect1_dropShadow_319_117"/>
<feBlend mode="normal" in="SourceGraphic" in2="effect1_dropShadow_319_117" result="shape"/>
</filter>
<linearGradient id="paint0_linear_319_117" x1="14.8701" y1="-2.32197" x2="22.0212" y2="26.6604" gradientUnits="userSpaceOnUse">
<stop stop-color="#29EAC4" stop-opacity="0.5"/>
<stop offset="0.505208" stop-color="#12D8FA" stop-opacity="0.5"/>
<stop offset="1" stop-color="#0B2774" stop-opacity="0.5"/>
</linearGradient>
<linearGradient id="paint1_linear_319_117" x1="11.4406" y1="6.30474" x2="14.975" y2="19.6264" gradientUnits="userSpaceOnUse">
<stop stop-color="white" stop-opacity="0.15"/>
<stop offset="1" stop-color="white" stop-opacity="0.44"/>
</linearGradient>
</defs>
</svg>
