<svg width="24" height="28" viewBox="0 0 24 28" fill="none" xmlns="http://www.w3.org/2000/svg">
<g filter="url(#filter0_bdi_319_210)">
<path d="M13.9933 5.27396C14.5008 5.27396 14.9319 4.9658 15.1289 4.53224C15.2492 4.26728 15.493 4.02551 15.7742 4.10041C17.0558 4.44179 18 5.61041 18 6.99955V20.9995C18 22.6564 16.6569 23.9995 15 23.9995H9C7.34315 23.9995 6 22.6564 6 20.9995V6.99955C6 5.61865 6.93299 4.45566 8.203 4.10657C8.4872 4.02845 8.73465 4.27587 8.85941 4.54292C9.05935 4.97093 9.49552 5.27396 9.99328 5.27396H13.9933Z" fill="url(#paint0_linear_319_210)" shape-rendering="crispEdges"/>
<path d="M13.9933 5.39896C14.5534 5.39896 15.027 5.05881 15.2427 4.58393C15.2965 4.46544 15.376 4.35726 15.4667 4.28851C15.5556 4.2212 15.6478 4.19609 15.742 4.2212C16.9703 4.54836 17.875 5.66846 17.875 6.99955V20.9995C17.875 22.5874 16.5878 23.8745 15 23.8745H9C7.41218 23.8745 6.125 22.5874 6.125 20.9995V6.99955C6.125 5.67636 7.01899 4.56166 8.23613 4.2271C8.33119 4.20097 8.42468 4.22623 8.51558 4.29499C8.60837 4.36519 8.69001 4.47564 8.74615 4.59582C8.96533 5.065 9.44394 5.39896 9.99328 5.39896H13.9933Z" stroke="url(#paint1_linear_319_210)" stroke-opacity="0.7" stroke-width="0.25" shape-rendering="crispEdges"/>
</g>
<defs>
<filter id="filter0_bdi_319_210" x="2" y="0.0864258" width="20" height="27.9131" filterUnits="userSpaceOnUse" color-interpolation-filters="sRGB">
<feFlood flood-opacity="0" result="BackgroundImageFix"/>
<feGaussianBlur in="BackgroundImageFix" stdDeviation="1"/>
<feComposite in2="SourceAlpha" operator="in" result="effect1_backgroundBlur_319_210"/>
<feColorMatrix in="SourceAlpha" type="matrix" values="0 0 0 0 0 0 0 0 0 0 0 0 0 0 0 0 0 0 127 0" result="hardAlpha"/>
<feOffset/>
<feGaussianBlur stdDeviation="2"/>
<feComposite in2="hardAlpha" operator="out"/>
<feColorMatrix type="matrix" values="0 0 0 0 0.231373 0 0 0 0 0.407843 0 0 0 0 1 0 0 0 0.1 0"/>
<feBlend mode="normal" in2="effect1_backgroundBlur_319_210" result="effect2_dropShadow_319_210"/>
<feBlend mode="normal" in="SourceGraphic" in2="effect2_dropShadow_319_210" result="shape"/>
<feColorMatrix in="SourceAlpha" type="matrix" values="0 0 0 0 0 0 0 0 0 0 0 0 0 0 0 0 0 0 127 0" result="hardAlpha"/>
<feOffset/>
<feGaussianBlur stdDeviation="1.5"/>
<feComposite in2="hardAlpha" operator="arithmetic" k2="-1" k3="1"/>
<feColorMatrix type="matrix" values="0 0 0 0 0.231373 0 0 0 0 0.407843 0 0 0 0 1 0 0 0 0.38 0"/>
<feBlend mode="normal" in2="shape" result="effect3_innerShadow_319_210"/>
</filter>
<linearGradient id="paint0_linear_319_210" x1="2.1" y1="-3.98683" x2="33.0793" y2="12.5993" gradientUnits="userSpaceOnUse">
<stop stop-color="#29EAC4" stop-opacity="0.5"/>
<stop offset="0.505208" stop-color="#12D8FA" stop-opacity="0.5"/>
<stop offset="1" stop-color="#0B2774" stop-opacity="0.5"/>
</linearGradient>
<linearGradient id="paint1_linear_319_210" x1="6.3" y1="7.00782" x2="20.7015" y2="14.4179" gradientUnits="userSpaceOnUse">
<stop stop-color="white" stop-opacity="0.15"/>
<stop offset="1" stop-color="white" stop-opacity="0.44"/>
</linearGradient>
</defs>
</svg>
