<svg width="24" height="24" viewBox="0 0 24 24" fill="none" xmlns="http://www.w3.org/2000/svg">
<g filter="url(#filter0_bdi_319_38)">
<path fill-rule="evenodd" clip-rule="evenodd" d="M15.2498 12.25C14.9353 12.5196 14.4618 12.4831 14.1923 12.1687L8.18014 5.23811C7.91057 4.92361 7.94699 4.45014 8.26149 4.18057C8.57598 3.911 9.04945 3.94743 9.31902 4.26192L15.3311 11.1925C15.6007 11.507 15.5643 11.9804 15.2498 12.25Z" fill="url(#paint0_linear_319_38)" shape-rendering="crispEdges"/>
<path d="M14.2872 12.0873L14.2867 12.0867L8.27504 5.15676C8.27497 5.15667 8.27489 5.15658 8.27482 5.15649C8.05043 4.89441 8.08084 4.50004 8.34283 4.27548C8.60491 4.05084 8.99948 4.08119 9.22411 4.34327L9.2246 4.34383L15.2362 11.2738C15.2363 11.2739 15.2364 11.274 15.2365 11.2741C15.4609 11.5362 15.4304 11.9305 15.1684 12.1551C14.9064 12.3797 14.5118 12.3494 14.2872 12.0873Z" stroke="url(#paint1_linear_319_38)" stroke-opacity="0.7" stroke-width="0.25" stroke-linecap="round" shape-rendering="crispEdges"/>
</g>
<g filter="url(#filter1_d_319_38)">
<path d="M14.749 11.75L8.74902 18.75" stroke="#2AEAE7" stroke-width="1.5" stroke-linecap="round"/>
</g>
<defs>
<filter id="filter0_bdi_319_38" x="3.99951" y="0" width="15.5122" height="16.4307" filterUnits="userSpaceOnUse" color-interpolation-filters="sRGB">
<feFlood flood-opacity="0" result="BackgroundImageFix"/>
<feGaussianBlur in="BackgroundImageFix" stdDeviation="1"/>
<feComposite in2="SourceAlpha" operator="in" result="effect1_backgroundBlur_319_38"/>
<feColorMatrix in="SourceAlpha" type="matrix" values="0 0 0 0 0 0 0 0 0 0 0 0 0 0 0 0 0 0 127 0" result="hardAlpha"/>
<feOffset/>
<feGaussianBlur stdDeviation="2"/>
<feComposite in2="hardAlpha" operator="out"/>
<feColorMatrix type="matrix" values="0 0 0 0 0.231373 0 0 0 0 0.407843 0 0 0 0 1 0 0 0 0.1 0"/>
<feBlend mode="normal" in2="effect1_backgroundBlur_319_38" result="effect2_dropShadow_319_38"/>
<feBlend mode="normal" in="SourceGraphic" in2="effect2_dropShadow_319_38" result="shape"/>
<feColorMatrix in="SourceAlpha" type="matrix" values="0 0 0 0 0 0 0 0 0 0 0 0 0 0 0 0 0 0 127 0" result="hardAlpha"/>
<feOffset/>
<feGaussianBlur stdDeviation="1.5"/>
<feComposite in2="hardAlpha" operator="arithmetic" k2="-1" k3="1"/>
<feColorMatrix type="matrix" values="0 0 0 0 0.231373 0 0 0 0 0.407843 0 0 0 0 1 0 0 0 0.38 0"/>
<feBlend mode="normal" in2="shape" result="effect3_innerShadow_319_38"/>
</filter>
<filter id="filter1_d_319_38" x="5.99902" y="9" width="11.5" height="12.5" filterUnits="userSpaceOnUse" color-interpolation-filters="sRGB">
<feFlood flood-opacity="0" result="BackgroundImageFix"/>
<feColorMatrix in="SourceAlpha" type="matrix" values="0 0 0 0 0 0 0 0 0 0 0 0 0 0 0 0 0 0 127 0" result="hardAlpha"/>
<feOffset/>
<feGaussianBlur stdDeviation="1"/>
<feComposite in2="hardAlpha" operator="out"/>
<feColorMatrix type="matrix" values="0 0 0 0 0.231373 0 0 0 0 0.407843 0 0 0 0 1 0 0 0 0.35 0"/>
<feBlend mode="normal" in2="BackgroundImageFix" result="effect1_dropShadow_319_38"/>
<feBlend mode="normal" in="SourceGraphic" in2="effect1_dropShadow_319_38" result="shape"/>
</filter>
<linearGradient id="paint0_linear_319_38" x1="18.5039" y1="1.23749" x2="4.38779" y2="15.2026" gradientUnits="userSpaceOnUse">
<stop stop-color="#344EA6" stop-opacity="0.26"/>
<stop offset="0.505208" stop-color="#587EFF" stop-opacity="0.12"/>
<stop offset="1" stop-color="#829EFF" stop-opacity="0.04"/>
</linearGradient>
<linearGradient id="paint1_linear_319_38" x1="14.3789" y1="4.2125" x2="7.9307" y2="10.8504" gradientUnits="userSpaceOnUse">
<stop stop-color="white" stop-opacity="0.15"/>
<stop offset="1" stop-color="white" stop-opacity="0.44"/>
</linearGradient>
</defs>
</svg>
