<svg width="28" height="28" viewBox="0 0 28 28" fill="none" xmlns="http://www.w3.org/2000/svg">
<g filter="url(#filter0_bdi_319_171)">
<mask id="path-1-inside-1_319_171" fill="white">
<path fill-rule="evenodd" clip-rule="evenodd" d="M10.3401 4.69078C11.4674 4.24721 12.7886 5.49981 14 5.49981C15.2115 5.49981 16.5327 4.2472 17.66 4.69077C17.7727 4.73511 17.8844 4.78144 17.9951 4.82972C19.105 5.31393 19.1542 7.1327 20.0105 7.98896C20.8668 8.84526 22.6856 8.89437 23.1699 10.0043C23.2183 10.1151 23.2647 10.227 23.3091 10.3399C23.7527 11.4672 22.5001 12.7884 22.5001 13.9998C22.5001 15.2112 23.7527 16.5325 23.3091 17.6598C23.2648 17.7723 23.2185 17.8839 23.1703 17.9944C22.6861 19.1045 20.8668 19.1536 20.0105 20.01C19.1541 20.8663 19.105 22.6857 17.995 23.1699C17.8843 23.2182 17.7727 23.2645 17.66 23.3089C16.5327 23.7524 15.2115 22.4998 14.0001 22.4998C12.7886 22.4998 11.4674 23.7524 10.3401 23.3089C10.2274 23.2645 10.1157 23.2182 10.0051 23.1699C8.89508 22.6857 8.84598 20.8666 7.98964 20.0102C7.1333 19.1539 5.31418 19.1048 4.82993 17.9947C4.78167 17.8841 4.73535 17.7724 4.69101 17.6598C4.24745 16.5325 5.50005 15.2112 5.50005 13.9998C5.50005 12.7884 4.24745 11.4672 4.69101 10.3399C4.73539 10.2271 4.78175 10.1153 4.83006 10.0046C5.31433 8.89462 7.13333 8.8455 7.98964 7.98918C8.84594 7.13288 8.89511 5.31394 10.0051 4.82971C10.1157 4.78144 10.2274 4.73511 10.3401 4.69078Z"/>
</mask>
<path fill-rule="evenodd" clip-rule="evenodd" d="M10.3401 4.69078C11.4674 4.24721 12.7886 5.49981 14 5.49981C15.2115 5.49981 16.5327 4.2472 17.66 4.69077C17.7727 4.73511 17.8844 4.78144 17.9951 4.82972C19.105 5.31393 19.1542 7.1327 20.0105 7.98896C20.8668 8.84526 22.6856 8.89437 23.1699 10.0043C23.2183 10.1151 23.2647 10.227 23.3091 10.3399C23.7527 11.4672 22.5001 12.7884 22.5001 13.9998C22.5001 15.2112 23.7527 16.5325 23.3091 17.6598C23.2648 17.7723 23.2185 17.8839 23.1703 17.9944C22.6861 19.1045 20.8668 19.1536 20.0105 20.01C19.1541 20.8663 19.105 22.6857 17.995 23.1699C17.8843 23.2182 17.7727 23.2645 17.66 23.3089C16.5327 23.7524 15.2115 22.4998 14.0001 22.4998C12.7886 22.4998 11.4674 23.7524 10.3401 23.3089C10.2274 23.2645 10.1157 23.2182 10.0051 23.1699C8.89508 22.6857 8.84598 20.8666 7.98964 20.0102C7.1333 19.1539 5.31418 19.1048 4.82993 17.9947C4.78167 17.8841 4.73535 17.7724 4.69101 17.6598C4.24745 16.5325 5.50005 15.2112 5.50005 13.9998C5.50005 12.7884 4.24745 11.4672 4.69101 10.3399C4.73539 10.2271 4.78175 10.1153 4.83006 10.0046C5.31433 8.89462 7.13333 8.8455 7.98964 7.98918C8.84594 7.13288 8.89511 5.31394 10.0051 4.82971C10.1157 4.78144 10.2274 4.73511 10.3401 4.69078Z" fill="url(#paint0_linear_319_171)" shape-rendering="crispEdges"/>
<path d="M10.0051 4.82971L9.90511 4.60057L10.0051 4.82971ZM10.0051 23.1699L10.1051 22.9408L10.0051 23.1699ZM17.995 23.1699L17.895 22.9408L17.995 23.1699ZM23.3091 17.6598L23.0765 17.5682L23.3091 17.6598ZM23.3091 10.3399L23.0765 10.4314L23.3091 10.3399ZM17.66 23.3089L17.7516 23.5415L17.66 23.3089ZM18.095 4.60057C17.9816 4.55109 17.8671 4.50359 17.7515 4.45813L17.5685 4.92341C17.6783 4.96663 17.7872 5.0118 17.8951 5.05886L18.095 4.60057ZM23.5417 10.2483C23.4962 10.1326 23.4486 10.0179 23.3991 9.90432L22.9408 10.1043C22.9879 10.2123 23.0332 10.3214 23.0765 10.4314L23.5417 10.2483ZM23.3995 18.0944C23.4489 17.9811 23.4963 17.8667 23.5417 17.7513L23.0765 17.5682C23.0333 17.678 22.9882 17.7867 22.9412 17.8945L23.3995 18.0944ZM17.7516 23.5415C17.8671 23.496 17.9815 23.4486 18.0949 23.3991L17.895 22.9408C17.7872 22.9879 17.6783 23.033 17.5685 23.0762L17.7516 23.5415ZM9.90513 23.3991C10.0186 23.4486 10.1331 23.496 10.2486 23.5415L10.4317 23.0762C10.3218 23.033 10.2129 22.9878 10.1051 22.9408L9.90513 23.3991ZM4.45837 17.7513C4.50382 17.8668 4.55131 17.9813 4.60079 18.0947L5.05907 17.8948C5.01202 17.7869 4.96687 17.6781 4.92365 17.5682L4.45837 17.7513ZM4.60092 9.90462C4.55139 10.0181 4.50386 10.1327 4.45838 10.2483L4.92365 10.4314C4.96691 10.3215 5.0121 10.2125 5.0592 10.1046L4.60092 9.90462ZM10.2486 4.45814C10.133 4.50359 10.0185 4.55108 9.90511 4.60057L10.105 5.05885C10.2129 5.0118 10.3218 4.96664 10.4316 4.92341L10.2486 4.45814ZM8.16642 8.16596C8.40956 7.92282 8.58777 7.61946 8.73537 7.30998C8.8814 7.00379 9.0087 6.66581 9.13317 6.36569C9.39503 5.73425 9.65359 5.2558 10.105 5.05885L9.90511 4.60057C9.24659 4.88785 8.92559 5.56099 8.67131 6.17415C8.5377 6.49633 8.42278 6.80391 8.28407 7.09474C8.14693 7.38228 7.99788 7.6274 7.81287 7.8124L8.16642 8.16596ZM5.0592 10.1046C5.25616 9.65311 5.73463 9.39455 6.3661 9.1327C6.66623 9.00824 7.00422 8.88094 7.31042 8.73491C7.6199 8.58731 7.92327 8.40911 8.16642 8.16596L7.81287 7.8124C7.62786 7.99742 7.38273 8.14647 7.09518 8.28361C6.80435 8.42231 6.49676 8.53723 6.17457 8.67083C5.56139 8.92511 4.88822 9.2461 4.60092 9.90462L5.0592 10.1046ZM5.75005 13.9998C5.75005 13.6558 5.66147 13.3152 5.54691 12.9919C5.43357 12.672 5.28447 12.3429 5.16019 12.0427C4.8987 11.4109 4.74329 10.8898 4.92365 10.4314L4.45838 10.2483C4.19518 10.9172 4.44428 11.6204 4.6982 12.2339C4.83163 12.5563 4.96796 12.8551 5.07562 13.1589C5.18206 13.4593 5.25005 13.7381 5.25005 13.9998H5.75005ZM4.92365 17.5682C4.74328 17.1098 4.8987 16.5887 5.16019 15.9569C5.28447 15.6567 5.43357 15.3276 5.54691 15.0077C5.66147 14.6844 5.75005 14.3438 5.75005 13.9998H5.25005C5.25005 14.2615 5.18206 14.5403 5.07562 14.8407C4.96796 15.1445 4.83163 15.4434 4.6982 15.7657C4.44428 16.3792 4.19518 17.0824 4.45837 17.7513L4.92365 17.5682ZM8.16642 19.8334C7.92326 19.5903 7.61988 19.4121 7.31038 19.2645C7.00416 19.1184 6.66616 18.9911 6.36601 18.8667C5.73452 18.6048 5.25603 18.3462 5.05907 17.8948L4.60079 18.0947C4.88808 18.7533 5.56128 19.0743 6.17449 19.3285C6.49669 19.4622 6.8043 19.5771 7.09515 19.7158C7.38271 19.8529 7.62785 20.002 7.81286 20.187L8.16642 19.8334ZM10.1051 22.9408C9.65359 22.7438 9.39503 22.2653 9.13317 21.6338C9.00871 21.3337 8.88141 20.9957 8.73538 20.6895C8.58778 20.38 8.40957 20.0766 8.16642 19.8334L7.81286 20.187C7.99788 20.372 8.14694 20.6171 8.28407 20.9047C8.42278 21.1956 8.5377 21.5032 8.67131 21.8254C8.92558 22.4386 9.24658 23.1118 9.90513 23.3991L10.1051 22.9408ZM19.8337 19.8332C19.5905 20.0763 19.4123 20.3798 19.2647 20.6893C19.1187 20.9955 18.9914 21.3336 18.8669 21.6337C18.6051 22.2653 18.3465 22.7438 17.895 22.9408L18.0949 23.3991C18.7535 23.1118 19.0745 22.4385 19.3288 21.8252C19.4624 21.503 19.5773 21.1954 19.716 20.9045C19.8531 20.6169 20.0022 20.3718 20.1872 20.1867L19.8337 19.8332ZM22.9412 17.8945C22.7442 18.346 22.2657 18.6045 21.6342 18.8664C21.334 18.9909 20.996 19.1182 20.6898 19.2642C20.3802 19.4118 20.0768 19.59 19.8337 19.8332L20.1872 20.1867C20.3723 20.0017 20.6174 19.8526 20.905 19.7155C21.1958 19.5768 21.5035 19.4619 21.8257 19.3283C22.4389 19.074 23.1122 18.753 23.3995 18.0944L22.9412 17.8945ZM22.2501 13.9998C22.2501 14.3438 22.3386 14.6844 22.4532 15.0077C22.5665 15.3276 22.7156 15.6567 22.8399 15.9569C23.1014 16.5887 23.2568 17.1098 23.0765 17.5682L23.5417 17.7513C23.8049 17.0824 23.5558 16.3792 23.3019 15.7657C23.1685 15.4434 23.0321 15.1445 22.9245 14.8407C22.818 14.5403 22.7501 14.2615 22.7501 13.9998H22.2501ZM19.8337 8.16574C20.0768 8.40888 20.3802 8.58708 20.6897 8.73467C20.9958 8.8807 21.3338 9.00799 21.6339 9.13245C22.2654 9.3943 22.7438 9.65285 22.9408 10.1043L23.3991 9.90432C23.1117 9.24583 22.4386 8.92486 21.8255 8.67059C21.5033 8.53699 21.1957 8.42207 20.9049 8.28337C20.6174 8.14624 20.3722 7.99719 20.1872 7.81218L19.8337 8.16574ZM14.0001 22.2498C13.6561 22.2498 13.3154 22.3384 12.9922 22.453C12.6723 22.5663 12.3432 22.7154 12.0429 22.8397C11.4111 23.1012 10.8901 23.2566 10.4317 23.0762L10.2486 23.5415C10.9175 23.8047 11.6207 23.5556 12.2342 23.3017C12.5565 23.1682 12.8553 23.0319 13.1592 22.9242C13.4595 22.8178 13.7383 22.7498 14.0001 22.7498V22.2498ZM17.8951 5.05886C18.3465 5.2558 18.6051 5.73421 18.8669 6.3656C18.9914 6.6657 19.1187 7.00365 19.2648 7.30981C19.4124 7.61927 19.5906 7.92261 19.8337 8.16574L20.1872 7.81218C20.0022 7.62718 19.8532 7.38208 19.716 7.09456C19.5773 6.80375 19.4624 6.4962 19.3288 6.17404C19.0745 5.56093 18.7535 4.88785 18.095 4.60057L17.8951 5.05886ZM14 5.74981C14.344 5.74981 14.6847 5.66123 15.008 5.54667C15.3278 5.43333 15.6569 5.28423 15.9572 5.15995C16.589 4.89846 17.1101 4.74304 17.5685 4.92341L17.7515 4.45813C17.0826 4.19493 16.3795 4.44404 15.766 4.69796C15.4436 4.83139 15.1448 4.96772 14.841 5.07538C14.5406 5.18182 14.2618 5.24981 14 5.24981V5.74981ZM23.0765 10.4314C23.2568 10.8898 23.1014 11.4109 22.8399 12.0427C22.7156 12.343 22.5665 12.6721 22.4532 12.9919C22.3386 13.3152 22.2501 13.6558 22.2501 13.9998H22.7501C22.7501 13.7381 22.818 13.4593 22.9245 13.1589C23.0321 12.8551 23.1685 12.5563 23.3019 12.2339C23.5558 11.6204 23.8049 10.9172 23.5417 10.2483L23.0765 10.4314ZM17.5685 23.0762C17.1101 23.2566 16.589 23.1012 15.9572 22.8397C15.6569 22.7154 15.3278 22.5663 15.008 22.453C14.6847 22.3384 14.3441 22.2498 14.0001 22.2498V22.7498C14.2618 22.7498 14.5406 22.8178 14.841 22.9242C15.1448 23.0319 15.4436 23.1682 15.766 23.3017C16.3795 23.5556 17.0827 23.8047 17.7516 23.5415L17.5685 23.0762ZM14 5.24981C13.7383 5.24981 13.4595 5.18182 13.1591 5.07538C12.8553 4.96772 12.5565 4.83139 12.2341 4.69796C11.6206 4.44404 10.9175 4.19494 10.2486 4.45814L10.4316 4.92341C10.89 4.74305 11.4111 4.89846 12.0429 5.15995C12.3432 5.28423 12.6723 5.43333 12.9921 5.54667C13.3154 5.66123 13.6561 5.74981 14 5.74981V5.24981Z" fill="url(#paint1_linear_319_171)" fill-opacity="0.7" mask="url(#path-1-inside-1_319_171)"/>
</g>
<g filter="url(#filter1_d_319_171)">
<circle cx="11.7986" cy="11.7986" r="0.791538" transform="rotate(45 11.7986 11.7986)" fill="#2AEAE7"/>
<circle cx="16.2015" cy="16.2014" r="0.791538" transform="rotate(45 16.2015 16.2014)" fill="#2AEAE7"/>
<path d="M11.7613 16.2388L16.2389 11.7612" stroke="#2AEAE7" stroke-width="1.5" stroke-linecap="round" stroke-linejoin="round"/>
</g>
<defs>
<filter id="filter0_bdi_319_171" x="0.595947" y="0.595703" width="26.8082" height="26.8081" filterUnits="userSpaceOnUse" color-interpolation-filters="sRGB">
<feFlood flood-opacity="0" result="BackgroundImageFix"/>
<feGaussianBlur in="BackgroundImageFix" stdDeviation="1"/>
<feComposite in2="SourceAlpha" operator="in" result="effect1_backgroundBlur_319_171"/>
<feColorMatrix in="SourceAlpha" type="matrix" values="0 0 0 0 0 0 0 0 0 0 0 0 0 0 0 0 0 0 127 0" result="hardAlpha"/>
<feOffset/>
<feGaussianBlur stdDeviation="2"/>
<feComposite in2="hardAlpha" operator="out"/>
<feColorMatrix type="matrix" values="0 0 0 0 0.231373 0 0 0 0 0.407843 0 0 0 0 1 0 0 0 0.1 0"/>
<feBlend mode="normal" in2="effect1_backgroundBlur_319_171" result="effect2_dropShadow_319_171"/>
<feBlend mode="normal" in="SourceGraphic" in2="effect2_dropShadow_319_171" result="shape"/>
<feColorMatrix in="SourceAlpha" type="matrix" values="0 0 0 0 0 0 0 0 0 0 0 0 0 0 0 0 0 0 127 0" result="hardAlpha"/>
<feOffset/>
<feGaussianBlur stdDeviation="1.5"/>
<feComposite in2="hardAlpha" operator="arithmetic" k2="-1" k3="1"/>
<feColorMatrix type="matrix" values="0 0 0 0 0.231373 0 0 0 0 0.407843 0 0 0 0 1 0 0 0 0.38 0"/>
<feBlend mode="normal" in2="shape" result="effect3_innerShadow_319_171"/>
</filter>
<filter id="filter1_d_319_171" x="7" y="7" width="14" height="14" filterUnits="userSpaceOnUse" color-interpolation-filters="sRGB">
<feFlood flood-opacity="0" result="BackgroundImageFix"/>
<feColorMatrix in="SourceAlpha" type="matrix" values="0 0 0 0 0 0 0 0 0 0 0 0 0 0 0 0 0 0 127 0" result="hardAlpha"/>
<feOffset/>
<feGaussianBlur stdDeviation="1"/>
<feComposite in2="hardAlpha" operator="out"/>
<feColorMatrix type="matrix" values="0 0 0 0 0.231373 0 0 0 0 0.407843 0 0 0 0 1 0 0 0 0.35 0"/>
<feBlend mode="normal" in2="BackgroundImageFix" result="effect1_dropShadow_319_171"/>
<feBlend mode="normal" in="SourceGraphic" in2="effect1_dropShadow_319_171" result="shape"/>
</filter>
<linearGradient id="paint0_linear_319_171" x1="-1.51672" y1="-2.92758" x2="33.2785" y2="28.106" gradientUnits="userSpaceOnUse">
<stop stop-color="#29EAC4" stop-opacity="0.5"/>
<stop offset="0.505208" stop-color="#12D8FA" stop-opacity="0.5"/>
<stop offset="1" stop-color="#0B2774" stop-opacity="0.5"/>
</linearGradient>
<linearGradient id="paint1_linear_319_171" x1="5.06615" y1="7.41693" x2="21.5233" y2="21.5231" gradientUnits="userSpaceOnUse">
<stop stop-color="white" stop-opacity="0.15"/>
<stop offset="1" stop-color="white" stop-opacity="0.44"/>
</linearGradient>
</defs>
</svg>
