<svg width="27" height="27" viewBox="0 0 27 27" fill="none" xmlns="http://www.w3.org/2000/svg">
<g filter="url(#filter0_bdi_319_163)">
<path d="M20.7232 4.75895C21.6613 4.44624 22.5538 5.33873 22.2411 6.27684L17.1845 21.4467C16.8561 22.4318 15.5163 22.5631 15.0029 21.6603L11.9078 16.2172C11.6409 15.7478 11.2522 15.3591 10.7828 15.0922L5.33973 11.9971C4.437 11.4838 4.56824 10.1439 5.55342 9.81555L20.7232 4.75895Z" fill="url(#paint0_linear_319_163)" shape-rendering="crispEdges"/>
<path d="M20.7232 4.75895C21.6613 4.44624 22.5538 5.33873 22.2411 6.27684L17.1845 21.4467C16.8561 22.4318 15.5163 22.5631 15.0029 21.6603L11.9078 16.2172C11.6409 15.7478 11.2522 15.3591 10.7828 15.0922L5.33973 11.9971C4.437 11.4838 4.56824 10.1439 5.55342 9.81555L20.7232 4.75895Z" stroke="url(#paint1_linear_319_163)" stroke-opacity="0.7" stroke-width="0.25" shape-rendering="crispEdges"/>
</g>
<path fill-rule="evenodd" clip-rule="evenodd" d="M21.8628 5.13721C22.1328 5.40712 22.2628 5.81721 22.1227 6.23753L17.0661 21.4073C16.7719 22.2899 15.5716 22.4075 15.1118 21.5988L12.0166 16.1556C11.8776 15.911 11.7068 15.6875 11.5096 15.4903L21.8628 5.13721Z" fill="#2AEAE7"/>
<defs>
<filter id="filter0_bdi_319_163" x="0.607727" y="0.570312" width="25.8223" height="25.8223" filterUnits="userSpaceOnUse" color-interpolation-filters="sRGB">
<feFlood flood-opacity="0" result="BackgroundImageFix"/>
<feGaussianBlur in="BackgroundImageFix" stdDeviation="1"/>
<feComposite in2="SourceAlpha" operator="in" result="effect1_backgroundBlur_319_163"/>
<feColorMatrix in="SourceAlpha" type="matrix" values="0 0 0 0 0 0 0 0 0 0 0 0 0 0 0 0 0 0 127 0" result="hardAlpha"/>
<feOffset/>
<feGaussianBlur stdDeviation="2"/>
<feComposite in2="hardAlpha" operator="out"/>
<feColorMatrix type="matrix" values="0 0 0 0 0.231373 0 0 0 0 0.407843 0 0 0 0 1 0 0 0 0.1 0"/>
<feBlend mode="normal" in2="effect1_backgroundBlur_319_163" result="effect2_dropShadow_319_163"/>
<feBlend mode="normal" in="SourceGraphic" in2="effect2_dropShadow_319_163" result="shape"/>
<feColorMatrix in="SourceAlpha" type="matrix" values="0 0 0 0 0 0 0 0 0 0 0 0 0 0 0 0 0 0 127 0" result="hardAlpha"/>
<feOffset/>
<feGaussianBlur stdDeviation="1.5"/>
<feComposite in2="hardAlpha" operator="arithmetic" k2="-1" k3="1"/>
<feColorMatrix type="matrix" values="0 0 0 0 0.231373 0 0 0 0 0.407843 0 0 0 0 1 0 0 0 0.38 0"/>
<feBlend mode="normal" in2="shape" result="effect3_innerShadow_319_163"/>
</filter>
<linearGradient id="paint0_linear_319_163" x1="-3.50002" y1="-4.00003" x2="33.5001" y2="29.0001" gradientUnits="userSpaceOnUse">
<stop stop-color="#29EAC4" stop-opacity="0.5"/>
<stop offset="0.505208" stop-color="#12D8FA" stop-opacity="0.5"/>
<stop offset="1" stop-color="#0B2774" stop-opacity="0.5"/>
</linearGradient>
<linearGradient id="paint1_linear_319_163" x1="3.5" y1="7.00001" x2="21.0001" y2="22.0001" gradientUnits="userSpaceOnUse">
<stop stop-color="white" stop-opacity="0.15"/>
<stop offset="1" stop-color="white" stop-opacity="0.44"/>
</linearGradient>
</defs>
</svg>
