<svg width="28" height="28" viewBox="0 0 28 28" fill="none" xmlns="http://www.w3.org/2000/svg">
<g filter="url(#filter0_bdi_319_182)">
<mask id="path-1-inside-1_319_182" fill="white">
<path fill-rule="evenodd" clip-rule="evenodd" d="M16.461 4.30508C16.7881 4.38787 17.0011 4.68633 17.0772 5.01511C17.2581 5.79693 17.7503 6.50461 18.5001 6.9375C19.1891 7.33529 19.9703 7.42872 20.688 7.2595C21.0161 7.18215 21.3775 7.24076 21.5968 7.49671C22.3979 8.4317 23.0295 9.51632 23.4437 10.7029C23.569 11.0617 23.3869 11.4419 23.0936 11.6835C22.4258 12.2338 22 13.0672 22 14C22 14.9328 22.4258 15.7662 23.0936 16.3165C23.3869 16.5581 23.569 16.9383 23.4437 17.2971C23.0295 18.4835 22.3981 19.5681 21.597 20.503C21.3777 20.759 21.0163 20.8176 20.6882 20.7402C19.9704 20.5709 19.1891 20.6643 18.5001 21.0621C17.7502 21.4951 17.2579 22.2029 17.0771 22.9848C17.001 23.3136 16.788 23.6122 16.4609 23.695C15.6736 23.8942 14.8492 24 14 24C13.1509 24 12.3265 23.8942 11.5393 23.695C11.2121 23.6122 10.9991 23.3137 10.923 22.9848C10.7422 22.2029 10.2499 21.4951 9.50005 21.0621C8.81097 20.6643 8.02967 20.5709 7.31189 20.7402C6.98379 20.8176 6.62234 20.759 6.40301 20.503C5.60196 19.5681 4.9705 18.4836 4.55631 17.2971C4.43105 16.9383 4.61313 16.5582 4.90645 16.3165C5.57426 15.7663 6.00004 14.9329 6.00004 14C6.00004 13.0671 5.57426 12.2337 4.90645 11.6835C4.61313 11.4418 4.43105 11.0617 4.55631 10.7029C4.97055 9.5163 5.6021 8.43167 6.40327 7.49667C6.6226 7.24072 6.984 7.18212 7.31207 7.25948C8.0298 7.42873 8.81103 7.33531 9.50005 6.9375C10.2499 6.5046 10.7421 5.79691 10.923 5.01508C10.9991 4.6863 11.212 4.38783 11.5392 4.30504C12.3264 4.10584 13.1509 4 14 4C14.8492 4 15.6737 4.10585 16.461 4.30508Z"/>
</mask>
<path fill-rule="evenodd" clip-rule="evenodd" d="M16.461 4.30508C16.7881 4.38787 17.0011 4.68633 17.0772 5.01511C17.2581 5.79693 17.7503 6.50461 18.5001 6.9375C19.1891 7.33529 19.9703 7.42872 20.688 7.2595C21.0161 7.18215 21.3775 7.24076 21.5968 7.49671C22.3979 8.4317 23.0295 9.51632 23.4437 10.7029C23.569 11.0617 23.3869 11.4419 23.0936 11.6835C22.4258 12.2338 22 13.0672 22 14C22 14.9328 22.4258 15.7662 23.0936 16.3165C23.3869 16.5581 23.569 16.9383 23.4437 17.2971C23.0295 18.4835 22.3981 19.5681 21.597 20.503C21.3777 20.759 21.0163 20.8176 20.6882 20.7402C19.9704 20.5709 19.1891 20.6643 18.5001 21.0621C17.7502 21.4951 17.2579 22.2029 17.0771 22.9848C17.001 23.3136 16.788 23.6122 16.4609 23.695C15.6736 23.8942 14.8492 24 14 24C13.1509 24 12.3265 23.8942 11.5393 23.695C11.2121 23.6122 10.9991 23.3137 10.923 22.9848C10.7422 22.2029 10.2499 21.4951 9.50005 21.0621C8.81097 20.6643 8.02967 20.5709 7.31189 20.7402C6.98379 20.8176 6.62234 20.759 6.40301 20.503C5.60196 19.5681 4.9705 18.4836 4.55631 17.2971C4.43105 16.9383 4.61313 16.5582 4.90645 16.3165C5.57426 15.7663 6.00004 14.9329 6.00004 14C6.00004 13.0671 5.57426 12.2337 4.90645 11.6835C4.61313 11.4418 4.43105 11.0617 4.55631 10.7029C4.97055 9.5163 5.6021 8.43167 6.40327 7.49667C6.6226 7.24072 6.984 7.18212 7.31207 7.25948C8.0298 7.42873 8.81103 7.33531 9.50005 6.9375C10.2499 6.5046 10.7421 5.79691 10.923 5.01508C10.9991 4.6863 11.212 4.38783 11.5392 4.30504C12.3264 4.10584 13.1509 4 14 4C14.8492 4 15.6737 4.10585 16.461 4.30508Z" fill="url(#paint0_linear_319_182)" shape-rendering="crispEdges"/>
<path d="M18.5001 6.9375L18.6251 6.72099V6.72099L18.5001 6.9375ZM18.5001 21.0621L18.3751 20.8456L18.5001 21.0621ZM9.50005 21.0621L9.37505 21.2787H9.37505L9.50005 21.0621ZM9.50005 6.9375L9.62505 7.15401L9.50005 6.9375ZM10.923 5.01508L10.6794 4.95872L10.923 5.01508ZM7.31189 20.7402L7.25449 20.4969L7.31189 20.7402ZM6.40301 20.503L6.59285 20.3404L6.40301 20.503ZM11.5393 23.695L11.6006 23.4526L11.5393 23.695ZM10.923 22.9848L11.1666 22.9285L10.923 22.9848ZM17.0771 22.9848L16.8335 22.9285L17.0771 22.9848ZM16.4609 23.695L16.5222 23.9373L16.4609 23.695ZM21.597 20.503L21.4072 20.3403L21.597 20.503ZM23.4437 10.7029L23.6797 10.6205L23.4437 10.7029ZM23.0936 11.6835L22.9346 11.4906L23.0936 11.6835ZM20.688 7.2595L20.6306 7.01617L20.688 7.2595ZM23.0936 16.3165L22.9346 16.5094L23.0936 16.3165ZM23.4437 17.2971L23.2077 17.2147L23.4437 17.2971ZM17.0772 5.01511L16.8336 5.07147L17.0772 5.01511ZM16.8336 5.07147C17.0295 5.91797 17.5628 6.68505 18.3751 7.15401L18.6251 6.72099C17.9378 6.32417 17.4867 5.67589 17.3207 4.95875L16.8336 5.07147ZM18.3751 7.15401C19.1214 7.58488 19.9681 7.68608 20.7454 7.50283L20.6306 7.01617C19.9724 7.17136 19.2568 7.08569 18.6251 6.72099L18.3751 7.15401ZM23.6797 10.6205C23.2551 9.404 22.6077 8.29226 21.7866 7.33404L21.4069 7.65937C22.1882 8.57115 22.8039 9.62864 23.2077 10.7853L23.6797 10.6205ZM22.25 14C22.25 13.145 22.6399 12.3812 23.2526 11.8765L22.9346 11.4906C22.2116 12.0863 21.75 12.9893 21.75 14H22.25ZM23.2526 16.1235C22.6399 15.6188 22.25 14.855 22.25 14H21.75C21.75 15.0107 22.2116 15.9137 22.9346 16.5094L23.2526 16.1235ZM21.7869 20.6656C22.6078 19.7075 23.2551 18.5959 23.6797 17.3795L23.2077 17.2147C22.8039 18.3712 22.1883 19.4286 21.4072 20.3403L21.7869 20.6656ZM18.6251 21.2787C19.2568 20.9139 19.9725 20.8283 20.6308 20.9835L20.7456 20.4969C19.9683 20.3136 19.1214 20.4147 18.3751 20.8456L18.6251 21.2787ZM17.3206 23.0412C17.4865 22.3239 17.9377 21.6755 18.6251 21.2787L18.3751 20.8456C17.5627 21.3147 17.0293 22.0819 16.8335 22.9285L17.3206 23.0412ZM14 24.25C14.87 24.25 15.7151 24.1416 16.5222 23.9373L16.3995 23.4526C15.6322 23.6468 14.8283 23.75 14 23.75V24.25ZM11.4779 23.9373C12.285 24.1416 13.13 24.25 14 24.25V23.75C13.1717 23.75 12.3679 23.6468 11.6006 23.4526L11.4779 23.9373ZM9.37505 21.2787C10.0625 21.6755 10.5136 22.3239 10.6795 23.0412L11.1666 22.9285C10.9708 22.0819 10.4374 21.3147 9.62505 20.8456L9.37505 21.2787ZM7.36928 20.9835C8.02754 20.8283 8.74329 20.9139 9.37505 21.2787L9.62505 20.8456C8.87865 20.4147 8.0318 20.3135 7.25449 20.4969L7.36928 20.9835ZM4.32028 17.3795C4.74492 18.5959 5.39222 19.7075 6.21316 20.6657L6.59285 20.3404C5.8117 19.4286 5.19609 18.3712 4.79234 17.2147L4.32028 17.3795ZM5.75004 14C5.75004 14.855 5.36012 15.6188 4.74747 16.1235L5.06542 16.5094C5.7884 15.9137 6.25004 15.0107 6.25004 14H5.75004ZM4.74748 11.8765C5.36013 12.3812 5.75004 13.145 5.75004 14H6.25004C6.25004 12.9893 5.7884 12.0862 5.06542 11.4906L4.74748 11.8765ZM6.21343 7.33401C5.39236 8.29223 4.74496 9.40398 4.32028 10.6205L4.79234 10.7853C5.19613 9.62862 5.81184 8.57112 6.59311 7.65934L6.21343 7.33401ZM9.37505 6.72099C8.74335 7.08571 8.02766 7.17136 7.36945 7.01615L7.25469 7.50281C8.03195 7.68609 8.87872 7.5849 9.62505 7.15401L9.37505 6.72099ZM10.6794 4.95872C10.5135 5.67587 10.0624 6.32417 9.37505 6.72099L9.62505 7.15401C10.4373 6.68504 10.9707 5.91795 11.1666 5.07144L10.6794 4.95872ZM14 3.75C13.13 3.75 12.285 3.85845 11.4779 4.06268L11.6005 4.5474C12.3679 4.35323 13.1717 4.25 14 4.25V3.75ZM16.5223 4.06272C15.7152 3.85846 14.8701 3.75 14 3.75V4.25C14.8284 4.25 15.6323 4.35325 16.3997 4.54744L16.5223 4.06272ZM11.1666 5.07144C11.2297 4.79846 11.3947 4.59948 11.6005 4.5474L11.4779 4.06268C11.0294 4.17617 10.7684 4.57413 10.6794 4.95872L11.1666 5.07144ZM5.06542 11.4906C4.81939 11.2879 4.71399 11.0097 4.79234 10.7853L4.32028 10.6205C4.1481 11.1137 4.40687 11.5958 4.74748 11.8765L5.06542 11.4906ZM7.25449 20.4969C6.98222 20.5611 6.73094 20.5015 6.59285 20.3404L6.21316 20.6657C6.51373 21.0165 6.98536 21.0741 7.36928 20.9835L7.25449 20.4969ZM11.6006 23.4526C11.3948 23.4005 11.2298 23.2015 11.1666 22.9285L10.6795 23.0412C10.7684 23.4258 11.0294 23.8238 11.4779 23.9373L11.6006 23.4526ZM16.8335 22.9285C16.7704 23.2015 16.6054 23.4005 16.3995 23.4526L16.5222 23.9373C16.9707 23.8238 17.2317 23.4258 17.3206 23.0412L16.8335 22.9285ZM21.4072 20.3403C21.2691 20.5015 21.0178 20.5611 20.7456 20.4969L20.6308 20.9835C21.0147 21.0741 21.4863 21.0165 21.7869 20.6656L21.4072 20.3403ZM23.2077 10.7853C23.286 11.0097 23.1806 11.2879 22.9346 11.4906L23.2526 11.8765C23.5932 11.5958 23.8519 11.1137 23.6797 10.6205L23.2077 10.7853ZM4.79234 17.2147C4.71399 16.9903 4.81938 16.7121 5.06542 16.5094L4.74747 16.1235C4.40687 16.4042 4.1481 16.8863 4.32028 17.3795L4.79234 17.2147ZM20.7454 7.50283C21.0176 7.43864 21.2689 7.49823 21.4069 7.65937L21.7866 7.33404C21.4861 6.98329 21.0145 6.92566 20.6306 7.01617L20.7454 7.50283ZM6.59311 7.65934C6.7312 7.49819 6.98244 7.43861 7.25469 7.50281L7.36945 7.01615C6.98556 6.92563 6.51399 6.98324 6.21343 7.33401L6.59311 7.65934ZM22.9346 16.5094C23.1806 16.7121 23.286 16.9903 23.2077 17.2147L23.6797 17.3795C23.8519 16.8863 23.5932 16.4042 23.2526 16.1235L22.9346 16.5094ZM17.3207 4.95875C17.2318 4.57417 16.9708 4.17622 16.5223 4.06272L16.3997 4.54744C16.6055 4.59953 16.7705 4.7985 16.8336 5.07147L17.3207 4.95875Z" fill="url(#paint1_linear_319_182)" fill-opacity="0.7" mask="url(#path-1-inside-1_319_182)"/>
</g>
<g filter="url(#filter1_d_319_182)">
<circle cx="3" cy="3" r="3" transform="matrix(-1 0 0 1 17.0001 11)" fill="#2AEAE7"/>
</g>
<defs>
<filter id="filter0_bdi_319_182" x="0.516174" y="0" width="26.9677" height="28" filterUnits="userSpaceOnUse" color-interpolation-filters="sRGB">
<feFlood flood-opacity="0" result="BackgroundImageFix"/>
<feGaussianBlur in="BackgroundImageFix" stdDeviation="1"/>
<feComposite in2="SourceAlpha" operator="in" result="effect1_backgroundBlur_319_182"/>
<feColorMatrix in="SourceAlpha" type="matrix" values="0 0 0 0 0 0 0 0 0 0 0 0 0 0 0 0 0 0 127 0" result="hardAlpha"/>
<feOffset/>
<feGaussianBlur stdDeviation="2"/>
<feComposite in2="hardAlpha" operator="out"/>
<feColorMatrix type="matrix" values="0 0 0 0 0.231373 0 0 0 0 0.407843 0 0 0 0 1 0 0 0 0.1 0"/>
<feBlend mode="normal" in2="effect1_backgroundBlur_319_182" result="effect2_dropShadow_319_182"/>
<feBlend mode="normal" in="SourceGraphic" in2="effect2_dropShadow_319_182" result="shape"/>
<feColorMatrix in="SourceAlpha" type="matrix" values="0 0 0 0 0 0 0 0 0 0 0 0 0 0 0 0 0 0 127 0" result="hardAlpha"/>
<feOffset/>
<feGaussianBlur stdDeviation="1.5"/>
<feComposite in2="hardAlpha" operator="arithmetic" k2="-1" k3="1"/>
<feColorMatrix type="matrix" values="0 0 0 0 0.231373 0 0 0 0 0.407843 0 0 0 0 1 0 0 0 0.38 0"/>
<feBlend mode="normal" in2="shape" result="effect3_innerShadow_319_182"/>
</filter>
<filter id="filter1_d_319_182" x="9.00006" y="9" width="10" height="10" filterUnits="userSpaceOnUse" color-interpolation-filters="sRGB">
<feFlood flood-opacity="0" result="BackgroundImageFix"/>
<feColorMatrix in="SourceAlpha" type="matrix" values="0 0 0 0 0 0 0 0 0 0 0 0 0 0 0 0 0 0 127 0" result="hardAlpha"/>
<feOffset/>
<feGaussianBlur stdDeviation="1"/>
<feComposite in2="hardAlpha" operator="out"/>
<feColorMatrix type="matrix" values="0 0 0 0 0.231373 0 0 0 0 0.407843 0 0 0 0 1 0 0 0 0.35 0"/>
<feBlend mode="normal" in2="BackgroundImageFix" result="effect1_dropShadow_319_182"/>
<feBlend mode="normal" in="SourceGraphic" in2="effect1_dropShadow_319_182" result="shape"/>
</filter>
<linearGradient id="paint0_linear_319_182" x1="-1.64832" y1="-4" x2="35.0783" y2="27.0654" gradientUnits="userSpaceOnUse">
<stop stop-color="#29EAC4" stop-opacity="0.5"/>
<stop offset="0.505208" stop-color="#12D8FA" stop-opacity="0.5"/>
<stop offset="1" stop-color="#0B2774" stop-opacity="0.5"/>
</linearGradient>
<linearGradient id="paint1_linear_319_182" x1="4.99037" y1="7" x2="22.3254" y2="21.0917" gradientUnits="userSpaceOnUse">
<stop stop-color="white" stop-opacity="0.15"/>
<stop offset="1" stop-color="white" stop-opacity="0.44"/>
</linearGradient>
</defs>
</svg>
