<svg width="26" height="24" viewBox="0 0 26 24" fill="none" xmlns="http://www.w3.org/2000/svg">
<g filter="url(#filter0_bdi_319_194)">
<path d="M4.20057 12.7844C3.93314 12.2954 3.93314 11.7045 4.20058 11.2154C5.9 8.10803 9.20336 6 13 6C16.7966 6 20.1 8.10809 21.7994 11.2156C22.0669 11.7046 22.0669 12.2956 21.7994 12.7846C20.1 15.892 16.7966 18 13 18C9.20336 18 5.89997 15.8919 4.20057 12.7844Z" fill="url(#paint0_linear_319_194)" shape-rendering="crispEdges"/>
<path d="M4.31024 12.7244C4.06325 12.2728 4.06325 11.7271 4.31025 11.2754C5.98859 8.20655 9.25078 6.125 13 6.125C16.7492 6.125 20.0114 8.20662 21.6898 11.2756C21.9368 11.7272 21.9367 12.2729 21.6897 12.7246C20.0114 15.7934 16.7492 17.875 13 17.875C9.25079 17.875 5.98856 15.7934 4.31024 12.7244Z" stroke="url(#paint1_linear_319_194)" stroke-opacity="0.7" stroke-width="0.25" shape-rendering="crispEdges"/>
</g>
<g filter="url(#filter1_d_319_194)">
<circle cx="13" cy="12" r="3" fill="#2AEAE7"/>
</g>
<defs>
<filter id="filter0_bdi_319_194" x="0" y="2" width="26" height="20" filterUnits="userSpaceOnUse" color-interpolation-filters="sRGB">
<feFlood flood-opacity="0" result="BackgroundImageFix"/>
<feGaussianBlur in="BackgroundImageFix" stdDeviation="1"/>
<feComposite in2="SourceAlpha" operator="in" result="effect1_backgroundBlur_319_194"/>
<feColorMatrix in="SourceAlpha" type="matrix" values="0 0 0 0 0 0 0 0 0 0 0 0 0 0 0 0 0 0 127 0" result="hardAlpha"/>
<feOffset/>
<feGaussianBlur stdDeviation="2"/>
<feComposite in2="hardAlpha" operator="out"/>
<feColorMatrix type="matrix" values="0 0 0 0 0.231373 0 0 0 0 0.407843 0 0 0 0 1 0 0 0 0.1 0"/>
<feBlend mode="normal" in2="effect1_backgroundBlur_319_194" result="effect2_dropShadow_319_194"/>
<feBlend mode="normal" in="SourceGraphic" in2="effect2_dropShadow_319_194" result="shape"/>
<feColorMatrix in="SourceAlpha" type="matrix" values="0 0 0 0 0 0 0 0 0 0 0 0 0 0 0 0 0 0 127 0" result="hardAlpha"/>
<feOffset/>
<feGaussianBlur stdDeviation="1.5"/>
<feComposite in2="hardAlpha" operator="arithmetic" k2="-1" k3="1"/>
<feColorMatrix type="matrix" values="0 0 0 0 0.231373 0 0 0 0 0.407843 0 0 0 0 1 0 0 0 0.38 0"/>
<feBlend mode="normal" in2="shape" result="effect3_innerShadow_319_194"/>
</filter>
<filter id="filter1_d_319_194" x="8" y="7" width="10" height="10" filterUnits="userSpaceOnUse" color-interpolation-filters="sRGB">
<feFlood flood-opacity="0" result="BackgroundImageFix"/>
<feColorMatrix in="SourceAlpha" type="matrix" values="0 0 0 0 0 0 0 0 0 0 0 0 0 0 0 0 0 0 127 0" result="hardAlpha"/>
<feOffset/>
<feGaussianBlur stdDeviation="1"/>
<feComposite in2="hardAlpha" operator="out"/>
<feColorMatrix type="matrix" values="0 0 0 0 0.231373 0 0 0 0 0.407843 0 0 0 0 1 0 0 0 0.35 0"/>
<feBlend mode="normal" in2="BackgroundImageFix" result="effect1_dropShadow_319_194"/>
<feBlend mode="normal" in="SourceGraphic" in2="effect1_dropShadow_319_194" result="shape"/>
</filter>
<linearGradient id="paint0_linear_319_194" x1="-1.85" y1="1.2" x2="19.5813" y2="29.8716" gradientUnits="userSpaceOnUse">
<stop stop-color="#29EAC4" stop-opacity="0.5"/>
<stop offset="0.505208" stop-color="#12D8FA" stop-opacity="0.5"/>
<stop offset="1" stop-color="#0B2774" stop-opacity="0.5"/>
</linearGradient>
<linearGradient id="paint1_linear_319_194" x1="4.45" y1="7.8" x2="14.7481" y2="21.0404" gradientUnits="userSpaceOnUse">
<stop stop-color="white" stop-opacity="0.15"/>
<stop offset="1" stop-color="white" stop-opacity="0.44"/>
</linearGradient>
</defs>
</svg>
