<svg width="28" height="28" viewBox="0 0 28 28" fill="none" xmlns="http://www.w3.org/2000/svg">
<g filter="url(#filter0_bdi_319_150)">
<rect x="4" y="4" width="20" height="20" rx="10" fill="url(#paint0_linear_319_150)" shape-rendering="crispEdges"/>
<rect x="4.125" y="4.125" width="19.75" height="19.75" rx="9.875" stroke="url(#paint1_linear_319_150)" stroke-opacity="0.7" stroke-width="0.25" shape-rendering="crispEdges"/>
</g>
<g filter="url(#filter1_d_319_150)">
<path d="M23.0002 5L5.00024 23" stroke="#2AEAE7" stroke-width="1.5" stroke-linecap="round"/>
</g>
<mask id="path-4-outside-1_319_150" maskUnits="userSpaceOnUse" x="4" y="11" width="20" height="7" fill="black">
<rect fill="white" x="4" y="11" width="20" height="7"/>
<path d="M5.357 16.279C5.23567 16.1297 5.175 15.9967 5.175 15.88C5.175 15.7587 5.27533 15.6 5.476 15.404C5.59267 15.292 5.71633 15.236 5.847 15.236C5.97767 15.236 6.15967 15.3527 6.393 15.586C6.45833 15.6653 6.55167 15.7423 6.673 15.817C6.79433 15.887 6.90633 15.922 7.009 15.922C7.443 15.922 7.66 15.7447 7.66 15.39C7.66 15.2827 7.59933 15.194 7.478 15.124C7.36133 15.0493 7.21433 14.9957 7.037 14.963C6.85967 14.9303 6.66833 14.879 6.463 14.809C6.25767 14.7343 6.06633 14.648 5.889 14.55C5.71167 14.452 5.56233 14.298 5.441 14.088C5.32433 13.8733 5.266 13.6167 5.266 13.318C5.266 12.9073 5.41767 12.5503 5.721 12.247C6.029 11.939 6.44667 11.785 6.974 11.785C7.254 11.785 7.50833 11.8223 7.737 11.897C7.97033 11.967 8.13133 12.0393 8.22 12.114L8.395 12.247C8.53967 12.3823 8.612 12.4967 8.612 12.59C8.612 12.6833 8.556 12.8117 8.444 12.975C8.28533 13.2083 8.122 13.325 7.954 13.325C7.856 13.325 7.73467 13.2783 7.59 13.185C7.576 13.1757 7.548 13.1523 7.506 13.115C7.46867 13.0777 7.43367 13.0473 7.401 13.024C7.303 12.9633 7.177 12.933 7.023 12.933C6.87367 12.933 6.74767 12.9703 6.645 13.045C6.547 13.115 6.498 13.2153 6.498 13.346C6.498 13.472 6.55633 13.5747 6.673 13.654C6.79433 13.7333 6.94367 13.787 7.121 13.815C7.29833 13.843 7.492 13.8873 7.702 13.948C7.912 14.004 8.10567 14.074 8.283 14.158C8.46033 14.242 8.60733 14.389 8.724 14.599C8.84533 14.8043 8.906 15.0587 8.906 15.362C8.906 15.6653 8.84533 15.9337 8.724 16.167C8.60267 16.3957 8.444 16.573 8.248 16.699C7.87 16.9463 7.46633 17.07 7.037 17.07C6.81767 17.07 6.61 17.0443 6.414 16.993C6.218 16.937 6.05933 16.8693 5.938 16.79C5.69067 16.6407 5.518 16.496 5.42 16.356L5.357 16.279ZM9.34842 11.862H13.2404C13.3898 11.862 13.4994 11.8807 13.5694 11.918C13.6394 11.9507 13.6861 12.0043 13.7094 12.079C13.7328 12.1537 13.7444 12.2517 13.7444 12.373C13.7444 12.4943 13.7328 12.5923 13.7094 12.667C13.6861 12.737 13.6464 12.786 13.5904 12.814C13.5064 12.856 13.3874 12.877 13.2334 12.877H11.8964V16.398C11.8964 16.5053 11.8918 16.5847 11.8824 16.636C11.8778 16.6873 11.8568 16.748 11.8194 16.818C11.7868 16.8833 11.7261 16.93 11.6374 16.958C11.5488 16.986 11.4321 17 11.2874 17C11.1428 17 11.0261 16.986 10.9374 16.958C10.8534 16.93 10.7928 16.8833 10.7554 16.818C10.7228 16.748 10.7018 16.6873 10.6924 16.636C10.6878 16.58 10.6854 16.4983 10.6854 16.391V12.877H9.34142C9.19209 12.877 9.08242 12.8607 9.01242 12.828C8.94242 12.7907 8.89576 12.7347 8.87242 12.66C8.84909 12.5853 8.83742 12.4873 8.83742 12.366C8.83742 12.2447 8.84909 12.149 8.87242 12.079C8.89576 12.0043 8.93542 11.953 8.99142 11.925C9.07542 11.883 9.19442 11.862 9.34842 11.862ZM16.1235 11.806C16.8142 11.806 17.4139 12.0557 17.9225 12.555C18.4312 13.0543 18.6855 13.675 18.6855 14.417C18.6855 15.1543 18.4429 15.7843 17.9575 16.307C17.4722 16.825 16.8749 17.084 16.1655 17.084C15.4562 17.084 14.8519 16.8273 14.3525 16.314C13.8579 15.8007 13.6105 15.1893 13.6105 14.48C13.6105 14.0927 13.6805 13.731 13.8205 13.395C13.9605 13.0543 14.1472 12.7697 14.3805 12.541C14.6139 12.3123 14.8822 12.1327 15.1855 12.002C15.4889 11.8713 15.8015 11.806 16.1235 11.806ZM14.8495 14.445C14.8495 14.8603 14.9825 15.1987 15.2485 15.46C15.5192 15.7167 15.8202 15.845 16.1515 15.845C16.4829 15.845 16.7815 15.719 17.0475 15.467C17.3135 15.215 17.4465 14.8767 17.4465 14.452C17.4465 14.0273 17.3112 13.6867 17.0405 13.43C16.7745 13.1733 16.4759 13.045 16.1445 13.045C15.8132 13.045 15.5145 13.1757 15.2485 13.437C14.9825 13.6937 14.8495 14.0297 14.8495 14.445ZM22.9303 12.905C23.0516 13.1523 23.1123 13.4277 23.1123 13.731C23.1123 14.0343 23.0516 14.3097 22.9303 14.557C22.8089 14.7997 22.6526 14.9933 22.4613 15.138C22.0739 15.4367 21.6726 15.586 21.2573 15.586H20.3823V16.377C20.3823 16.4843 20.3776 16.566 20.3683 16.622C20.3636 16.6733 20.3426 16.734 20.3053 16.804C20.2399 16.93 20.0579 16.993 19.7593 16.993C19.4326 16.993 19.2413 16.9067 19.1853 16.734C19.1573 16.6547 19.1433 16.5333 19.1433 16.37V12.485C19.1433 12.3777 19.1456 12.2983 19.1503 12.247C19.1596 12.191 19.1829 12.128 19.2203 12.058C19.2856 11.932 19.4676 11.869 19.7663 11.869H21.2643C21.6749 11.869 22.0739 12.0183 22.4613 12.317C22.6526 12.4617 22.8089 12.6577 22.9303 12.905ZM21.2643 14.347C21.4043 14.347 21.5419 14.2957 21.6773 14.193C21.8126 14.0903 21.8803 13.9363 21.8803 13.731C21.8803 13.5257 21.8126 13.3717 21.6773 13.269C21.5419 13.1617 21.4019 13.108 21.2573 13.108H20.3823V14.347H21.2643Z"/>
</mask>
<path d="M5.357 16.279C5.23567 16.1297 5.175 15.9967 5.175 15.88C5.175 15.7587 5.27533 15.6 5.476 15.404C5.59267 15.292 5.71633 15.236 5.847 15.236C5.97767 15.236 6.15967 15.3527 6.393 15.586C6.45833 15.6653 6.55167 15.7423 6.673 15.817C6.79433 15.887 6.90633 15.922 7.009 15.922C7.443 15.922 7.66 15.7447 7.66 15.39C7.66 15.2827 7.59933 15.194 7.478 15.124C7.36133 15.0493 7.21433 14.9957 7.037 14.963C6.85967 14.9303 6.66833 14.879 6.463 14.809C6.25767 14.7343 6.06633 14.648 5.889 14.55C5.71167 14.452 5.56233 14.298 5.441 14.088C5.32433 13.8733 5.266 13.6167 5.266 13.318C5.266 12.9073 5.41767 12.5503 5.721 12.247C6.029 11.939 6.44667 11.785 6.974 11.785C7.254 11.785 7.50833 11.8223 7.737 11.897C7.97033 11.967 8.13133 12.0393 8.22 12.114L8.395 12.247C8.53967 12.3823 8.612 12.4967 8.612 12.59C8.612 12.6833 8.556 12.8117 8.444 12.975C8.28533 13.2083 8.122 13.325 7.954 13.325C7.856 13.325 7.73467 13.2783 7.59 13.185C7.576 13.1757 7.548 13.1523 7.506 13.115C7.46867 13.0777 7.43367 13.0473 7.401 13.024C7.303 12.9633 7.177 12.933 7.023 12.933C6.87367 12.933 6.74767 12.9703 6.645 13.045C6.547 13.115 6.498 13.2153 6.498 13.346C6.498 13.472 6.55633 13.5747 6.673 13.654C6.79433 13.7333 6.94367 13.787 7.121 13.815C7.29833 13.843 7.492 13.8873 7.702 13.948C7.912 14.004 8.10567 14.074 8.283 14.158C8.46033 14.242 8.60733 14.389 8.724 14.599C8.84533 14.8043 8.906 15.0587 8.906 15.362C8.906 15.6653 8.84533 15.9337 8.724 16.167C8.60267 16.3957 8.444 16.573 8.248 16.699C7.87 16.9463 7.46633 17.07 7.037 17.07C6.81767 17.07 6.61 17.0443 6.414 16.993C6.218 16.937 6.05933 16.8693 5.938 16.79C5.69067 16.6407 5.518 16.496 5.42 16.356L5.357 16.279ZM9.34842 11.862H13.2404C13.3898 11.862 13.4994 11.8807 13.5694 11.918C13.6394 11.9507 13.6861 12.0043 13.7094 12.079C13.7328 12.1537 13.7444 12.2517 13.7444 12.373C13.7444 12.4943 13.7328 12.5923 13.7094 12.667C13.6861 12.737 13.6464 12.786 13.5904 12.814C13.5064 12.856 13.3874 12.877 13.2334 12.877H11.8964V16.398C11.8964 16.5053 11.8918 16.5847 11.8824 16.636C11.8778 16.6873 11.8568 16.748 11.8194 16.818C11.7868 16.8833 11.7261 16.93 11.6374 16.958C11.5488 16.986 11.4321 17 11.2874 17C11.1428 17 11.0261 16.986 10.9374 16.958C10.8534 16.93 10.7928 16.8833 10.7554 16.818C10.7228 16.748 10.7018 16.6873 10.6924 16.636C10.6878 16.58 10.6854 16.4983 10.6854 16.391V12.877H9.34142C9.19209 12.877 9.08242 12.8607 9.01242 12.828C8.94242 12.7907 8.89576 12.7347 8.87242 12.66C8.84909 12.5853 8.83742 12.4873 8.83742 12.366C8.83742 12.2447 8.84909 12.149 8.87242 12.079C8.89576 12.0043 8.93542 11.953 8.99142 11.925C9.07542 11.883 9.19442 11.862 9.34842 11.862ZM16.1235 11.806C16.8142 11.806 17.4139 12.0557 17.9225 12.555C18.4312 13.0543 18.6855 13.675 18.6855 14.417C18.6855 15.1543 18.4429 15.7843 17.9575 16.307C17.4722 16.825 16.8749 17.084 16.1655 17.084C15.4562 17.084 14.8519 16.8273 14.3525 16.314C13.8579 15.8007 13.6105 15.1893 13.6105 14.48C13.6105 14.0927 13.6805 13.731 13.8205 13.395C13.9605 13.0543 14.1472 12.7697 14.3805 12.541C14.6139 12.3123 14.8822 12.1327 15.1855 12.002C15.4889 11.8713 15.8015 11.806 16.1235 11.806ZM14.8495 14.445C14.8495 14.8603 14.9825 15.1987 15.2485 15.46C15.5192 15.7167 15.8202 15.845 16.1515 15.845C16.4829 15.845 16.7815 15.719 17.0475 15.467C17.3135 15.215 17.4465 14.8767 17.4465 14.452C17.4465 14.0273 17.3112 13.6867 17.0405 13.43C16.7745 13.1733 16.4759 13.045 16.1445 13.045C15.8132 13.045 15.5145 13.1757 15.2485 13.437C14.9825 13.6937 14.8495 14.0297 14.8495 14.445ZM22.9303 12.905C23.0516 13.1523 23.1123 13.4277 23.1123 13.731C23.1123 14.0343 23.0516 14.3097 22.9303 14.557C22.8089 14.7997 22.6526 14.9933 22.4613 15.138C22.0739 15.4367 21.6726 15.586 21.2573 15.586H20.3823V16.377C20.3823 16.4843 20.3776 16.566 20.3683 16.622C20.3636 16.6733 20.3426 16.734 20.3053 16.804C20.2399 16.93 20.0579 16.993 19.7593 16.993C19.4326 16.993 19.2413 16.9067 19.1853 16.734C19.1573 16.6547 19.1433 16.5333 19.1433 16.37V12.485C19.1433 12.3777 19.1456 12.2983 19.1503 12.247C19.1596 12.191 19.1829 12.128 19.2203 12.058C19.2856 11.932 19.4676 11.869 19.7663 11.869H21.2643C21.6749 11.869 22.0739 12.0183 22.4613 12.317C22.6526 12.4617 22.8089 12.6577 22.9303 12.905ZM21.2643 14.347C21.4043 14.347 21.5419 14.2957 21.6773 14.193C21.8126 14.0903 21.8803 13.9363 21.8803 13.731C21.8803 13.5257 21.8126 13.3717 21.6773 13.269C21.5419 13.1617 21.4019 13.108 21.2573 13.108H20.3823V14.347H21.2643Z" fill="url(#paint2_linear_319_150)"/>
<path d="M5.357 16.279L5.16297 16.4366L5.16351 16.4373L5.357 16.279ZM5.476 15.404L5.30286 15.2236L5.30132 15.2252L5.476 15.404ZM6.393 15.586L6.58598 15.4271L6.57831 15.4178L6.56978 15.4092L6.393 15.586ZM6.673 15.817L6.54192 16.03L6.54807 16.0335L6.673 15.817ZM7.478 15.124L7.34309 15.3348L7.35307 15.3405L7.478 15.124ZM7.037 14.963L6.99171 15.2089L6.99171 15.2089L7.037 14.963ZM6.463 14.809L6.37755 15.044L6.38233 15.0456L6.463 14.809ZM5.889 14.55L5.76808 14.7688L5.889 14.55ZM5.441 14.088L5.22127 14.2074L5.22453 14.2131L5.441 14.088ZM5.721 12.247L5.89778 12.4238L5.89778 12.4238L5.721 12.247ZM7.737 11.897L7.65938 12.1347L7.66516 12.1365L7.737 11.897ZM8.22 12.114L8.05876 12.3055L8.06873 12.313L8.22 12.114ZM8.395 12.247L8.56579 12.0644L8.55645 12.0557L8.54627 12.048L8.395 12.247ZM8.444 12.975L8.23782 12.8336L8.23727 12.8344L8.444 12.975ZM7.59 13.185L7.45131 13.393L7.45447 13.3951L7.59 13.185ZM7.506 13.115L7.32922 13.2918L7.33442 13.297L7.33991 13.3019L7.506 13.115ZM7.401 13.024L7.54631 12.8206L7.5396 12.8158L7.53259 12.8114L7.401 13.024ZM6.645 13.045L6.79031 13.2484L6.79204 13.2472L6.645 13.045ZM6.673 13.654L6.5324 13.8608L6.53619 13.8632L6.673 13.654ZM7.121 13.815L7.08201 14.0619L7.08201 14.0619L7.121 13.815ZM7.702 13.948L7.6326 14.1882L7.63758 14.1896L7.702 13.948ZM8.283 14.158L8.17598 14.3839L8.17598 14.3839L8.283 14.158ZM8.724 14.599L8.50538 14.7205L8.50877 14.7262L8.724 14.599ZM8.724 16.167L8.94484 16.2842L8.9458 16.2823L8.724 16.167ZM8.248 16.699L8.11281 16.4887L8.11112 16.4898L8.248 16.699ZM6.414 16.993L6.3453 17.2334L6.35066 17.2348L6.414 16.993ZM5.938 16.79L6.0749 16.5806L6.06722 16.576L5.938 16.79ZM5.42 16.356L5.62481 16.2126L5.61943 16.205L5.61349 16.1977L5.42 16.356ZM5.55103 16.1214C5.4442 15.9899 5.425 15.9123 5.425 15.88H4.925C4.925 16.081 5.02713 16.2695 5.16297 16.4366L5.55103 16.1214ZM5.425 15.88C5.425 15.8859 5.42391 15.8631 5.46155 15.8036C5.49756 15.7467 5.55815 15.6732 5.65068 15.5828L5.30132 15.2252C5.19318 15.3308 5.10327 15.4347 5.03895 15.5364C4.97626 15.6355 4.925 15.7528 4.925 15.88H5.425ZM5.64913 15.5843C5.7309 15.5059 5.7954 15.486 5.847 15.486V14.986C5.63727 14.986 5.45444 15.0781 5.30287 15.2237L5.64913 15.5843ZM5.847 15.486C5.84256 15.486 5.87219 15.4863 5.94658 15.534C6.01677 15.579 6.10636 15.6529 6.21622 15.7628L6.56978 15.4092C6.4463 15.2857 6.32823 15.1847 6.21642 15.113C6.10882 15.0441 5.98211 14.986 5.847 14.986V15.486ZM6.20002 15.7449C6.28821 15.852 6.40554 15.946 6.54198 16.0299L6.80402 15.6041C6.69779 15.5387 6.62846 15.4787 6.58598 15.4271L6.20002 15.7449ZM6.54807 16.0335C6.69412 16.1178 6.84934 16.172 7.009 16.172V15.672C6.96332 15.672 6.89455 15.6562 6.79793 15.6005L6.54807 16.0335ZM7.009 16.172C7.25366 16.172 7.48358 16.123 7.65545 15.9826C7.83697 15.8342 7.91 15.6207 7.91 15.39H7.41C7.41 15.514 7.37453 15.5664 7.33905 15.5954C7.29392 15.6323 7.19834 15.672 7.009 15.672V16.172ZM7.91 15.39C7.91 15.1659 7.77456 15.0065 7.60293 14.9075L7.35307 15.3405C7.39077 15.3623 7.40439 15.3786 7.40817 15.3842C7.40987 15.3867 7.40997 15.3874 7.4098 15.3869C7.40964 15.3864 7.41 15.3871 7.41 15.39H7.91ZM7.61276 14.9134C7.46197 14.8169 7.28231 14.754 7.08229 14.7171L6.99171 15.2089C7.14636 15.2374 7.2607 15.2817 7.34324 15.3346L7.61276 14.9134ZM7.08229 14.7171C6.91908 14.6871 6.73969 14.6392 6.54367 14.5724L6.38233 15.0456C6.59698 15.1188 6.80025 15.1736 6.99171 15.2089L7.08229 14.7171ZM6.54844 14.5741C6.35439 14.5035 6.17502 14.4224 6.00992 14.3312L5.76808 14.7688C5.95765 14.8736 6.16094 14.9652 6.37756 15.0439L6.54844 14.5741ZM6.00992 14.3312C5.87957 14.2592 5.76057 14.1414 5.65747 13.9629L5.22453 14.2131C5.3641 14.4546 5.54376 14.6448 5.76808 14.7688L6.00992 14.3312ZM5.66066 13.9686C5.56787 13.7979 5.516 13.5842 5.516 13.318H5.016C5.016 13.6492 5.0808 13.9488 5.22134 14.2074L5.66066 13.9686ZM5.516 13.318C5.516 12.9769 5.639 12.6826 5.89778 12.4238L5.54422 12.0702C5.19634 12.4181 5.016 12.8378 5.016 13.318H5.516ZM5.89778 12.4238C6.14931 12.1722 6.49806 12.035 6.974 12.035V11.535C6.39527 11.535 5.90869 11.7058 5.54422 12.0702L5.89778 12.4238ZM6.974 12.035C7.23187 12.035 7.45951 12.0694 7.6594 12.1347L7.8146 11.6593C7.55716 11.5753 7.27613 11.535 6.974 11.535V12.035ZM7.66516 12.1365C7.89394 12.2051 8.01214 12.2658 8.05897 12.3052L8.38103 11.9228C8.25053 11.8129 8.04673 11.7289 7.80884 11.6575L7.66516 12.1365ZM8.06873 12.313L8.24373 12.446L8.54627 12.048L8.37127 11.915L8.06873 12.313ZM8.22421 12.4296C8.2875 12.4888 8.3256 12.5349 8.34648 12.5679C8.3681 12.6021 8.362 12.6074 8.362 12.59H8.862C8.862 12.4793 8.81973 12.3807 8.76902 12.3006C8.71757 12.2193 8.64717 12.1406 8.56579 12.0644L8.22421 12.4296ZM8.362 12.59C8.362 12.5895 8.36135 12.6093 8.34087 12.6563C8.32119 12.7014 8.28823 12.7601 8.23782 12.8336L8.65018 13.1164C8.76497 12.949 8.862 12.7655 8.862 12.59H8.362ZM8.23727 12.8344C8.09337 13.046 7.99538 13.075 7.954 13.075V13.575C8.24862 13.575 8.4773 13.3706 8.65073 13.1156L8.23727 12.8344ZM7.954 13.075C7.92825 13.075 7.85656 13.0595 7.72553 12.9749L7.45447 13.3951C7.61277 13.4972 7.78375 13.575 7.954 13.575V13.075ZM7.72868 12.977C7.73227 12.9794 7.73322 12.9803 7.73036 12.978C7.72797 12.9762 7.72412 12.9731 7.71855 12.9684C7.70737 12.9591 7.69204 12.9459 7.67209 12.9281L7.33991 13.3019C7.37869 13.3363 7.42011 13.3722 7.45132 13.393L7.72868 12.977ZM7.68278 12.9382C7.63855 12.894 7.59304 12.8539 7.54631 12.8206L7.25569 13.2274C7.27429 13.2407 7.29878 13.2613 7.32922 13.2918L7.68278 12.9382ZM7.53259 12.8114C7.38388 12.7194 7.2083 12.683 7.023 12.683V13.183C7.1457 13.183 7.22212 13.2073 7.26941 13.2366L7.53259 12.8114ZM7.023 12.683C6.83044 12.683 6.65052 12.7319 6.49796 12.8428L6.79204 13.2472C6.84482 13.2088 6.9169 13.183 7.023 13.183V12.683ZM6.49969 12.8416C6.32972 12.963 6.248 13.1426 6.248 13.346H6.748C6.748 13.288 6.76428 13.267 6.79031 13.2484L6.49969 12.8416ZM6.248 13.346C6.248 13.5657 6.35689 13.7414 6.53242 13.8607L6.81358 13.4473C6.75578 13.408 6.748 13.3783 6.748 13.346H6.248ZM6.53619 13.8632C6.69327 13.9659 6.87787 14.0297 7.08201 14.0619L7.15999 13.5681C7.00946 13.5443 6.8954 13.5007 6.80981 13.4448L6.53619 13.8632ZM7.08201 14.0619C7.24716 14.088 7.43054 14.1298 7.63262 14.1882L7.77139 13.7078C7.55346 13.6449 7.34951 13.598 7.15999 13.5681L7.08201 14.0619ZM7.63758 14.1896C7.83448 14.2421 8.01372 14.3071 8.17598 14.3839L8.39002 13.9321C8.19762 13.8409 7.98952 13.7659 7.76642 13.7064L7.63758 14.1896ZM8.17598 14.3839C8.29642 14.441 8.40836 14.5456 8.50546 14.7204L8.94254 14.4776C8.8063 14.2324 8.62425 14.043 8.39002 13.9321L8.17598 14.3839ZM8.50877 14.7262C8.60194 14.8839 8.656 15.0914 8.656 15.362H9.156C9.156 15.0259 9.08873 14.7248 8.93923 14.4718L8.50877 14.7262ZM8.656 15.362C8.656 15.6314 8.60235 15.8591 8.5022 16.0517L8.9458 16.2823C9.08832 16.0083 9.156 15.6993 9.156 15.362H8.656ZM8.50316 16.0498C8.39964 16.2449 8.26887 16.3884 8.11281 16.4887L8.38319 16.9093C8.61913 16.7576 8.80569 16.5464 8.94484 16.2842L8.50316 16.0498ZM8.11112 16.4898C7.77157 16.712 7.41511 16.82 7.037 16.82V17.32C7.51756 17.32 7.96843 17.1807 8.38488 16.9082L8.11112 16.4898ZM7.037 16.82C6.83729 16.82 6.65104 16.7966 6.47734 16.7512L6.35066 17.2348C6.56896 17.292 6.79804 17.32 7.037 17.32V16.82ZM6.48268 16.7526C6.30184 16.7009 6.16852 16.642 6.07481 16.5808L5.80119 16.9992C5.95014 17.0966 6.13416 17.1731 6.34532 17.2334L6.48268 16.7526ZM6.06722 16.576C5.83189 16.4339 5.69358 16.3109 5.62481 16.2126L5.21519 16.4994C5.34242 16.6811 5.54944 16.8474 5.80878 17.004L6.06722 16.576ZM5.61349 16.1977L5.55049 16.1207L5.16351 16.4373L5.22651 16.5143L5.61349 16.1977ZM13.5694 11.918L13.4516 12.1389L13.4637 12.1445L13.5694 11.918ZM13.7094 12.079L13.4708 12.1536L13.4708 12.1536L13.7094 12.079ZM13.7094 12.667L13.9466 12.7461L13.948 12.7416L13.7094 12.667ZM13.5904 12.814L13.4786 12.5904L13.4786 12.5904L13.5904 12.814ZM11.8964 12.877V12.627H11.6464V12.877H11.8964ZM11.8824 16.636L11.6365 16.5913L11.6345 16.6023L11.6334 16.6134L11.8824 16.636ZM11.8194 16.818L11.5988 16.7003L11.5958 16.7062L11.8194 16.818ZM11.6374 16.958L11.7127 17.1964L11.6374 16.958ZM10.9374 16.958L10.8584 17.1952L10.8621 17.1964L10.9374 16.958ZM10.7554 16.818L10.5289 16.9237L10.5332 16.9331L10.5384 16.942L10.7554 16.818ZM10.6924 16.636L10.4433 16.6568L10.4443 16.6688L10.4465 16.6807L10.6924 16.636ZM10.6854 12.877H10.9354V12.627H10.6854V12.877ZM9.01242 12.828L8.89461 13.0489L8.9067 13.0545L9.01242 12.828ZM8.87242 12.66L8.6338 12.7346L8.6338 12.7346L8.87242 12.66ZM8.87242 12.079L9.10963 12.1581L9.11104 12.1536L8.87242 12.079ZM8.99142 11.925L9.10323 12.1486L9.10323 12.1486L8.99142 11.925ZM9.34842 12.112H13.2404V11.612H9.34842V12.112ZM13.2404 12.112C13.3789 12.112 13.4376 12.131 13.4518 12.1386L13.6871 11.6974C13.5613 11.6303 13.4006 11.612 13.2404 11.612V12.112ZM13.4637 12.1445C13.467 12.1461 13.4685 12.1472 13.4688 12.1474C13.4691 12.1476 13.4688 12.1474 13.4683 12.1468C13.4678 12.1462 13.4677 12.146 13.4681 12.1467C13.4684 12.1473 13.4695 12.1495 13.4708 12.1536L13.948 12.0044C13.904 11.8636 13.8098 11.7543 13.6751 11.6915L13.4637 12.1445ZM13.4708 12.1536C13.4836 12.1946 13.4944 12.2646 13.4944 12.373H13.9944C13.9944 12.2387 13.9819 12.1127 13.948 12.0044L13.4708 12.1536ZM13.4944 12.373C13.4944 12.4814 13.4836 12.5514 13.4708 12.5924L13.948 12.7416C13.9819 12.6333 13.9944 12.5073 13.9944 12.373H13.4944ZM13.4723 12.5879C13.4685 12.5993 13.4659 12.6014 13.4679 12.5989C13.4688 12.5978 13.4704 12.5961 13.4726 12.5943C13.4748 12.5925 13.477 12.5912 13.4786 12.5904L13.7022 13.0376C13.828 12.9747 13.9063 12.8669 13.9466 12.7461L13.4723 12.5879ZM13.4786 12.5904C13.4447 12.6073 13.3705 12.627 13.2334 12.627V13.127C13.4043 13.127 13.5681 13.1047 13.7022 13.0376L13.4786 12.5904ZM13.2334 12.627H11.8964V13.127H13.2334V12.627ZM11.6464 12.877V16.398H12.1464V12.877H11.6464ZM11.6464 16.398C11.6464 16.5026 11.6416 16.5632 11.6365 16.5913L12.1284 16.6807C12.1419 16.6061 12.1464 16.5081 12.1464 16.398H11.6464ZM11.6334 16.6134C11.633 16.6185 11.6281 16.6456 11.5988 16.7004L12.04 16.9356C12.0855 16.8504 12.1225 16.7562 12.1314 16.6586L11.6334 16.6134ZM11.5958 16.7062C11.5972 16.7034 11.5989 16.7024 11.597 16.7038C11.5942 16.706 11.5844 16.7126 11.5621 16.7196L11.7127 17.1964C11.8473 17.1539 11.9724 17.0711 12.043 16.9298L11.5958 16.7062ZM11.5621 16.7196C11.5074 16.7369 11.4191 16.75 11.2874 16.75V17.25C11.4451 17.25 11.5901 17.2351 11.7127 17.1964L11.5621 16.7196ZM11.2874 16.75C11.1558 16.75 11.0674 16.7369 11.0127 16.7196L10.8621 17.1964C10.9848 17.2351 11.1297 17.25 11.2874 17.25V16.75ZM11.0165 16.7208C10.9799 16.7086 10.974 16.6967 10.9725 16.694L10.5384 16.942C10.6115 17.07 10.7269 17.1514 10.8584 17.1952L11.0165 16.7208ZM10.982 16.7123C10.9545 16.6533 10.9425 16.6141 10.9384 16.5913L10.4465 16.6807C10.461 16.7606 10.491 16.8427 10.5289 16.9237L10.982 16.7123ZM10.9416 16.6152C10.9378 16.5698 10.9354 16.4964 10.9354 16.391H10.4354C10.4354 16.5002 10.4377 16.5902 10.4433 16.6568L10.9416 16.6152ZM10.9354 16.391V12.877H10.4354V16.391H10.9354ZM10.6854 12.627H9.34142V13.127H10.6854V12.627ZM9.34142 12.627C9.20076 12.627 9.13672 12.6101 9.11814 12.6015L8.9067 13.0545C9.02813 13.1112 9.18342 13.127 9.34142 13.127V12.627ZM9.13007 12.6074C9.12102 12.6026 9.11789 12.599 9.11698 12.598C9.11611 12.5969 9.11366 12.5938 9.11104 12.5854L8.6338 12.7346C8.67703 12.8729 8.76776 12.9808 8.89477 13.0486L9.13007 12.6074ZM9.11104 12.5854C9.09821 12.5444 9.08742 12.4744 9.08742 12.366H8.58742C8.58742 12.5003 8.59997 12.6263 8.6338 12.7346L9.11104 12.5854ZM9.08742 12.366C9.08742 12.2566 9.09846 12.1914 9.10959 12.1581L8.63525 11.9999C8.59971 12.1066 8.58742 12.2328 8.58742 12.366H9.08742ZM9.11104 12.1536C9.11563 12.1389 9.1191 12.1353 9.11749 12.1374C9.11665 12.1384 9.11488 12.1405 9.11207 12.1428C9.10923 12.1452 9.10616 12.1471 9.10323 12.1486L8.87962 11.7014C8.74843 11.767 8.67203 11.8821 8.6338 12.0044L9.11104 12.1536ZM9.10323 12.1486C9.13713 12.1317 9.2113 12.112 9.34842 12.112V11.612C9.17754 11.612 9.01371 11.6343 8.87962 11.7014L9.10323 12.1486ZM17.9225 12.555L18.0977 12.3766L18.0977 12.3766L17.9225 12.555ZM17.9575 16.307L18.14 16.4779L18.1407 16.4771L17.9575 16.307ZM14.3525 16.314L14.1725 16.4875L14.1733 16.4883L14.3525 16.314ZM13.8205 13.395L14.0513 13.4912L14.0518 13.49L13.8205 13.395ZM14.3805 12.541L14.5555 12.7196L14.5555 12.7196L14.3805 12.541ZM15.1855 12.002L15.0866 11.7724L15.0866 11.7724L15.1855 12.002ZM15.2485 15.46L15.0733 15.6384L15.0765 15.6414L15.2485 15.46ZM17.0475 15.467L17.2195 15.6485L17.2195 15.6485L17.0475 15.467ZM17.0405 13.43L16.8669 13.6099L16.8685 13.6114L17.0405 13.43ZM15.2485 13.437L15.4221 13.6169L15.4238 13.6153L15.2485 13.437ZM16.1235 12.056C16.7464 12.056 17.2838 12.2783 17.7474 12.7334L18.0977 12.3766C17.5439 11.833 16.882 11.556 16.1235 11.556V12.056ZM17.7474 12.7334C18.206 13.1836 18.4355 13.739 18.4355 14.417H18.9355C18.9355 13.611 18.6564 12.925 18.0977 12.3766L17.7474 12.7334ZM18.4355 14.417C18.4355 15.0936 18.2152 15.6622 17.7743 16.1369L18.1407 16.4771C18.6706 15.9065 18.9355 15.2151 18.9355 14.417H18.4355ZM17.7751 16.1361C17.337 16.6037 16.8057 16.834 16.1655 16.834V17.334C16.9441 17.334 17.6074 17.0463 18.14 16.4779L17.7751 16.1361ZM16.1655 16.834C15.5244 16.834 14.9845 16.6052 14.5318 16.1397L14.1733 16.4883C14.7192 17.0495 15.388 17.334 16.1655 17.334V16.834ZM14.5326 16.1405C14.0825 15.6735 13.8605 15.1243 13.8605 14.48H13.3605C13.3605 15.2544 13.6332 15.9278 14.1725 16.4875L14.5326 16.1405ZM13.8605 14.48C13.8605 14.1235 13.9248 13.7948 14.0513 13.4912L13.5898 13.2988C13.4363 13.6672 13.3605 14.0618 13.3605 14.48H13.8605ZM14.0518 13.49C14.1805 13.1767 14.3493 12.9216 14.5555 12.7196L14.2056 12.3624C13.9451 12.6177 13.7406 12.9319 13.5893 13.3L14.0518 13.49ZM14.5555 12.7196C14.7666 12.5127 15.0091 12.3502 15.2845 12.2316L15.0866 11.7724C14.7553 11.9151 14.4611 12.112 14.2056 12.3624L14.5555 12.7196ZM15.2845 12.2316C15.5574 12.114 15.8364 12.056 16.1235 12.056V11.556C15.7666 11.556 15.4204 11.6286 15.0866 11.7724L15.2845 12.2316ZM14.5995 14.445C14.5995 14.919 14.7538 15.3244 15.0733 15.6383L15.4238 15.2817C15.2113 15.0729 15.0995 14.8016 15.0995 14.445H14.5995ZM15.0765 15.6414C15.3873 15.9361 15.748 16.095 16.1515 16.095V15.595C15.8924 15.595 15.6511 15.4972 15.4206 15.2786L15.0765 15.6414ZM16.1515 16.095C16.5539 16.095 16.9124 15.9394 17.2195 15.6485L16.8756 15.2855C16.6507 15.4986 16.4119 15.595 16.1515 15.595V16.095ZM17.2195 15.6485C17.5434 15.3417 17.6965 14.9334 17.6965 14.452H17.1965C17.1965 14.8199 17.0837 15.0883 16.8756 15.2855L17.2195 15.6485ZM17.6965 14.452C17.6965 13.9691 17.5401 13.5592 17.2126 13.2486L16.8685 13.6114C17.0823 13.8141 17.1965 14.0855 17.1965 14.452H17.6965ZM17.2141 13.2501C16.9074 12.9541 16.5484 12.795 16.1445 12.795V13.295C16.4034 13.295 16.6417 13.3925 16.867 13.6099L17.2141 13.2501ZM16.1445 12.795C15.7392 12.795 15.3797 12.9577 15.0733 13.2587L15.4238 13.6153C15.6494 13.3937 15.8872 13.295 16.1445 13.295V12.795ZM15.075 13.2571C14.7539 13.5669 14.5995 13.971 14.5995 14.445H15.0995C15.0995 14.0883 15.2112 13.8204 15.4221 13.6169L15.075 13.2571ZM22.9303 12.905L23.1547 12.7949L23.1547 12.7949L22.9303 12.905ZM22.9303 14.557L23.1539 14.6688L23.1547 14.6671L22.9303 14.557ZM22.4613 15.138L22.3105 14.9386L22.3086 14.94L22.4613 15.138ZM20.3823 15.586V15.336H20.1323V15.586H20.3823ZM20.3683 16.622L20.1217 16.5809L20.1202 16.5901L20.1193 16.5994L20.3683 16.622ZM20.3053 16.804L20.0847 16.6863L20.0833 16.6889L20.3053 16.804ZM19.1853 16.734L19.4232 16.6568L19.421 16.6508L19.1853 16.734ZM19.1503 12.247L18.9037 12.2059L18.9022 12.2151L18.9013 12.2244L19.1503 12.247ZM19.2203 12.058L19.4409 12.1757L19.4422 12.1731L19.2203 12.058ZM22.4613 12.317L22.3086 12.515L22.3105 12.5164L22.4613 12.317ZM21.6773 14.193L21.5262 13.9938L21.5262 13.9938L21.6773 14.193ZM21.6773 13.269L21.5219 13.4649L21.5262 13.4682L21.6773 13.269ZM20.3823 13.108V12.858H20.1323V13.108H20.3823ZM20.3823 14.347H20.1323V14.597H20.3823V14.347ZM22.7058 13.0151C22.8087 13.2248 22.8623 13.4619 22.8623 13.731H23.3623C23.3623 13.3934 23.2945 13.0798 23.1547 12.7949L22.7058 13.0151ZM22.8623 13.731C22.8623 14.0001 22.8087 14.2372 22.7058 14.4469L23.1547 14.6671C23.2945 14.3822 23.3623 14.0686 23.3623 13.731H22.8623ZM22.7067 14.4452C22.6003 14.658 22.4673 14.82 22.3105 14.9386L22.6121 15.3374C22.8379 15.1667 23.0176 14.9413 23.1539 14.6688L22.7067 14.4452ZM22.3086 14.94C21.957 15.2112 21.608 15.336 21.2573 15.336V15.836C21.7372 15.836 22.1909 15.6622 22.6139 15.336L22.3086 14.94ZM21.2573 15.336H20.3823V15.836H21.2573V15.336ZM20.1323 15.586V16.377H20.6323V15.586H20.1323ZM20.1323 16.377C20.1323 16.4804 20.1276 16.5456 20.1217 16.5809L20.6149 16.6631C20.6277 16.5864 20.6323 16.4883 20.6323 16.377H20.1323ZM20.1193 16.5994C20.1188 16.6045 20.1139 16.6316 20.0847 16.6864L20.5259 16.9216C20.5713 16.8364 20.6084 16.7422 20.6173 16.6446L20.1193 16.5994ZM20.0833 16.6889C20.0894 16.6773 20.0905 16.6913 20.038 16.7095C19.9836 16.7283 19.8944 16.743 19.7593 16.743V17.243C19.9229 17.243 20.0739 17.2262 20.2016 17.182C20.3311 17.1372 20.4559 17.0567 20.5272 16.9191L20.0833 16.6889ZM19.7593 16.743C19.6137 16.743 19.524 16.7231 19.4736 16.7004C19.4311 16.6812 19.4259 16.6655 19.4231 16.6569L18.9475 16.8111C19.0591 17.1553 19.4199 17.243 19.7593 17.243V16.743ZM19.421 16.6508C19.4076 16.6129 19.3933 16.5265 19.3933 16.37H18.8933C18.8933 16.5402 18.9069 16.6965 18.9495 16.8172L19.421 16.6508ZM19.3933 16.37V12.485H18.8933V16.37H19.3933ZM19.3933 12.485C19.3933 12.379 19.3957 12.3091 19.3993 12.2696L18.9013 12.2244C18.8956 12.2876 18.8933 12.3764 18.8933 12.485H19.3933ZM19.3969 12.2881C19.4004 12.2672 19.4116 12.2305 19.4409 12.1756L18.9997 11.9404C18.9543 12.0255 18.9189 12.1148 18.9037 12.2059L19.3969 12.2881ZM19.4422 12.1731C19.4362 12.1847 19.4351 12.1707 19.4876 12.1525C19.5419 12.1337 19.6312 12.119 19.7663 12.119V11.619C19.6027 11.619 19.4516 11.6358 19.324 11.68C19.1945 11.7248 19.0697 11.8053 18.9983 11.9429L19.4422 12.1731ZM19.7663 12.119H21.2643V11.619H19.7663V12.119ZM21.2643 12.119C21.6097 12.119 21.9564 12.2434 22.3086 12.515L22.6139 12.119C22.1915 11.7933 21.7402 11.619 21.2643 11.619V12.119ZM22.3105 12.5164C22.4663 12.6342 22.5992 12.7977 22.7058 13.0151L23.1547 12.7949C23.0187 12.5177 22.8389 12.2891 22.6121 12.1176L22.3105 12.5164ZM21.2643 14.597C21.4697 14.597 21.6591 14.5206 21.8284 14.3922L21.5262 13.9938C21.4248 14.0707 21.3389 14.097 21.2643 14.097V14.597ZM21.8284 14.3922C22.0393 14.2322 22.1303 13.9963 22.1303 13.731H21.6303C21.6303 13.8764 21.586 13.9485 21.5262 13.9938L21.8284 14.3922ZM22.1303 13.731C22.1303 13.4657 22.0393 13.2298 21.8284 13.0698L21.5262 13.4682C21.586 13.5135 21.6303 13.5856 21.6303 13.731H22.1303ZM21.8326 13.0731C21.662 12.9378 21.4687 12.858 21.2573 12.858V13.358C21.3352 13.358 21.4219 13.3855 21.5219 13.4649L21.8326 13.0731ZM21.2573 12.858H20.3823V13.358H21.2573V12.858ZM20.1323 13.108V14.347H20.6323V13.108H20.1323ZM20.3823 14.597H21.2643V14.097H20.3823V14.597Z" fill="url(#paint3_linear_319_150)" fill-opacity="0.7" mask="url(#path-4-outside-1_319_150)"/>
<defs>
<filter id="filter0_bdi_319_150" x="0" y="0" width="28" height="28" filterUnits="userSpaceOnUse" color-interpolation-filters="sRGB">
<feFlood flood-opacity="0" result="BackgroundImageFix"/>
<feGaussianBlur in="BackgroundImageFix" stdDeviation="1"/>
<feComposite in2="SourceAlpha" operator="in" result="effect1_backgroundBlur_319_150"/>
<feColorMatrix in="SourceAlpha" type="matrix" values="0 0 0 0 0 0 0 0 0 0 0 0 0 0 0 0 0 0 127 0" result="hardAlpha"/>
<feOffset/>
<feGaussianBlur stdDeviation="2"/>
<feComposite in2="hardAlpha" operator="out"/>
<feColorMatrix type="matrix" values="0 0 0 0 0.231373 0 0 0 0 0.407843 0 0 0 0 1 0 0 0 0.1 0"/>
<feBlend mode="normal" in2="effect1_backgroundBlur_319_150" result="effect2_dropShadow_319_150"/>
<feBlend mode="normal" in="SourceGraphic" in2="effect2_dropShadow_319_150" result="shape"/>
<feColorMatrix in="SourceAlpha" type="matrix" values="0 0 0 0 0 0 0 0 0 0 0 0 0 0 0 0 0 0 127 0" result="hardAlpha"/>
<feOffset/>
<feGaussianBlur stdDeviation="1.5"/>
<feComposite in2="hardAlpha" operator="arithmetic" k2="-1" k3="1"/>
<feColorMatrix type="matrix" values="0 0 0 0 0.231373 0 0 0 0 0.407843 0 0 0 0 1 0 0 0 0.38 0"/>
<feBlend mode="normal" in2="shape" result="effect3_innerShadow_319_150"/>
</filter>
<filter id="filter1_d_319_150" x="2.25024" y="2.25" width="23.5" height="23.5" filterUnits="userSpaceOnUse" color-interpolation-filters="sRGB">
<feFlood flood-opacity="0" result="BackgroundImageFix"/>
<feColorMatrix in="SourceAlpha" type="matrix" values="0 0 0 0 0 0 0 0 0 0 0 0 0 0 0 0 0 0 127 0" result="hardAlpha"/>
<feOffset/>
<feGaussianBlur stdDeviation="1"/>
<feComposite in2="hardAlpha" operator="out"/>
<feColorMatrix type="matrix" values="0 0 0 0 0.231373 0 0 0 0 0.407843 0 0 0 0 1 0 0 0 0.35 0"/>
<feBlend mode="normal" in2="BackgroundImageFix" result="effect1_dropShadow_319_150"/>
<feBlend mode="normal" in="SourceGraphic" in2="effect1_dropShadow_319_150" result="shape"/>
</filter>
<linearGradient id="paint0_linear_319_150" x1="-2.5" y1="-4" x2="34.5" y2="29" gradientUnits="userSpaceOnUse">
<stop stop-color="#29EAC4" stop-opacity="0.5"/>
<stop offset="0.505208" stop-color="#12D8FA" stop-opacity="0.5"/>
<stop offset="1" stop-color="#0B2774" stop-opacity="0.5"/>
</linearGradient>
<linearGradient id="paint1_linear_319_150" x1="4.5" y1="7" x2="22" y2="22" gradientUnits="userSpaceOnUse">
<stop stop-color="white" stop-opacity="0.15"/>
<stop offset="1" stop-color="white" stop-opacity="0.44"/>
</linearGradient>
<linearGradient id="paint2_linear_319_150" x1="-1.175" y1="6.8" x2="10.327" y2="31.164" gradientUnits="userSpaceOnUse">
<stop stop-color="#29EAC4" stop-opacity="0.5"/>
<stop offset="0.505208" stop-color="#12D8FA" stop-opacity="0.5"/>
<stop offset="1" stop-color="#0B2774" stop-opacity="0.5"/>
</linearGradient>
<linearGradient id="paint3_linear_319_150" x1="5.475" y1="11.2" x2="11.0812" y2="22.6127" gradientUnits="userSpaceOnUse">
<stop stop-color="white" stop-opacity="0.15"/>
<stop offset="1" stop-color="white" stop-opacity="0.44"/>
</linearGradient>
</defs>
</svg>
