<svg width="24" height="24" viewBox="0 0 24 24" fill="none" xmlns="http://www.w3.org/2000/svg">
<g filter="url(#filter0_bdi_319_36)">
<path fill-rule="evenodd" clip-rule="evenodd" d="M12.5 8.49971C12.7696 8.81421 12.7331 9.28768 12.4187 9.55725L5.48811 15.5694C5.17361 15.8389 4.70014 15.8025 4.43057 15.488C4.161 15.1735 4.19743 14.7001 4.51192 14.4305L11.4425 8.41836C11.757 8.1488 12.2304 8.18522 12.5 8.49971Z" fill="url(#paint0_linear_319_36)" shape-rendering="crispEdges"/>
<path d="M12.3373 9.46234L12.3367 9.46283L5.40676 15.4745C5.40667 15.4745 5.40658 15.4746 5.40649 15.4747C5.14441 15.6991 4.75004 15.6687 4.52548 15.4067C4.30084 15.1446 4.33119 14.75 4.59327 14.5254L4.59383 14.5249L11.5238 8.51327C11.5239 8.5132 11.524 8.51312 11.5241 8.51305C11.7862 8.28865 12.1805 8.31907 12.4051 8.58106C12.6297 8.84314 12.5994 9.2377 12.3373 9.46234Z" stroke="url(#paint1_linear_319_36)" stroke-opacity="0.7" stroke-width="0.25" stroke-linecap="round" shape-rendering="crispEdges"/>
</g>
<g filter="url(#filter1_d_319_36)">
<path d="M12 9L19 15" stroke="#2AEAE7" stroke-width="1.5" stroke-linecap="round"/>
</g>
<defs>
<filter id="filter0_bdi_319_36" x="0.25" y="4.23779" width="16.4305" height="15.5122" filterUnits="userSpaceOnUse" color-interpolation-filters="sRGB">
<feFlood flood-opacity="0" result="BackgroundImageFix"/>
<feGaussianBlur in="BackgroundImageFix" stdDeviation="1"/>
<feComposite in2="SourceAlpha" operator="in" result="effect1_backgroundBlur_319_36"/>
<feColorMatrix in="SourceAlpha" type="matrix" values="0 0 0 0 0 0 0 0 0 0 0 0 0 0 0 0 0 0 127 0" result="hardAlpha"/>
<feOffset/>
<feGaussianBlur stdDeviation="2"/>
<feComposite in2="hardAlpha" operator="out"/>
<feColorMatrix type="matrix" values="0 0 0 0 0.231373 0 0 0 0 0.407843 0 0 0 0 1 0 0 0 0.1 0"/>
<feBlend mode="normal" in2="effect1_backgroundBlur_319_36" result="effect2_dropShadow_319_36"/>
<feBlend mode="normal" in="SourceGraphic" in2="effect2_dropShadow_319_36" result="shape"/>
<feColorMatrix in="SourceAlpha" type="matrix" values="0 0 0 0 0 0 0 0 0 0 0 0 0 0 0 0 0 0 127 0" result="hardAlpha"/>
<feOffset/>
<feGaussianBlur stdDeviation="1.5"/>
<feComposite in2="hardAlpha" operator="arithmetic" k2="-1" k3="1"/>
<feColorMatrix type="matrix" values="0 0 0 0 0.231373 0 0 0 0 0.407843 0 0 0 0 1 0 0 0 0.38 0"/>
<feBlend mode="normal" in2="shape" result="effect3_innerShadow_319_36"/>
</filter>
<filter id="filter1_d_319_36" x="9.25" y="6.25" width="12.5" height="11.5" filterUnits="userSpaceOnUse" color-interpolation-filters="sRGB">
<feFlood flood-opacity="0" result="BackgroundImageFix"/>
<feColorMatrix in="SourceAlpha" type="matrix" values="0 0 0 0 0 0 0 0 0 0 0 0 0 0 0 0 0 0 127 0" result="hardAlpha"/>
<feOffset/>
<feGaussianBlur stdDeviation="1"/>
<feComposite in2="hardAlpha" operator="out"/>
<feColorMatrix type="matrix" values="0 0 0 0 0.231373 0 0 0 0 0.407843 0 0 0 0 1 0 0 0 0.35 0"/>
<feBlend mode="normal" in2="BackgroundImageFix" result="effect1_dropShadow_319_36"/>
<feBlend mode="normal" in="SourceGraphic" in2="effect1_dropShadow_319_36" result="shape"/>
</filter>
<linearGradient id="paint0_linear_319_36" x1="1.48749" y1="5.2456" x2="15.4526" y2="19.3617" gradientUnits="userSpaceOnUse">
<stop stop-color="#344EA6" stop-opacity="0.26"/>
<stop offset="0.505208" stop-color="#587EFF" stop-opacity="0.12"/>
<stop offset="1" stop-color="#829EFF" stop-opacity="0.04"/>
</linearGradient>
<linearGradient id="paint1_linear_319_36" x1="4.4625" y1="9.37061" x2="11.1004" y2="15.8188" gradientUnits="userSpaceOnUse">
<stop stop-color="white" stop-opacity="0.15"/>
<stop offset="1" stop-color="white" stop-opacity="0.44"/>
</linearGradient>
</defs>
</svg>
