<svg width="24" height="25" viewBox="0 0 24 25" fill="none" xmlns="http://www.w3.org/2000/svg">
<circle cx="4" cy="4" r="4" transform="matrix(-1 0 0 1 16 4)" fill="#2AEAE7"/>
<g filter="url(#filter0_bdi_319_205)">
<path d="M5 16.9347C5 16.0743 5.54085 15.3068 6.35109 15.0175C10.004 13.7128 13.996 13.7128 17.6489 15.0175C18.4591 15.3068 19 16.0743 19 16.9347V18.2502C19 19.4376 17.9483 20.3498 16.7728 20.1818L15.8184 20.0455C13.2856 19.6837 10.7144 19.6837 8.18162 20.0455L7.22721 20.1818C6.0517 20.3498 5 19.4376 5 18.2502V16.9347Z" fill="url(#paint0_linear_319_205)" shape-rendering="crispEdges"/>
<path d="M5.125 16.9347C5.125 16.1271 5.63265 15.4068 6.39313 15.1352C10.0189 13.8403 13.9811 13.8403 17.6069 15.1352C18.3674 15.4068 18.875 16.1271 18.875 16.9347V18.2502C18.875 19.3615 17.8907 20.2153 16.7905 20.0581L15.8361 19.9217C13.2916 19.5582 10.7084 19.5582 8.16395 19.9217L7.20953 20.0581C6.10933 20.2153 5.125 19.3615 5.125 18.2502V16.9347Z" stroke="url(#paint1_linear_319_205)" stroke-opacity="0.7" stroke-width="0.25" shape-rendering="crispEdges"/>
</g>
<defs>
<filter id="filter0_bdi_319_205" x="1" y="10.0391" width="22" height="14.1626" filterUnits="userSpaceOnUse" color-interpolation-filters="sRGB">
<feFlood flood-opacity="0" result="BackgroundImageFix"/>
<feGaussianBlur in="BackgroundImageFix" stdDeviation="1"/>
<feComposite in2="SourceAlpha" operator="in" result="effect1_backgroundBlur_319_205"/>
<feColorMatrix in="SourceAlpha" type="matrix" values="0 0 0 0 0 0 0 0 0 0 0 0 0 0 0 0 0 0 127 0" result="hardAlpha"/>
<feOffset/>
<feGaussianBlur stdDeviation="2"/>
<feComposite in2="hardAlpha" operator="out"/>
<feColorMatrix type="matrix" values="0 0 0 0 0.231373 0 0 0 0 0.407843 0 0 0 0 1 0 0 0 0.1 0"/>
<feBlend mode="normal" in2="effect1_backgroundBlur_319_205" result="effect2_dropShadow_319_205"/>
<feBlend mode="normal" in="SourceGraphic" in2="effect2_dropShadow_319_205" result="shape"/>
<feColorMatrix in="SourceAlpha" type="matrix" values="0 0 0 0 0 0 0 0 0 0 0 0 0 0 0 0 0 0 127 0" result="hardAlpha"/>
<feOffset/>
<feGaussianBlur stdDeviation="1.5"/>
<feComposite in2="hardAlpha" operator="arithmetic" k2="-1" k3="1"/>
<feColorMatrix type="matrix" values="0 0 0 0 0.231373 0 0 0 0 0.407843 0 0 0 0 1 0 0 0 0.38 0"/>
<feBlend mode="normal" in2="shape" result="effect3_innerShadow_319_205"/>
</filter>
<linearGradient id="paint0_linear_319_205" x1="0.45" y1="10" x2="12.7791" y2="30.5263" gradientUnits="userSpaceOnUse">
<stop stop-color="#29EAC4" stop-opacity="0.5"/>
<stop offset="0.505208" stop-color="#12D8FA" stop-opacity="0.5"/>
<stop offset="1" stop-color="#0B2774" stop-opacity="0.5"/>
</linearGradient>
<linearGradient id="paint1_linear_319_205" x1="5.35" y1="14.125" x2="11.3191" y2="23.6756" gradientUnits="userSpaceOnUse">
<stop stop-color="white" stop-opacity="0.15"/>
<stop offset="1" stop-color="white" stop-opacity="0.44"/>
</linearGradient>
</defs>
</svg>
