<svg width="25" height="25" viewBox="0 0 25 25" fill="none" xmlns="http://www.w3.org/2000/svg">
<g filter="url(#filter0_bdi_319_135)">
<path d="M18 6.3706C18 4.65827 15.9884 3.73774 14.6926 4.85712L11.3632 7.73321C10.9999 8.04704 10.5358 8.21972 10.0558 8.21973L8.49998 8.21974C7.11928 8.21975 6 9.33903 6 10.7197V14.0127C6 15.3934 7.11929 16.5127 8.5 16.5127H10.0558C10.5359 16.5127 10.9999 16.6854 11.3632 16.9992L14.6926 19.8753C15.9884 20.9947 18 20.0741 18 18.3618V12.3662V6.3706Z" fill="url(#paint0_linear_319_135)" shape-rendering="crispEdges"/>
<path d="M14.7743 4.95171C15.9891 3.9023 17.875 4.76529 17.875 6.3706V12.3662V18.3618C17.875 19.9671 15.9891 20.8301 14.7743 19.7807L11.4449 16.9046C11.0589 16.5712 10.5659 16.3877 10.0558 16.3877H8.5C7.18832 16.3877 6.125 15.3244 6.125 14.0127V10.7197C6.125 9.40807 7.18831 8.34475 8.49998 8.34474L10.0558 8.34473C10.5658 8.34472 11.0589 8.16125 11.4449 7.8278L14.7743 4.95171Z" stroke="url(#paint1_linear_319_135)" stroke-opacity="0.7" stroke-width="0.25" shape-rendering="crispEdges"/>
</g>
<g filter="url(#filter1_d_319_135)">
<path d="M22 5L7 20" stroke="#2AEAE7" stroke-width="1.5" stroke-linecap="round" stroke-linejoin="round"/>
</g>
<defs>
<filter id="filter0_bdi_319_135" x="2" y="0.366699" width="20" height="23.999" filterUnits="userSpaceOnUse" color-interpolation-filters="sRGB">
<feFlood flood-opacity="0" result="BackgroundImageFix"/>
<feGaussianBlur in="BackgroundImageFix" stdDeviation="1"/>
<feComposite in2="SourceAlpha" operator="in" result="effect1_backgroundBlur_319_135"/>
<feColorMatrix in="SourceAlpha" type="matrix" values="0 0 0 0 0 0 0 0 0 0 0 0 0 0 0 0 0 0 127 0" result="hardAlpha"/>
<feOffset/>
<feGaussianBlur stdDeviation="2"/>
<feComposite in2="hardAlpha" operator="out"/>
<feColorMatrix type="matrix" values="0 0 0 0 0.231373 0 0 0 0 0.407843 0 0 0 0 1 0 0 0 0.1 0"/>
<feBlend mode="normal" in2="effect1_backgroundBlur_319_135" result="effect2_dropShadow_319_135"/>
<feBlend mode="normal" in="SourceGraphic" in2="effect2_dropShadow_319_135" result="shape"/>
<feColorMatrix in="SourceAlpha" type="matrix" values="0 0 0 0 0 0 0 0 0 0 0 0 0 0 0 0 0 0 127 0" result="hardAlpha"/>
<feOffset/>
<feGaussianBlur stdDeviation="1.5"/>
<feComposite in2="hardAlpha" operator="arithmetic" k2="-1" k3="1"/>
<feColorMatrix type="matrix" values="0 0 0 0 0.231373 0 0 0 0 0.407843 0 0 0 0 1 0 0 0 0.38 0"/>
<feBlend mode="normal" in2="shape" result="effect3_innerShadow_319_135"/>
</filter>
<filter id="filter1_d_319_135" x="4.25" y="2.25" width="20.5" height="20.5" filterUnits="userSpaceOnUse" color-interpolation-filters="sRGB">
<feFlood flood-opacity="0" result="BackgroundImageFix"/>
<feColorMatrix in="SourceAlpha" type="matrix" values="0 0 0 0 0 0 0 0 0 0 0 0 0 0 0 0 0 0 127 0" result="hardAlpha"/>
<feOffset/>
<feGaussianBlur stdDeviation="1"/>
<feComposite in2="hardAlpha" operator="out"/>
<feColorMatrix type="matrix" values="0 0 0 0 0.231373 0 0 0 0 0.407843 0 0 0 0 1 0 0 0 0.35 0"/>
<feBlend mode="normal" in2="BackgroundImageFix" result="effect1_dropShadow_319_135"/>
<feBlend mode="normal" in="SourceGraphic" in2="effect1_dropShadow_319_135" result="shape"/>
</filter>
<linearGradient id="paint0_linear_319_135" x1="2.1" y1="-6.29296" x2="33.5723" y2="9.95397" gradientUnits="userSpaceOnUse">
<stop stop-color="#29EAC4" stop-opacity="0.5"/>
<stop offset="0.505208" stop-color="#12D8FA" stop-opacity="0.5"/>
<stop offset="1" stop-color="#0B2774" stop-opacity="0.5"/>
</linearGradient>
<linearGradient id="paint1_linear_319_135" x1="6.3" y1="5.10986" x2="20.9166" y2="12.3614" gradientUnits="userSpaceOnUse">
<stop stop-color="white" stop-opacity="0.15"/>
<stop offset="1" stop-color="white" stop-opacity="0.44"/>
</linearGradient>
</defs>
</svg>
