<svg width="28" height="27" viewBox="0 0 28 27" fill="none" xmlns="http://www.w3.org/2000/svg">
<g filter="url(#filter0_bdi_319_151)">
<path d="M4 18.9261C4 18.3187 4.15479 17.7214 4.44975 17.1904L10.6357 6.0558C11.184 5.06881 12.1381 4.37239 13.2452 4.15096C13.7435 4.05131 14.2565 4.05131 14.7548 4.15096C15.8619 4.37239 16.816 5.06881 17.3643 6.0558L23.5502 17.1904C23.8452 17.7214 24 18.3187 24 18.9261C24 20.8999 22.3999 22.5 20.4261 22.5H7.57391C5.60009 22.5 4 20.8999 4 18.9261Z" fill="url(#paint0_linear_319_151)" shape-rendering="crispEdges"/>
<path d="M4.125 18.9261C4.125 18.34 4.27437 17.7635 4.55902 17.2512L10.7449 6.11651C11.2755 5.16158 12.1985 4.48777 13.2697 4.27353C13.7518 4.17711 14.2482 4.17711 14.7303 4.27353C15.8015 4.48777 16.7245 5.16158 17.2551 6.11651L23.441 17.2512C23.7256 17.7635 23.875 18.34 23.875 18.9261C23.875 20.8309 22.3309 22.375 20.4261 22.375H7.57391C5.66913 22.375 4.125 20.8309 4.125 18.9261Z" stroke="url(#paint1_linear_319_151)" stroke-opacity="0.7" stroke-width="0.25" shape-rendering="crispEdges"/>
</g>
<g filter="url(#filter1_d_319_151)">
<path d="M14 10L14 14" stroke="#2AEAE7" stroke-width="1.5" stroke-linecap="round" stroke-linejoin="round"/>
<path d="M14 17L14 17.5" stroke="#2AEAE7" stroke-width="1.5" stroke-linecap="round" stroke-linejoin="round"/>
</g>
<defs>
<filter id="filter0_bdi_319_151" x="0" y="0.0761719" width="28" height="26.4238" filterUnits="userSpaceOnUse" color-interpolation-filters="sRGB">
<feFlood flood-opacity="0" result="BackgroundImageFix"/>
<feGaussianBlur in="BackgroundImageFix" stdDeviation="1"/>
<feComposite in2="SourceAlpha" operator="in" result="effect1_backgroundBlur_319_151"/>
<feColorMatrix in="SourceAlpha" type="matrix" values="0 0 0 0 0 0 0 0 0 0 0 0 0 0 0 0 0 0 127 0" result="hardAlpha"/>
<feOffset/>
<feGaussianBlur stdDeviation="2"/>
<feComposite in2="hardAlpha" operator="out"/>
<feColorMatrix type="matrix" values="0 0 0 0 0.231373 0 0 0 0 0.407843 0 0 0 0 1 0 0 0 0.1 0"/>
<feBlend mode="normal" in2="effect1_backgroundBlur_319_151" result="effect2_dropShadow_319_151"/>
<feBlend mode="normal" in="SourceGraphic" in2="effect2_dropShadow_319_151" result="shape"/>
<feColorMatrix in="SourceAlpha" type="matrix" values="0 0 0 0 0 0 0 0 0 0 0 0 0 0 0 0 0 0 127 0" result="hardAlpha"/>
<feOffset/>
<feGaussianBlur stdDeviation="1.5"/>
<feComposite in2="hardAlpha" operator="arithmetic" k2="-1" k3="1"/>
<feColorMatrix type="matrix" values="0 0 0 0 0.231373 0 0 0 0 0.407843 0 0 0 0 1 0 0 0 0.38 0"/>
<feBlend mode="normal" in2="shape" result="effect3_innerShadow_319_151"/>
</filter>
<filter id="filter1_d_319_151" x="11.25" y="7.25" width="5.5" height="13" filterUnits="userSpaceOnUse" color-interpolation-filters="sRGB">
<feFlood flood-opacity="0" result="BackgroundImageFix"/>
<feColorMatrix in="SourceAlpha" type="matrix" values="0 0 0 0 0 0 0 0 0 0 0 0 0 0 0 0 0 0 127 0" result="hardAlpha"/>
<feOffset/>
<feGaussianBlur stdDeviation="1"/>
<feComposite in2="hardAlpha" operator="out"/>
<feColorMatrix type="matrix" values="0 0 0 0 0.231373 0 0 0 0 0.407843 0 0 0 0 1 0 0 0 0.35 0"/>
<feBlend mode="normal" in2="BackgroundImageFix" result="effect1_dropShadow_319_151"/>
<feBlend mode="normal" in="SourceGraphic" in2="effect1_dropShadow_319_151" result="shape"/>
</filter>
<linearGradient id="paint0_linear_319_151" x1="-2.5" y1="-3.4" x2="31.9264" y2="29.7942" gradientUnits="userSpaceOnUse">
<stop stop-color="#29EAC4" stop-opacity="0.5"/>
<stop offset="0.505208" stop-color="#12D8FA" stop-opacity="0.5"/>
<stop offset="1" stop-color="#0B2774" stop-opacity="0.5"/>
</linearGradient>
<linearGradient id="paint1_linear_319_151" x1="4.5" y1="6.775" x2="20.8328" y2="21.9096" gradientUnits="userSpaceOnUse">
<stop stop-color="white" stop-opacity="0.15"/>
<stop offset="1" stop-color="white" stop-opacity="0.44"/>
</linearGradient>
</defs>
</svg>
